%TF.GenerationSoftware,KiCad,Pcbnew,10.0.0*%
%TF.CreationDate,2026-04-30T16:17:29+09:00*%
%TF.ProjectId,esp_header_4_layers,6573705f-6865-4616-9465-725f345f6c61,rev?*%
%TF.SameCoordinates,Original*%
%TF.FileFunction,Legend,Top*%
%TF.FilePolarity,Positive*%
%FSLAX46Y46*%
G04 Gerber Fmt 4.6, Leading zero omitted, Abs format (unit mm)*
G04 Created by KiCad (PCBNEW 10.0.0) date 2026-04-30 16:17:29*
%MOMM*%
%LPD*%
G01*
G04 APERTURE LIST*
%ADD10C,0.100000*%
%ADD11C,0.150000*%
%ADD12C,0.508000*%
%ADD13C,0.152400*%
%ADD14C,0.120000*%
G04 APERTURE END LIST*
D10*
X106909525Y-101628637D02*
X106909525Y-102033399D01*
X106909525Y-102033399D02*
X106933335Y-102081018D01*
X106933335Y-102081018D02*
X106957144Y-102104828D01*
X106957144Y-102104828D02*
X107004763Y-102128637D01*
X107004763Y-102128637D02*
X107100001Y-102128637D01*
X107100001Y-102128637D02*
X107147620Y-102104828D01*
X107147620Y-102104828D02*
X107171430Y-102081018D01*
X107171430Y-102081018D02*
X107195239Y-102033399D01*
X107195239Y-102033399D02*
X107195239Y-101628637D01*
X107433335Y-101795304D02*
X107433335Y-102128637D01*
X107433335Y-101842923D02*
X107457145Y-101819113D01*
X107457145Y-101819113D02*
X107504764Y-101795304D01*
X107504764Y-101795304D02*
X107576192Y-101795304D01*
X107576192Y-101795304D02*
X107623811Y-101819113D01*
X107623811Y-101819113D02*
X107647621Y-101866732D01*
X107647621Y-101866732D02*
X107647621Y-102128637D01*
X108100002Y-102128637D02*
X108100002Y-101866732D01*
X108100002Y-101866732D02*
X108076192Y-101819113D01*
X108076192Y-101819113D02*
X108028573Y-101795304D01*
X108028573Y-101795304D02*
X107933335Y-101795304D01*
X107933335Y-101795304D02*
X107885716Y-101819113D01*
X108100002Y-102104828D02*
X108052383Y-102128637D01*
X108052383Y-102128637D02*
X107933335Y-102128637D01*
X107933335Y-102128637D02*
X107885716Y-102104828D01*
X107885716Y-102104828D02*
X107861907Y-102057208D01*
X107861907Y-102057208D02*
X107861907Y-102009589D01*
X107861907Y-102009589D02*
X107885716Y-101961970D01*
X107885716Y-101961970D02*
X107933335Y-101938161D01*
X107933335Y-101938161D02*
X108052383Y-101938161D01*
X108052383Y-101938161D02*
X108100002Y-101914351D01*
X108338097Y-102128637D02*
X108338097Y-101628637D01*
X108338097Y-101819113D02*
X108385716Y-101795304D01*
X108385716Y-101795304D02*
X108480954Y-101795304D01*
X108480954Y-101795304D02*
X108528573Y-101819113D01*
X108528573Y-101819113D02*
X108552383Y-101842923D01*
X108552383Y-101842923D02*
X108576192Y-101890542D01*
X108576192Y-101890542D02*
X108576192Y-102033399D01*
X108576192Y-102033399D02*
X108552383Y-102081018D01*
X108552383Y-102081018D02*
X108528573Y-102104828D01*
X108528573Y-102104828D02*
X108480954Y-102128637D01*
X108480954Y-102128637D02*
X108385716Y-102128637D01*
X108385716Y-102128637D02*
X108338097Y-102104828D01*
X108861907Y-102128637D02*
X108814288Y-102104828D01*
X108814288Y-102104828D02*
X108790478Y-102081018D01*
X108790478Y-102081018D02*
X108766669Y-102033399D01*
X108766669Y-102033399D02*
X108766669Y-101890542D01*
X108766669Y-101890542D02*
X108790478Y-101842923D01*
X108790478Y-101842923D02*
X108814288Y-101819113D01*
X108814288Y-101819113D02*
X108861907Y-101795304D01*
X108861907Y-101795304D02*
X108933335Y-101795304D01*
X108933335Y-101795304D02*
X108980954Y-101819113D01*
X108980954Y-101819113D02*
X109004764Y-101842923D01*
X109004764Y-101842923D02*
X109028573Y-101890542D01*
X109028573Y-101890542D02*
X109028573Y-102033399D01*
X109028573Y-102033399D02*
X109004764Y-102081018D01*
X109004764Y-102081018D02*
X108980954Y-102104828D01*
X108980954Y-102104828D02*
X108933335Y-102128637D01*
X108933335Y-102128637D02*
X108861907Y-102128637D01*
X109171431Y-101795304D02*
X109361907Y-101795304D01*
X109242859Y-101628637D02*
X109242859Y-102057208D01*
X109242859Y-102057208D02*
X109266669Y-102104828D01*
X109266669Y-102104828D02*
X109314288Y-102128637D01*
X109314288Y-102128637D02*
X109361907Y-102128637D01*
X109909525Y-101938161D02*
X110290478Y-101938161D01*
X110909525Y-101866732D02*
X111076192Y-101866732D01*
X111147620Y-102128637D02*
X110909525Y-102128637D01*
X110909525Y-102128637D02*
X110909525Y-101628637D01*
X110909525Y-101628637D02*
X111147620Y-101628637D01*
X111338097Y-102104828D02*
X111409525Y-102128637D01*
X111409525Y-102128637D02*
X111528573Y-102128637D01*
X111528573Y-102128637D02*
X111576192Y-102104828D01*
X111576192Y-102104828D02*
X111600001Y-102081018D01*
X111600001Y-102081018D02*
X111623811Y-102033399D01*
X111623811Y-102033399D02*
X111623811Y-101985780D01*
X111623811Y-101985780D02*
X111600001Y-101938161D01*
X111600001Y-101938161D02*
X111576192Y-101914351D01*
X111576192Y-101914351D02*
X111528573Y-101890542D01*
X111528573Y-101890542D02*
X111433335Y-101866732D01*
X111433335Y-101866732D02*
X111385716Y-101842923D01*
X111385716Y-101842923D02*
X111361906Y-101819113D01*
X111361906Y-101819113D02*
X111338097Y-101771494D01*
X111338097Y-101771494D02*
X111338097Y-101723875D01*
X111338097Y-101723875D02*
X111361906Y-101676256D01*
X111361906Y-101676256D02*
X111385716Y-101652447D01*
X111385716Y-101652447D02*
X111433335Y-101628637D01*
X111433335Y-101628637D02*
X111552382Y-101628637D01*
X111552382Y-101628637D02*
X111623811Y-101652447D01*
X111838096Y-102128637D02*
X111838096Y-101628637D01*
X111838096Y-101628637D02*
X112028572Y-101628637D01*
X112028572Y-101628637D02*
X112076191Y-101652447D01*
X112076191Y-101652447D02*
X112100001Y-101676256D01*
X112100001Y-101676256D02*
X112123810Y-101723875D01*
X112123810Y-101723875D02*
X112123810Y-101795304D01*
X112123810Y-101795304D02*
X112100001Y-101842923D01*
X112100001Y-101842923D02*
X112076191Y-101866732D01*
X112076191Y-101866732D02*
X112028572Y-101890542D01*
X112028572Y-101890542D02*
X111838096Y-101890542D01*
X112719048Y-102128637D02*
X112719048Y-101628637D01*
X112933334Y-102128637D02*
X112933334Y-101866732D01*
X112933334Y-101866732D02*
X112909524Y-101819113D01*
X112909524Y-101819113D02*
X112861905Y-101795304D01*
X112861905Y-101795304D02*
X112790477Y-101795304D01*
X112790477Y-101795304D02*
X112742858Y-101819113D01*
X112742858Y-101819113D02*
X112719048Y-101842923D01*
X113361905Y-102104828D02*
X113314286Y-102128637D01*
X113314286Y-102128637D02*
X113219048Y-102128637D01*
X113219048Y-102128637D02*
X113171429Y-102104828D01*
X113171429Y-102104828D02*
X113147620Y-102057208D01*
X113147620Y-102057208D02*
X113147620Y-101866732D01*
X113147620Y-101866732D02*
X113171429Y-101819113D01*
X113171429Y-101819113D02*
X113219048Y-101795304D01*
X113219048Y-101795304D02*
X113314286Y-101795304D01*
X113314286Y-101795304D02*
X113361905Y-101819113D01*
X113361905Y-101819113D02*
X113385715Y-101866732D01*
X113385715Y-101866732D02*
X113385715Y-101914351D01*
X113385715Y-101914351D02*
X113147620Y-101961970D01*
X113814286Y-102128637D02*
X113814286Y-101866732D01*
X113814286Y-101866732D02*
X113790476Y-101819113D01*
X113790476Y-101819113D02*
X113742857Y-101795304D01*
X113742857Y-101795304D02*
X113647619Y-101795304D01*
X113647619Y-101795304D02*
X113600000Y-101819113D01*
X113814286Y-102104828D02*
X113766667Y-102128637D01*
X113766667Y-102128637D02*
X113647619Y-102128637D01*
X113647619Y-102128637D02*
X113600000Y-102104828D01*
X113600000Y-102104828D02*
X113576191Y-102057208D01*
X113576191Y-102057208D02*
X113576191Y-102009589D01*
X113576191Y-102009589D02*
X113600000Y-101961970D01*
X113600000Y-101961970D02*
X113647619Y-101938161D01*
X113647619Y-101938161D02*
X113766667Y-101938161D01*
X113766667Y-101938161D02*
X113814286Y-101914351D01*
X114266667Y-102128637D02*
X114266667Y-101628637D01*
X114266667Y-102104828D02*
X114219048Y-102128637D01*
X114219048Y-102128637D02*
X114123810Y-102128637D01*
X114123810Y-102128637D02*
X114076191Y-102104828D01*
X114076191Y-102104828D02*
X114052381Y-102081018D01*
X114052381Y-102081018D02*
X114028572Y-102033399D01*
X114028572Y-102033399D02*
X114028572Y-101890542D01*
X114028572Y-101890542D02*
X114052381Y-101842923D01*
X114052381Y-101842923D02*
X114076191Y-101819113D01*
X114076191Y-101819113D02*
X114123810Y-101795304D01*
X114123810Y-101795304D02*
X114219048Y-101795304D01*
X114219048Y-101795304D02*
X114266667Y-101819113D01*
X114695238Y-102104828D02*
X114647619Y-102128637D01*
X114647619Y-102128637D02*
X114552381Y-102128637D01*
X114552381Y-102128637D02*
X114504762Y-102104828D01*
X114504762Y-102104828D02*
X114480953Y-102057208D01*
X114480953Y-102057208D02*
X114480953Y-101866732D01*
X114480953Y-101866732D02*
X114504762Y-101819113D01*
X114504762Y-101819113D02*
X114552381Y-101795304D01*
X114552381Y-101795304D02*
X114647619Y-101795304D01*
X114647619Y-101795304D02*
X114695238Y-101819113D01*
X114695238Y-101819113D02*
X114719048Y-101866732D01*
X114719048Y-101866732D02*
X114719048Y-101914351D01*
X114719048Y-101914351D02*
X114480953Y-101961970D01*
X114933333Y-102128637D02*
X114933333Y-101795304D01*
X114933333Y-101890542D02*
X114957143Y-101842923D01*
X114957143Y-101842923D02*
X114980952Y-101819113D01*
X114980952Y-101819113D02*
X115028571Y-101795304D01*
X115028571Y-101795304D02*
X115076190Y-101795304D01*
X115552381Y-101628637D02*
X115719047Y-102128637D01*
X115719047Y-102128637D02*
X115885714Y-101628637D01*
X116147618Y-101628637D02*
X116195237Y-101628637D01*
X116195237Y-101628637D02*
X116242856Y-101652447D01*
X116242856Y-101652447D02*
X116266666Y-101676256D01*
X116266666Y-101676256D02*
X116290475Y-101723875D01*
X116290475Y-101723875D02*
X116314285Y-101819113D01*
X116314285Y-101819113D02*
X116314285Y-101938161D01*
X116314285Y-101938161D02*
X116290475Y-102033399D01*
X116290475Y-102033399D02*
X116266666Y-102081018D01*
X116266666Y-102081018D02*
X116242856Y-102104828D01*
X116242856Y-102104828D02*
X116195237Y-102128637D01*
X116195237Y-102128637D02*
X116147618Y-102128637D01*
X116147618Y-102128637D02*
X116099999Y-102104828D01*
X116099999Y-102104828D02*
X116076190Y-102081018D01*
X116076190Y-102081018D02*
X116052380Y-102033399D01*
X116052380Y-102033399D02*
X116028571Y-101938161D01*
X116028571Y-101938161D02*
X116028571Y-101819113D01*
X116028571Y-101819113D02*
X116052380Y-101723875D01*
X116052380Y-101723875D02*
X116076190Y-101676256D01*
X116076190Y-101676256D02*
X116099999Y-101652447D01*
X116099999Y-101652447D02*
X116147618Y-101628637D01*
X109183334Y-102933609D02*
X108945239Y-102933609D01*
X108945239Y-102933609D02*
X108945239Y-102433609D01*
X109350001Y-102933609D02*
X109350001Y-102600276D01*
X109350001Y-102433609D02*
X109326192Y-102457419D01*
X109326192Y-102457419D02*
X109350001Y-102481228D01*
X109350001Y-102481228D02*
X109373811Y-102457419D01*
X109373811Y-102457419D02*
X109350001Y-102433609D01*
X109350001Y-102433609D02*
X109350001Y-102481228D01*
X109564287Y-102909800D02*
X109611906Y-102933609D01*
X109611906Y-102933609D02*
X109707144Y-102933609D01*
X109707144Y-102933609D02*
X109754763Y-102909800D01*
X109754763Y-102909800D02*
X109778572Y-102862180D01*
X109778572Y-102862180D02*
X109778572Y-102838371D01*
X109778572Y-102838371D02*
X109754763Y-102790752D01*
X109754763Y-102790752D02*
X109707144Y-102766942D01*
X109707144Y-102766942D02*
X109635715Y-102766942D01*
X109635715Y-102766942D02*
X109588096Y-102743133D01*
X109588096Y-102743133D02*
X109564287Y-102695514D01*
X109564287Y-102695514D02*
X109564287Y-102671704D01*
X109564287Y-102671704D02*
X109588096Y-102624085D01*
X109588096Y-102624085D02*
X109635715Y-102600276D01*
X109635715Y-102600276D02*
X109707144Y-102600276D01*
X109707144Y-102600276D02*
X109754763Y-102624085D01*
X110207144Y-102933609D02*
X110207144Y-102671704D01*
X110207144Y-102671704D02*
X110183334Y-102624085D01*
X110183334Y-102624085D02*
X110135715Y-102600276D01*
X110135715Y-102600276D02*
X110040477Y-102600276D01*
X110040477Y-102600276D02*
X109992858Y-102624085D01*
X110207144Y-102909800D02*
X110159525Y-102933609D01*
X110159525Y-102933609D02*
X110040477Y-102933609D01*
X110040477Y-102933609D02*
X109992858Y-102909800D01*
X109992858Y-102909800D02*
X109969049Y-102862180D01*
X109969049Y-102862180D02*
X109969049Y-102814561D01*
X109969049Y-102814561D02*
X109992858Y-102766942D01*
X109992858Y-102766942D02*
X110040477Y-102743133D01*
X110040477Y-102743133D02*
X110159525Y-102743133D01*
X110159525Y-102743133D02*
X110207144Y-102719323D01*
X110802382Y-102909800D02*
X110873810Y-102933609D01*
X110873810Y-102933609D02*
X110992858Y-102933609D01*
X110992858Y-102933609D02*
X111040477Y-102909800D01*
X111040477Y-102909800D02*
X111064286Y-102885990D01*
X111064286Y-102885990D02*
X111088096Y-102838371D01*
X111088096Y-102838371D02*
X111088096Y-102790752D01*
X111088096Y-102790752D02*
X111064286Y-102743133D01*
X111064286Y-102743133D02*
X111040477Y-102719323D01*
X111040477Y-102719323D02*
X110992858Y-102695514D01*
X110992858Y-102695514D02*
X110897620Y-102671704D01*
X110897620Y-102671704D02*
X110850001Y-102647895D01*
X110850001Y-102647895D02*
X110826191Y-102624085D01*
X110826191Y-102624085D02*
X110802382Y-102576466D01*
X110802382Y-102576466D02*
X110802382Y-102528847D01*
X110802382Y-102528847D02*
X110826191Y-102481228D01*
X110826191Y-102481228D02*
X110850001Y-102457419D01*
X110850001Y-102457419D02*
X110897620Y-102433609D01*
X110897620Y-102433609D02*
X111016667Y-102433609D01*
X111016667Y-102433609D02*
X111088096Y-102457419D01*
X111516667Y-102909800D02*
X111469048Y-102933609D01*
X111469048Y-102933609D02*
X111373810Y-102933609D01*
X111373810Y-102933609D02*
X111326191Y-102909800D01*
X111326191Y-102909800D02*
X111302381Y-102885990D01*
X111302381Y-102885990D02*
X111278572Y-102838371D01*
X111278572Y-102838371D02*
X111278572Y-102695514D01*
X111278572Y-102695514D02*
X111302381Y-102647895D01*
X111302381Y-102647895D02*
X111326191Y-102624085D01*
X111326191Y-102624085D02*
X111373810Y-102600276D01*
X111373810Y-102600276D02*
X111469048Y-102600276D01*
X111469048Y-102600276D02*
X111516667Y-102624085D01*
X111730952Y-102933609D02*
X111730952Y-102433609D01*
X111945238Y-102933609D02*
X111945238Y-102671704D01*
X111945238Y-102671704D02*
X111921428Y-102624085D01*
X111921428Y-102624085D02*
X111873809Y-102600276D01*
X111873809Y-102600276D02*
X111802381Y-102600276D01*
X111802381Y-102600276D02*
X111754762Y-102624085D01*
X111754762Y-102624085D02*
X111730952Y-102647895D01*
X112183333Y-102600276D02*
X112183333Y-102933609D01*
X112183333Y-102647895D02*
X112207143Y-102624085D01*
X112207143Y-102624085D02*
X112254762Y-102600276D01*
X112254762Y-102600276D02*
X112326190Y-102600276D01*
X112326190Y-102600276D02*
X112373809Y-102624085D01*
X112373809Y-102624085D02*
X112397619Y-102671704D01*
X112397619Y-102671704D02*
X112397619Y-102933609D01*
X112826190Y-102909800D02*
X112778571Y-102933609D01*
X112778571Y-102933609D02*
X112683333Y-102933609D01*
X112683333Y-102933609D02*
X112635714Y-102909800D01*
X112635714Y-102909800D02*
X112611905Y-102862180D01*
X112611905Y-102862180D02*
X112611905Y-102671704D01*
X112611905Y-102671704D02*
X112635714Y-102624085D01*
X112635714Y-102624085D02*
X112683333Y-102600276D01*
X112683333Y-102600276D02*
X112778571Y-102600276D01*
X112778571Y-102600276D02*
X112826190Y-102624085D01*
X112826190Y-102624085D02*
X112850000Y-102671704D01*
X112850000Y-102671704D02*
X112850000Y-102719323D01*
X112850000Y-102719323D02*
X112611905Y-102766942D01*
X113064285Y-102933609D02*
X113064285Y-102600276D01*
X113064285Y-102433609D02*
X113040476Y-102457419D01*
X113040476Y-102457419D02*
X113064285Y-102481228D01*
X113064285Y-102481228D02*
X113088095Y-102457419D01*
X113088095Y-102457419D02*
X113064285Y-102433609D01*
X113064285Y-102433609D02*
X113064285Y-102481228D01*
X113516666Y-102933609D02*
X113516666Y-102433609D01*
X113516666Y-102909800D02*
X113469047Y-102933609D01*
X113469047Y-102933609D02*
X113373809Y-102933609D01*
X113373809Y-102933609D02*
X113326190Y-102909800D01*
X113326190Y-102909800D02*
X113302380Y-102885990D01*
X113302380Y-102885990D02*
X113278571Y-102838371D01*
X113278571Y-102838371D02*
X113278571Y-102695514D01*
X113278571Y-102695514D02*
X113302380Y-102647895D01*
X113302380Y-102647895D02*
X113326190Y-102624085D01*
X113326190Y-102624085D02*
X113373809Y-102600276D01*
X113373809Y-102600276D02*
X113469047Y-102600276D01*
X113469047Y-102600276D02*
X113516666Y-102624085D01*
X113945237Y-102909800D02*
X113897618Y-102933609D01*
X113897618Y-102933609D02*
X113802380Y-102933609D01*
X113802380Y-102933609D02*
X113754761Y-102909800D01*
X113754761Y-102909800D02*
X113730952Y-102862180D01*
X113730952Y-102862180D02*
X113730952Y-102671704D01*
X113730952Y-102671704D02*
X113754761Y-102624085D01*
X113754761Y-102624085D02*
X113802380Y-102600276D01*
X113802380Y-102600276D02*
X113897618Y-102600276D01*
X113897618Y-102600276D02*
X113945237Y-102624085D01*
X113945237Y-102624085D02*
X113969047Y-102671704D01*
X113969047Y-102671704D02*
X113969047Y-102719323D01*
X113969047Y-102719323D02*
X113730952Y-102766942D01*
X114183332Y-102933609D02*
X114183332Y-102600276D01*
X114183332Y-102695514D02*
X114207142Y-102647895D01*
X114207142Y-102647895D02*
X114230951Y-102624085D01*
X114230951Y-102624085D02*
X114278570Y-102600276D01*
X114278570Y-102600276D02*
X114326189Y-102600276D01*
D11*
X110204819Y-79733333D02*
X110919104Y-79733333D01*
X110919104Y-79733333D02*
X111061961Y-79780952D01*
X111061961Y-79780952D02*
X111157200Y-79876190D01*
X111157200Y-79876190D02*
X111204819Y-80019047D01*
X111204819Y-80019047D02*
X111204819Y-80114285D01*
X111204819Y-79209523D02*
X111204819Y-79019047D01*
X111204819Y-79019047D02*
X111157200Y-78923809D01*
X111157200Y-78923809D02*
X111109580Y-78876190D01*
X111109580Y-78876190D02*
X110966723Y-78780952D01*
X110966723Y-78780952D02*
X110776247Y-78733333D01*
X110776247Y-78733333D02*
X110395295Y-78733333D01*
X110395295Y-78733333D02*
X110300057Y-78780952D01*
X110300057Y-78780952D02*
X110252438Y-78828571D01*
X110252438Y-78828571D02*
X110204819Y-78923809D01*
X110204819Y-78923809D02*
X110204819Y-79114285D01*
X110204819Y-79114285D02*
X110252438Y-79209523D01*
X110252438Y-79209523D02*
X110300057Y-79257142D01*
X110300057Y-79257142D02*
X110395295Y-79304761D01*
X110395295Y-79304761D02*
X110633390Y-79304761D01*
X110633390Y-79304761D02*
X110728628Y-79257142D01*
X110728628Y-79257142D02*
X110776247Y-79209523D01*
X110776247Y-79209523D02*
X110823866Y-79114285D01*
X110823866Y-79114285D02*
X110823866Y-78923809D01*
X110823866Y-78923809D02*
X110776247Y-78828571D01*
X110776247Y-78828571D02*
X110728628Y-78780952D01*
X110728628Y-78780952D02*
X110633390Y-78733333D01*
X115188095Y-62504819D02*
X115188095Y-63314342D01*
X115188095Y-63314342D02*
X115235714Y-63409580D01*
X115235714Y-63409580D02*
X115283333Y-63457200D01*
X115283333Y-63457200D02*
X115378571Y-63504819D01*
X115378571Y-63504819D02*
X115569047Y-63504819D01*
X115569047Y-63504819D02*
X115664285Y-63457200D01*
X115664285Y-63457200D02*
X115711904Y-63409580D01*
X115711904Y-63409580D02*
X115759523Y-63314342D01*
X115759523Y-63314342D02*
X115759523Y-62504819D01*
X116140476Y-62504819D02*
X116759523Y-62504819D01*
X116759523Y-62504819D02*
X116426190Y-62885771D01*
X116426190Y-62885771D02*
X116569047Y-62885771D01*
X116569047Y-62885771D02*
X116664285Y-62933390D01*
X116664285Y-62933390D02*
X116711904Y-62981009D01*
X116711904Y-62981009D02*
X116759523Y-63076247D01*
X116759523Y-63076247D02*
X116759523Y-63314342D01*
X116759523Y-63314342D02*
X116711904Y-63409580D01*
X116711904Y-63409580D02*
X116664285Y-63457200D01*
X116664285Y-63457200D02*
X116569047Y-63504819D01*
X116569047Y-63504819D02*
X116283333Y-63504819D01*
X116283333Y-63504819D02*
X116188095Y-63457200D01*
X116188095Y-63457200D02*
X116140476Y-63409580D01*
X121704819Y-88309523D02*
X122419104Y-88309523D01*
X122419104Y-88309523D02*
X122561961Y-88357142D01*
X122561961Y-88357142D02*
X122657200Y-88452380D01*
X122657200Y-88452380D02*
X122704819Y-88595237D01*
X122704819Y-88595237D02*
X122704819Y-88690475D01*
X122704819Y-87309523D02*
X122704819Y-87880951D01*
X122704819Y-87595237D02*
X121704819Y-87595237D01*
X121704819Y-87595237D02*
X121847676Y-87690475D01*
X121847676Y-87690475D02*
X121942914Y-87785713D01*
X121942914Y-87785713D02*
X121990533Y-87880951D01*
X121800057Y-86928570D02*
X121752438Y-86880951D01*
X121752438Y-86880951D02*
X121704819Y-86785713D01*
X121704819Y-86785713D02*
X121704819Y-86547618D01*
X121704819Y-86547618D02*
X121752438Y-86452380D01*
X121752438Y-86452380D02*
X121800057Y-86404761D01*
X121800057Y-86404761D02*
X121895295Y-86357142D01*
X121895295Y-86357142D02*
X121990533Y-86357142D01*
X121990533Y-86357142D02*
X122133390Y-86404761D01*
X122133390Y-86404761D02*
X122704819Y-86976189D01*
X122704819Y-86976189D02*
X122704819Y-86357142D01*
X106666667Y-47107200D02*
X106809524Y-47154819D01*
X106809524Y-47154819D02*
X107047619Y-47154819D01*
X107047619Y-47154819D02*
X107142857Y-47107200D01*
X107142857Y-47107200D02*
X107190476Y-47059580D01*
X107190476Y-47059580D02*
X107238095Y-46964342D01*
X107238095Y-46964342D02*
X107238095Y-46869104D01*
X107238095Y-46869104D02*
X107190476Y-46773866D01*
X107190476Y-46773866D02*
X107142857Y-46726247D01*
X107142857Y-46726247D02*
X107047619Y-46678628D01*
X107047619Y-46678628D02*
X106857143Y-46631009D01*
X106857143Y-46631009D02*
X106761905Y-46583390D01*
X106761905Y-46583390D02*
X106714286Y-46535771D01*
X106714286Y-46535771D02*
X106666667Y-46440533D01*
X106666667Y-46440533D02*
X106666667Y-46345295D01*
X106666667Y-46345295D02*
X106714286Y-46250057D01*
X106714286Y-46250057D02*
X106761905Y-46202438D01*
X106761905Y-46202438D02*
X106857143Y-46154819D01*
X106857143Y-46154819D02*
X107095238Y-46154819D01*
X107095238Y-46154819D02*
X107238095Y-46202438D01*
X107571429Y-46154819D02*
X107809524Y-47154819D01*
X107809524Y-47154819D02*
X108000000Y-46440533D01*
X108000000Y-46440533D02*
X108190476Y-47154819D01*
X108190476Y-47154819D02*
X108428572Y-46154819D01*
X109333333Y-47154819D02*
X108761905Y-47154819D01*
X109047619Y-47154819D02*
X109047619Y-46154819D01*
X109047619Y-46154819D02*
X108952381Y-46297676D01*
X108952381Y-46297676D02*
X108857143Y-46392914D01*
X108857143Y-46392914D02*
X108761905Y-46440533D01*
X118132142Y-54904819D02*
X117798809Y-54428628D01*
X117560714Y-54904819D02*
X117560714Y-53904819D01*
X117560714Y-53904819D02*
X117941666Y-53904819D01*
X117941666Y-53904819D02*
X118036904Y-53952438D01*
X118036904Y-53952438D02*
X118084523Y-54000057D01*
X118084523Y-54000057D02*
X118132142Y-54095295D01*
X118132142Y-54095295D02*
X118132142Y-54238152D01*
X118132142Y-54238152D02*
X118084523Y-54333390D01*
X118084523Y-54333390D02*
X118036904Y-54381009D01*
X118036904Y-54381009D02*
X117941666Y-54428628D01*
X117941666Y-54428628D02*
X117560714Y-54428628D01*
X119084523Y-54904819D02*
X118513095Y-54904819D01*
X118798809Y-54904819D02*
X118798809Y-53904819D01*
X118798809Y-53904819D02*
X118703571Y-54047676D01*
X118703571Y-54047676D02*
X118608333Y-54142914D01*
X118608333Y-54142914D02*
X118513095Y-54190533D01*
X120036904Y-54904819D02*
X119465476Y-54904819D01*
X119751190Y-54904819D02*
X119751190Y-53904819D01*
X119751190Y-53904819D02*
X119655952Y-54047676D01*
X119655952Y-54047676D02*
X119560714Y-54142914D01*
X119560714Y-54142914D02*
X119465476Y-54190533D01*
X120683152Y-102846094D02*
X119683152Y-102846094D01*
X119683152Y-102846094D02*
X119683152Y-102607999D01*
X119683152Y-102607999D02*
X119730771Y-102465142D01*
X119730771Y-102465142D02*
X119826009Y-102369904D01*
X119826009Y-102369904D02*
X119921247Y-102322285D01*
X119921247Y-102322285D02*
X120111723Y-102274666D01*
X120111723Y-102274666D02*
X120254580Y-102274666D01*
X120254580Y-102274666D02*
X120445056Y-102322285D01*
X120445056Y-102322285D02*
X120540294Y-102369904D01*
X120540294Y-102369904D02*
X120635533Y-102465142D01*
X120635533Y-102465142D02*
X120683152Y-102607999D01*
X120683152Y-102607999D02*
X120683152Y-102846094D01*
X119683152Y-101369904D02*
X119683152Y-101846094D01*
X119683152Y-101846094D02*
X120159342Y-101893713D01*
X120159342Y-101893713D02*
X120111723Y-101846094D01*
X120111723Y-101846094D02*
X120064104Y-101750856D01*
X120064104Y-101750856D02*
X120064104Y-101512761D01*
X120064104Y-101512761D02*
X120111723Y-101417523D01*
X120111723Y-101417523D02*
X120159342Y-101369904D01*
X120159342Y-101369904D02*
X120254580Y-101322285D01*
X120254580Y-101322285D02*
X120492675Y-101322285D01*
X120492675Y-101322285D02*
X120587913Y-101369904D01*
X120587913Y-101369904D02*
X120635533Y-101417523D01*
X120635533Y-101417523D02*
X120683152Y-101512761D01*
X120683152Y-101512761D02*
X120683152Y-101750856D01*
X120683152Y-101750856D02*
X120635533Y-101846094D01*
X120635533Y-101846094D02*
X120587913Y-101893713D01*
X110004819Y-90409523D02*
X110719104Y-90409523D01*
X110719104Y-90409523D02*
X110861961Y-90457142D01*
X110861961Y-90457142D02*
X110957200Y-90552380D01*
X110957200Y-90552380D02*
X111004819Y-90695237D01*
X111004819Y-90695237D02*
X111004819Y-90790475D01*
X111004819Y-89409523D02*
X111004819Y-89980951D01*
X111004819Y-89695237D02*
X110004819Y-89695237D01*
X110004819Y-89695237D02*
X110147676Y-89790475D01*
X110147676Y-89790475D02*
X110242914Y-89885713D01*
X110242914Y-89885713D02*
X110290533Y-89980951D01*
X110004819Y-88790475D02*
X110004819Y-88695237D01*
X110004819Y-88695237D02*
X110052438Y-88599999D01*
X110052438Y-88599999D02*
X110100057Y-88552380D01*
X110100057Y-88552380D02*
X110195295Y-88504761D01*
X110195295Y-88504761D02*
X110385771Y-88457142D01*
X110385771Y-88457142D02*
X110623866Y-88457142D01*
X110623866Y-88457142D02*
X110814342Y-88504761D01*
X110814342Y-88504761D02*
X110909580Y-88552380D01*
X110909580Y-88552380D02*
X110957200Y-88599999D01*
X110957200Y-88599999D02*
X111004819Y-88695237D01*
X111004819Y-88695237D02*
X111004819Y-88790475D01*
X111004819Y-88790475D02*
X110957200Y-88885713D01*
X110957200Y-88885713D02*
X110909580Y-88933332D01*
X110909580Y-88933332D02*
X110814342Y-88980951D01*
X110814342Y-88980951D02*
X110623866Y-89028570D01*
X110623866Y-89028570D02*
X110385771Y-89028570D01*
X110385771Y-89028570D02*
X110195295Y-88980951D01*
X110195295Y-88980951D02*
X110100057Y-88933332D01*
X110100057Y-88933332D02*
X110052438Y-88885713D01*
X110052438Y-88885713D02*
X110004819Y-88790475D01*
X125854819Y-98966666D02*
X125378628Y-99299999D01*
X125854819Y-99538094D02*
X124854819Y-99538094D01*
X124854819Y-99538094D02*
X124854819Y-99157142D01*
X124854819Y-99157142D02*
X124902438Y-99061904D01*
X124902438Y-99061904D02*
X124950057Y-99014285D01*
X124950057Y-99014285D02*
X125045295Y-98966666D01*
X125045295Y-98966666D02*
X125188152Y-98966666D01*
X125188152Y-98966666D02*
X125283390Y-99014285D01*
X125283390Y-99014285D02*
X125331009Y-99061904D01*
X125331009Y-99061904D02*
X125378628Y-99157142D01*
X125378628Y-99157142D02*
X125378628Y-99538094D01*
X125188152Y-98109523D02*
X125854819Y-98109523D01*
X124807200Y-98347618D02*
X125521485Y-98585713D01*
X125521485Y-98585713D02*
X125521485Y-97966666D01*
X110831333Y-62335580D02*
X110783714Y-62383200D01*
X110783714Y-62383200D02*
X110640857Y-62430819D01*
X110640857Y-62430819D02*
X110545619Y-62430819D01*
X110545619Y-62430819D02*
X110402762Y-62383200D01*
X110402762Y-62383200D02*
X110307524Y-62287961D01*
X110307524Y-62287961D02*
X110259905Y-62192723D01*
X110259905Y-62192723D02*
X110212286Y-62002247D01*
X110212286Y-62002247D02*
X110212286Y-61859390D01*
X110212286Y-61859390D02*
X110259905Y-61668914D01*
X110259905Y-61668914D02*
X110307524Y-61573676D01*
X110307524Y-61573676D02*
X110402762Y-61478438D01*
X110402762Y-61478438D02*
X110545619Y-61430819D01*
X110545619Y-61430819D02*
X110640857Y-61430819D01*
X110640857Y-61430819D02*
X110783714Y-61478438D01*
X110783714Y-61478438D02*
X110831333Y-61526057D01*
X111164667Y-61430819D02*
X111783714Y-61430819D01*
X111783714Y-61430819D02*
X111450381Y-61811771D01*
X111450381Y-61811771D02*
X111593238Y-61811771D01*
X111593238Y-61811771D02*
X111688476Y-61859390D01*
X111688476Y-61859390D02*
X111736095Y-61907009D01*
X111736095Y-61907009D02*
X111783714Y-62002247D01*
X111783714Y-62002247D02*
X111783714Y-62240342D01*
X111783714Y-62240342D02*
X111736095Y-62335580D01*
X111736095Y-62335580D02*
X111688476Y-62383200D01*
X111688476Y-62383200D02*
X111593238Y-62430819D01*
X111593238Y-62430819D02*
X111307524Y-62430819D01*
X111307524Y-62430819D02*
X111212286Y-62383200D01*
X111212286Y-62383200D02*
X111164667Y-62335580D01*
X118054819Y-98966666D02*
X117578628Y-99299999D01*
X118054819Y-99538094D02*
X117054819Y-99538094D01*
X117054819Y-99538094D02*
X117054819Y-99157142D01*
X117054819Y-99157142D02*
X117102438Y-99061904D01*
X117102438Y-99061904D02*
X117150057Y-99014285D01*
X117150057Y-99014285D02*
X117245295Y-98966666D01*
X117245295Y-98966666D02*
X117388152Y-98966666D01*
X117388152Y-98966666D02*
X117483390Y-99014285D01*
X117483390Y-99014285D02*
X117531009Y-99061904D01*
X117531009Y-99061904D02*
X117578628Y-99157142D01*
X117578628Y-99157142D02*
X117578628Y-99538094D01*
X117054819Y-98109523D02*
X117054819Y-98299999D01*
X117054819Y-98299999D02*
X117102438Y-98395237D01*
X117102438Y-98395237D02*
X117150057Y-98442856D01*
X117150057Y-98442856D02*
X117292914Y-98538094D01*
X117292914Y-98538094D02*
X117483390Y-98585713D01*
X117483390Y-98585713D02*
X117864342Y-98585713D01*
X117864342Y-98585713D02*
X117959580Y-98538094D01*
X117959580Y-98538094D02*
X118007200Y-98490475D01*
X118007200Y-98490475D02*
X118054819Y-98395237D01*
X118054819Y-98395237D02*
X118054819Y-98204761D01*
X118054819Y-98204761D02*
X118007200Y-98109523D01*
X118007200Y-98109523D02*
X117959580Y-98061904D01*
X117959580Y-98061904D02*
X117864342Y-98014285D01*
X117864342Y-98014285D02*
X117626247Y-98014285D01*
X117626247Y-98014285D02*
X117531009Y-98061904D01*
X117531009Y-98061904D02*
X117483390Y-98109523D01*
X117483390Y-98109523D02*
X117435771Y-98204761D01*
X117435771Y-98204761D02*
X117435771Y-98395237D01*
X117435771Y-98395237D02*
X117483390Y-98490475D01*
X117483390Y-98490475D02*
X117531009Y-98538094D01*
X117531009Y-98538094D02*
X117626247Y-98585713D01*
X125883152Y-102846094D02*
X124883152Y-102846094D01*
X124883152Y-102846094D02*
X124883152Y-102607999D01*
X124883152Y-102607999D02*
X124930771Y-102465142D01*
X124930771Y-102465142D02*
X125026009Y-102369904D01*
X125026009Y-102369904D02*
X125121247Y-102322285D01*
X125121247Y-102322285D02*
X125311723Y-102274666D01*
X125311723Y-102274666D02*
X125454580Y-102274666D01*
X125454580Y-102274666D02*
X125645056Y-102322285D01*
X125645056Y-102322285D02*
X125740294Y-102369904D01*
X125740294Y-102369904D02*
X125835533Y-102465142D01*
X125835533Y-102465142D02*
X125883152Y-102607999D01*
X125883152Y-102607999D02*
X125883152Y-102846094D01*
X125216485Y-101417523D02*
X125883152Y-101417523D01*
X124835533Y-101655618D02*
X125549818Y-101893713D01*
X125549818Y-101893713D02*
X125549818Y-101274666D01*
X118959333Y-62684819D02*
X118626000Y-62208628D01*
X118387905Y-62684819D02*
X118387905Y-61684819D01*
X118387905Y-61684819D02*
X118768857Y-61684819D01*
X118768857Y-61684819D02*
X118864095Y-61732438D01*
X118864095Y-61732438D02*
X118911714Y-61780057D01*
X118911714Y-61780057D02*
X118959333Y-61875295D01*
X118959333Y-61875295D02*
X118959333Y-62018152D01*
X118959333Y-62018152D02*
X118911714Y-62113390D01*
X118911714Y-62113390D02*
X118864095Y-62161009D01*
X118864095Y-62161009D02*
X118768857Y-62208628D01*
X118768857Y-62208628D02*
X118387905Y-62208628D01*
X119435524Y-62684819D02*
X119626000Y-62684819D01*
X119626000Y-62684819D02*
X119721238Y-62637200D01*
X119721238Y-62637200D02*
X119768857Y-62589580D01*
X119768857Y-62589580D02*
X119864095Y-62446723D01*
X119864095Y-62446723D02*
X119911714Y-62256247D01*
X119911714Y-62256247D02*
X119911714Y-61875295D01*
X119911714Y-61875295D02*
X119864095Y-61780057D01*
X119864095Y-61780057D02*
X119816476Y-61732438D01*
X119816476Y-61732438D02*
X119721238Y-61684819D01*
X119721238Y-61684819D02*
X119530762Y-61684819D01*
X119530762Y-61684819D02*
X119435524Y-61732438D01*
X119435524Y-61732438D02*
X119387905Y-61780057D01*
X119387905Y-61780057D02*
X119340286Y-61875295D01*
X119340286Y-61875295D02*
X119340286Y-62113390D01*
X119340286Y-62113390D02*
X119387905Y-62208628D01*
X119387905Y-62208628D02*
X119435524Y-62256247D01*
X119435524Y-62256247D02*
X119530762Y-62303866D01*
X119530762Y-62303866D02*
X119721238Y-62303866D01*
X119721238Y-62303866D02*
X119816476Y-62256247D01*
X119816476Y-62256247D02*
X119864095Y-62208628D01*
X119864095Y-62208628D02*
X119911714Y-62113390D01*
X121607142Y-52004819D02*
X121273809Y-51528628D01*
X121035714Y-52004819D02*
X121035714Y-51004819D01*
X121035714Y-51004819D02*
X121416666Y-51004819D01*
X121416666Y-51004819D02*
X121511904Y-51052438D01*
X121511904Y-51052438D02*
X121559523Y-51100057D01*
X121559523Y-51100057D02*
X121607142Y-51195295D01*
X121607142Y-51195295D02*
X121607142Y-51338152D01*
X121607142Y-51338152D02*
X121559523Y-51433390D01*
X121559523Y-51433390D02*
X121511904Y-51481009D01*
X121511904Y-51481009D02*
X121416666Y-51528628D01*
X121416666Y-51528628D02*
X121035714Y-51528628D01*
X122559523Y-52004819D02*
X121988095Y-52004819D01*
X122273809Y-52004819D02*
X122273809Y-51004819D01*
X122273809Y-51004819D02*
X122178571Y-51147676D01*
X122178571Y-51147676D02*
X122083333Y-51242914D01*
X122083333Y-51242914D02*
X121988095Y-51290533D01*
X122940476Y-51100057D02*
X122988095Y-51052438D01*
X122988095Y-51052438D02*
X123083333Y-51004819D01*
X123083333Y-51004819D02*
X123321428Y-51004819D01*
X123321428Y-51004819D02*
X123416666Y-51052438D01*
X123416666Y-51052438D02*
X123464285Y-51100057D01*
X123464285Y-51100057D02*
X123511904Y-51195295D01*
X123511904Y-51195295D02*
X123511904Y-51290533D01*
X123511904Y-51290533D02*
X123464285Y-51433390D01*
X123464285Y-51433390D02*
X122892857Y-52004819D01*
X122892857Y-52004819D02*
X123511904Y-52004819D01*
X115359580Y-81966666D02*
X115407200Y-82014285D01*
X115407200Y-82014285D02*
X115454819Y-82157142D01*
X115454819Y-82157142D02*
X115454819Y-82252380D01*
X115454819Y-82252380D02*
X115407200Y-82395237D01*
X115407200Y-82395237D02*
X115311961Y-82490475D01*
X115311961Y-82490475D02*
X115216723Y-82538094D01*
X115216723Y-82538094D02*
X115026247Y-82585713D01*
X115026247Y-82585713D02*
X114883390Y-82585713D01*
X114883390Y-82585713D02*
X114692914Y-82538094D01*
X114692914Y-82538094D02*
X114597676Y-82490475D01*
X114597676Y-82490475D02*
X114502438Y-82395237D01*
X114502438Y-82395237D02*
X114454819Y-82252380D01*
X114454819Y-82252380D02*
X114454819Y-82157142D01*
X114454819Y-82157142D02*
X114502438Y-82014285D01*
X114502438Y-82014285D02*
X114550057Y-81966666D01*
X114550057Y-81585713D02*
X114502438Y-81538094D01*
X114502438Y-81538094D02*
X114454819Y-81442856D01*
X114454819Y-81442856D02*
X114454819Y-81204761D01*
X114454819Y-81204761D02*
X114502438Y-81109523D01*
X114502438Y-81109523D02*
X114550057Y-81061904D01*
X114550057Y-81061904D02*
X114645295Y-81014285D01*
X114645295Y-81014285D02*
X114740533Y-81014285D01*
X114740533Y-81014285D02*
X114883390Y-81061904D01*
X114883390Y-81061904D02*
X115454819Y-81633332D01*
X115454819Y-81633332D02*
X115454819Y-81014285D01*
X115509580Y-79716666D02*
X115557200Y-79764285D01*
X115557200Y-79764285D02*
X115604819Y-79907142D01*
X115604819Y-79907142D02*
X115604819Y-80002380D01*
X115604819Y-80002380D02*
X115557200Y-80145237D01*
X115557200Y-80145237D02*
X115461961Y-80240475D01*
X115461961Y-80240475D02*
X115366723Y-80288094D01*
X115366723Y-80288094D02*
X115176247Y-80335713D01*
X115176247Y-80335713D02*
X115033390Y-80335713D01*
X115033390Y-80335713D02*
X114842914Y-80288094D01*
X114842914Y-80288094D02*
X114747676Y-80240475D01*
X114747676Y-80240475D02*
X114652438Y-80145237D01*
X114652438Y-80145237D02*
X114604819Y-80002380D01*
X114604819Y-80002380D02*
X114604819Y-79907142D01*
X114604819Y-79907142D02*
X114652438Y-79764285D01*
X114652438Y-79764285D02*
X114700057Y-79716666D01*
X115604819Y-78764285D02*
X115604819Y-79335713D01*
X115604819Y-79049999D02*
X114604819Y-79049999D01*
X114604819Y-79049999D02*
X114747676Y-79145237D01*
X114747676Y-79145237D02*
X114842914Y-79240475D01*
X114842914Y-79240475D02*
X114890533Y-79335713D01*
X125416666Y-50704819D02*
X125416666Y-51419104D01*
X125416666Y-51419104D02*
X125369047Y-51561961D01*
X125369047Y-51561961D02*
X125273809Y-51657200D01*
X125273809Y-51657200D02*
X125130952Y-51704819D01*
X125130952Y-51704819D02*
X125035714Y-51704819D01*
X125845238Y-50800057D02*
X125892857Y-50752438D01*
X125892857Y-50752438D02*
X125988095Y-50704819D01*
X125988095Y-50704819D02*
X126226190Y-50704819D01*
X126226190Y-50704819D02*
X126321428Y-50752438D01*
X126321428Y-50752438D02*
X126369047Y-50800057D01*
X126369047Y-50800057D02*
X126416666Y-50895295D01*
X126416666Y-50895295D02*
X126416666Y-50990533D01*
X126416666Y-50990533D02*
X126369047Y-51133390D01*
X126369047Y-51133390D02*
X125797619Y-51704819D01*
X125797619Y-51704819D02*
X126416666Y-51704819D01*
X121904819Y-65209523D02*
X122619104Y-65209523D01*
X122619104Y-65209523D02*
X122761961Y-65257142D01*
X122761961Y-65257142D02*
X122857200Y-65352380D01*
X122857200Y-65352380D02*
X122904819Y-65495237D01*
X122904819Y-65495237D02*
X122904819Y-65590475D01*
X122904819Y-64209523D02*
X122904819Y-64780951D01*
X122904819Y-64495237D02*
X121904819Y-64495237D01*
X121904819Y-64495237D02*
X122047676Y-64590475D01*
X122047676Y-64590475D02*
X122142914Y-64685713D01*
X122142914Y-64685713D02*
X122190533Y-64780951D01*
X122904819Y-63257142D02*
X122904819Y-63828570D01*
X122904819Y-63542856D02*
X121904819Y-63542856D01*
X121904819Y-63542856D02*
X122047676Y-63638094D01*
X122047676Y-63638094D02*
X122142914Y-63733332D01*
X122142914Y-63733332D02*
X122190533Y-63828570D01*
X123504819Y-79583333D02*
X124219104Y-79583333D01*
X124219104Y-79583333D02*
X124361961Y-79630952D01*
X124361961Y-79630952D02*
X124457200Y-79726190D01*
X124457200Y-79726190D02*
X124504819Y-79869047D01*
X124504819Y-79869047D02*
X124504819Y-79964285D01*
X123933390Y-78964285D02*
X123885771Y-79059523D01*
X123885771Y-79059523D02*
X123838152Y-79107142D01*
X123838152Y-79107142D02*
X123742914Y-79154761D01*
X123742914Y-79154761D02*
X123695295Y-79154761D01*
X123695295Y-79154761D02*
X123600057Y-79107142D01*
X123600057Y-79107142D02*
X123552438Y-79059523D01*
X123552438Y-79059523D02*
X123504819Y-78964285D01*
X123504819Y-78964285D02*
X123504819Y-78773809D01*
X123504819Y-78773809D02*
X123552438Y-78678571D01*
X123552438Y-78678571D02*
X123600057Y-78630952D01*
X123600057Y-78630952D02*
X123695295Y-78583333D01*
X123695295Y-78583333D02*
X123742914Y-78583333D01*
X123742914Y-78583333D02*
X123838152Y-78630952D01*
X123838152Y-78630952D02*
X123885771Y-78678571D01*
X123885771Y-78678571D02*
X123933390Y-78773809D01*
X123933390Y-78773809D02*
X123933390Y-78964285D01*
X123933390Y-78964285D02*
X123981009Y-79059523D01*
X123981009Y-79059523D02*
X124028628Y-79107142D01*
X124028628Y-79107142D02*
X124123866Y-79154761D01*
X124123866Y-79154761D02*
X124314342Y-79154761D01*
X124314342Y-79154761D02*
X124409580Y-79107142D01*
X124409580Y-79107142D02*
X124457200Y-79059523D01*
X124457200Y-79059523D02*
X124504819Y-78964285D01*
X124504819Y-78964285D02*
X124504819Y-78773809D01*
X124504819Y-78773809D02*
X124457200Y-78678571D01*
X124457200Y-78678571D02*
X124409580Y-78630952D01*
X124409580Y-78630952D02*
X124314342Y-78583333D01*
X124314342Y-78583333D02*
X124123866Y-78583333D01*
X124123866Y-78583333D02*
X124028628Y-78630952D01*
X124028628Y-78630952D02*
X123981009Y-78678571D01*
X123981009Y-78678571D02*
X123933390Y-78773809D01*
X118013152Y-102846094D02*
X117013152Y-102846094D01*
X117013152Y-102846094D02*
X117013152Y-102607999D01*
X117013152Y-102607999D02*
X117060771Y-102465142D01*
X117060771Y-102465142D02*
X117156009Y-102369904D01*
X117156009Y-102369904D02*
X117251247Y-102322285D01*
X117251247Y-102322285D02*
X117441723Y-102274666D01*
X117441723Y-102274666D02*
X117584580Y-102274666D01*
X117584580Y-102274666D02*
X117775056Y-102322285D01*
X117775056Y-102322285D02*
X117870294Y-102369904D01*
X117870294Y-102369904D02*
X117965533Y-102465142D01*
X117965533Y-102465142D02*
X118013152Y-102607999D01*
X118013152Y-102607999D02*
X118013152Y-102846094D01*
X117013152Y-101417523D02*
X117013152Y-101607999D01*
X117013152Y-101607999D02*
X117060771Y-101703237D01*
X117060771Y-101703237D02*
X117108390Y-101750856D01*
X117108390Y-101750856D02*
X117251247Y-101846094D01*
X117251247Y-101846094D02*
X117441723Y-101893713D01*
X117441723Y-101893713D02*
X117822675Y-101893713D01*
X117822675Y-101893713D02*
X117917913Y-101846094D01*
X117917913Y-101846094D02*
X117965533Y-101798475D01*
X117965533Y-101798475D02*
X118013152Y-101703237D01*
X118013152Y-101703237D02*
X118013152Y-101512761D01*
X118013152Y-101512761D02*
X117965533Y-101417523D01*
X117965533Y-101417523D02*
X117917913Y-101369904D01*
X117917913Y-101369904D02*
X117822675Y-101322285D01*
X117822675Y-101322285D02*
X117584580Y-101322285D01*
X117584580Y-101322285D02*
X117489342Y-101369904D01*
X117489342Y-101369904D02*
X117441723Y-101417523D01*
X117441723Y-101417523D02*
X117394104Y-101512761D01*
X117394104Y-101512761D02*
X117394104Y-101703237D01*
X117394104Y-101703237D02*
X117441723Y-101798475D01*
X117441723Y-101798475D02*
X117489342Y-101846094D01*
X117489342Y-101846094D02*
X117584580Y-101893713D01*
X127816666Y-47854819D02*
X127816666Y-48569104D01*
X127816666Y-48569104D02*
X127769047Y-48711961D01*
X127769047Y-48711961D02*
X127673809Y-48807200D01*
X127673809Y-48807200D02*
X127530952Y-48854819D01*
X127530952Y-48854819D02*
X127435714Y-48854819D01*
X128721428Y-47854819D02*
X128530952Y-47854819D01*
X128530952Y-47854819D02*
X128435714Y-47902438D01*
X128435714Y-47902438D02*
X128388095Y-47950057D01*
X128388095Y-47950057D02*
X128292857Y-48092914D01*
X128292857Y-48092914D02*
X128245238Y-48283390D01*
X128245238Y-48283390D02*
X128245238Y-48664342D01*
X128245238Y-48664342D02*
X128292857Y-48759580D01*
X128292857Y-48759580D02*
X128340476Y-48807200D01*
X128340476Y-48807200D02*
X128435714Y-48854819D01*
X128435714Y-48854819D02*
X128626190Y-48854819D01*
X128626190Y-48854819D02*
X128721428Y-48807200D01*
X128721428Y-48807200D02*
X128769047Y-48759580D01*
X128769047Y-48759580D02*
X128816666Y-48664342D01*
X128816666Y-48664342D02*
X128816666Y-48426247D01*
X128816666Y-48426247D02*
X128769047Y-48331009D01*
X128769047Y-48331009D02*
X128721428Y-48283390D01*
X128721428Y-48283390D02*
X128626190Y-48235771D01*
X128626190Y-48235771D02*
X128435714Y-48235771D01*
X128435714Y-48235771D02*
X128340476Y-48283390D01*
X128340476Y-48283390D02*
X128292857Y-48331009D01*
X128292857Y-48331009D02*
X128245238Y-48426247D01*
X123283152Y-102846094D02*
X122283152Y-102846094D01*
X122283152Y-102846094D02*
X122283152Y-102607999D01*
X122283152Y-102607999D02*
X122330771Y-102465142D01*
X122330771Y-102465142D02*
X122426009Y-102369904D01*
X122426009Y-102369904D02*
X122521247Y-102322285D01*
X122521247Y-102322285D02*
X122711723Y-102274666D01*
X122711723Y-102274666D02*
X122854580Y-102274666D01*
X122854580Y-102274666D02*
X123045056Y-102322285D01*
X123045056Y-102322285D02*
X123140294Y-102369904D01*
X123140294Y-102369904D02*
X123235533Y-102465142D01*
X123235533Y-102465142D02*
X123283152Y-102607999D01*
X123283152Y-102607999D02*
X123283152Y-102846094D01*
X122283152Y-101941332D02*
X122283152Y-101274666D01*
X122283152Y-101274666D02*
X123283152Y-101703237D01*
X113288333Y-58824819D02*
X112955000Y-58348628D01*
X112716905Y-58824819D02*
X112716905Y-57824819D01*
X112716905Y-57824819D02*
X113097857Y-57824819D01*
X113097857Y-57824819D02*
X113193095Y-57872438D01*
X113193095Y-57872438D02*
X113240714Y-57920057D01*
X113240714Y-57920057D02*
X113288333Y-58015295D01*
X113288333Y-58015295D02*
X113288333Y-58158152D01*
X113288333Y-58158152D02*
X113240714Y-58253390D01*
X113240714Y-58253390D02*
X113193095Y-58301009D01*
X113193095Y-58301009D02*
X113097857Y-58348628D01*
X113097857Y-58348628D02*
X112716905Y-58348628D01*
X113621667Y-57824819D02*
X114288333Y-57824819D01*
X114288333Y-57824819D02*
X113859762Y-58824819D01*
X123254819Y-98966666D02*
X122778628Y-99299999D01*
X123254819Y-99538094D02*
X122254819Y-99538094D01*
X122254819Y-99538094D02*
X122254819Y-99157142D01*
X122254819Y-99157142D02*
X122302438Y-99061904D01*
X122302438Y-99061904D02*
X122350057Y-99014285D01*
X122350057Y-99014285D02*
X122445295Y-98966666D01*
X122445295Y-98966666D02*
X122588152Y-98966666D01*
X122588152Y-98966666D02*
X122683390Y-99014285D01*
X122683390Y-99014285D02*
X122731009Y-99061904D01*
X122731009Y-99061904D02*
X122778628Y-99157142D01*
X122778628Y-99157142D02*
X122778628Y-99538094D01*
X122683390Y-98395237D02*
X122635771Y-98490475D01*
X122635771Y-98490475D02*
X122588152Y-98538094D01*
X122588152Y-98538094D02*
X122492914Y-98585713D01*
X122492914Y-98585713D02*
X122445295Y-98585713D01*
X122445295Y-98585713D02*
X122350057Y-98538094D01*
X122350057Y-98538094D02*
X122302438Y-98490475D01*
X122302438Y-98490475D02*
X122254819Y-98395237D01*
X122254819Y-98395237D02*
X122254819Y-98204761D01*
X122254819Y-98204761D02*
X122302438Y-98109523D01*
X122302438Y-98109523D02*
X122350057Y-98061904D01*
X122350057Y-98061904D02*
X122445295Y-98014285D01*
X122445295Y-98014285D02*
X122492914Y-98014285D01*
X122492914Y-98014285D02*
X122588152Y-98061904D01*
X122588152Y-98061904D02*
X122635771Y-98109523D01*
X122635771Y-98109523D02*
X122683390Y-98204761D01*
X122683390Y-98204761D02*
X122683390Y-98395237D01*
X122683390Y-98395237D02*
X122731009Y-98490475D01*
X122731009Y-98490475D02*
X122778628Y-98538094D01*
X122778628Y-98538094D02*
X122873866Y-98585713D01*
X122873866Y-98585713D02*
X123064342Y-98585713D01*
X123064342Y-98585713D02*
X123159580Y-98538094D01*
X123159580Y-98538094D02*
X123207200Y-98490475D01*
X123207200Y-98490475D02*
X123254819Y-98395237D01*
X123254819Y-98395237D02*
X123254819Y-98204761D01*
X123254819Y-98204761D02*
X123207200Y-98109523D01*
X123207200Y-98109523D02*
X123159580Y-98061904D01*
X123159580Y-98061904D02*
X123064342Y-98014285D01*
X123064342Y-98014285D02*
X122873866Y-98014285D01*
X122873866Y-98014285D02*
X122778628Y-98061904D01*
X122778628Y-98061904D02*
X122731009Y-98109523D01*
X122731009Y-98109523D02*
X122683390Y-98204761D01*
X115604761Y-46750057D02*
X115509523Y-46702438D01*
X115509523Y-46702438D02*
X115414285Y-46607200D01*
X115414285Y-46607200D02*
X115271428Y-46464342D01*
X115271428Y-46464342D02*
X115176190Y-46416723D01*
X115176190Y-46416723D02*
X115080952Y-46416723D01*
X115128571Y-46654819D02*
X115033333Y-46607200D01*
X115033333Y-46607200D02*
X114938095Y-46511961D01*
X114938095Y-46511961D02*
X114890476Y-46321485D01*
X114890476Y-46321485D02*
X114890476Y-45988152D01*
X114890476Y-45988152D02*
X114938095Y-45797676D01*
X114938095Y-45797676D02*
X115033333Y-45702438D01*
X115033333Y-45702438D02*
X115128571Y-45654819D01*
X115128571Y-45654819D02*
X115319047Y-45654819D01*
X115319047Y-45654819D02*
X115414285Y-45702438D01*
X115414285Y-45702438D02*
X115509523Y-45797676D01*
X115509523Y-45797676D02*
X115557142Y-45988152D01*
X115557142Y-45988152D02*
X115557142Y-46321485D01*
X115557142Y-46321485D02*
X115509523Y-46511961D01*
X115509523Y-46511961D02*
X115414285Y-46607200D01*
X115414285Y-46607200D02*
X115319047Y-46654819D01*
X115319047Y-46654819D02*
X115128571Y-46654819D01*
X116509523Y-46654819D02*
X115938095Y-46654819D01*
X116223809Y-46654819D02*
X116223809Y-45654819D01*
X116223809Y-45654819D02*
X116128571Y-45797676D01*
X116128571Y-45797676D02*
X116033333Y-45892914D01*
X116033333Y-45892914D02*
X115938095Y-45940533D01*
X120754819Y-98966666D02*
X120278628Y-99299999D01*
X120754819Y-99538094D02*
X119754819Y-99538094D01*
X119754819Y-99538094D02*
X119754819Y-99157142D01*
X119754819Y-99157142D02*
X119802438Y-99061904D01*
X119802438Y-99061904D02*
X119850057Y-99014285D01*
X119850057Y-99014285D02*
X119945295Y-98966666D01*
X119945295Y-98966666D02*
X120088152Y-98966666D01*
X120088152Y-98966666D02*
X120183390Y-99014285D01*
X120183390Y-99014285D02*
X120231009Y-99061904D01*
X120231009Y-99061904D02*
X120278628Y-99157142D01*
X120278628Y-99157142D02*
X120278628Y-99538094D01*
X119754819Y-98061904D02*
X119754819Y-98538094D01*
X119754819Y-98538094D02*
X120231009Y-98585713D01*
X120231009Y-98585713D02*
X120183390Y-98538094D01*
X120183390Y-98538094D02*
X120135771Y-98442856D01*
X120135771Y-98442856D02*
X120135771Y-98204761D01*
X120135771Y-98204761D02*
X120183390Y-98109523D01*
X120183390Y-98109523D02*
X120231009Y-98061904D01*
X120231009Y-98061904D02*
X120326247Y-98014285D01*
X120326247Y-98014285D02*
X120564342Y-98014285D01*
X120564342Y-98014285D02*
X120659580Y-98061904D01*
X120659580Y-98061904D02*
X120707200Y-98109523D01*
X120707200Y-98109523D02*
X120754819Y-98204761D01*
X120754819Y-98204761D02*
X120754819Y-98442856D01*
X120754819Y-98442856D02*
X120707200Y-98538094D01*
X120707200Y-98538094D02*
X120659580Y-98585713D01*
X117666666Y-66604819D02*
X117666666Y-67319104D01*
X117666666Y-67319104D02*
X117619047Y-67461961D01*
X117619047Y-67461961D02*
X117523809Y-67557200D01*
X117523809Y-67557200D02*
X117380952Y-67604819D01*
X117380952Y-67604819D02*
X117285714Y-67604819D01*
X118047619Y-66604819D02*
X118714285Y-66604819D01*
X118714285Y-66604819D02*
X118285714Y-67604819D01*
X110807142Y-67004819D02*
X110473809Y-66528628D01*
X110235714Y-67004819D02*
X110235714Y-66004819D01*
X110235714Y-66004819D02*
X110616666Y-66004819D01*
X110616666Y-66004819D02*
X110711904Y-66052438D01*
X110711904Y-66052438D02*
X110759523Y-66100057D01*
X110759523Y-66100057D02*
X110807142Y-66195295D01*
X110807142Y-66195295D02*
X110807142Y-66338152D01*
X110807142Y-66338152D02*
X110759523Y-66433390D01*
X110759523Y-66433390D02*
X110711904Y-66481009D01*
X110711904Y-66481009D02*
X110616666Y-66528628D01*
X110616666Y-66528628D02*
X110235714Y-66528628D01*
X111759523Y-67004819D02*
X111188095Y-67004819D01*
X111473809Y-67004819D02*
X111473809Y-66004819D01*
X111473809Y-66004819D02*
X111378571Y-66147676D01*
X111378571Y-66147676D02*
X111283333Y-66242914D01*
X111283333Y-66242914D02*
X111188095Y-66290533D01*
X112378571Y-66004819D02*
X112473809Y-66004819D01*
X112473809Y-66004819D02*
X112569047Y-66052438D01*
X112569047Y-66052438D02*
X112616666Y-66100057D01*
X112616666Y-66100057D02*
X112664285Y-66195295D01*
X112664285Y-66195295D02*
X112711904Y-66385771D01*
X112711904Y-66385771D02*
X112711904Y-66623866D01*
X112711904Y-66623866D02*
X112664285Y-66814342D01*
X112664285Y-66814342D02*
X112616666Y-66909580D01*
X112616666Y-66909580D02*
X112569047Y-66957200D01*
X112569047Y-66957200D02*
X112473809Y-67004819D01*
X112473809Y-67004819D02*
X112378571Y-67004819D01*
X112378571Y-67004819D02*
X112283333Y-66957200D01*
X112283333Y-66957200D02*
X112235714Y-66909580D01*
X112235714Y-66909580D02*
X112188095Y-66814342D01*
X112188095Y-66814342D02*
X112140476Y-66623866D01*
X112140476Y-66623866D02*
X112140476Y-66385771D01*
X112140476Y-66385771D02*
X112188095Y-66195295D01*
X112188095Y-66195295D02*
X112235714Y-66100057D01*
X112235714Y-66100057D02*
X112283333Y-66052438D01*
X112283333Y-66052438D02*
X112378571Y-66004819D01*
%TO.C,J9*%
D12*
X112649000Y-80020800D02*
G75*
G02*
X111887000Y-80020800I-381000J0D01*
G01*
X111887000Y-80020800D02*
G75*
G02*
X112649000Y-80020800I381000J0D01*
G01*
D13*
X114605000Y-78242800D02*
X114605000Y-67981200D01*
X114605000Y-67981200D02*
X110541000Y-67981200D01*
X110541000Y-78242800D02*
X114605000Y-78242800D01*
X110541000Y-67981200D02*
X110541000Y-78242800D01*
%TO.C,U3*%
X115923305Y-63957901D02*
X114911895Y-63957901D01*
X114911895Y-66066101D02*
X115923305Y-66066101D01*
X115112800Y-66066101D02*
G75*
G02*
X115722400Y-66066101I304800J0D01*
G01*
%TO.C,J12*%
X123819600Y-82367800D02*
X123819600Y-83337059D01*
X123819600Y-88662941D02*
X123819600Y-89632200D01*
X123819600Y-89632200D02*
X125561359Y-89632200D01*
X125561359Y-82367800D02*
X123819600Y-82367800D01*
X127680400Y-88319558D02*
X127680400Y-83680442D01*
D12*
X124702600Y-81732800D02*
G75*
G02*
X123940600Y-81732800I-381000J0D01*
G01*
X123940600Y-81732800D02*
G75*
G02*
X124702600Y-81732800I381000J0D01*
G01*
%TO.C,SW1*%
D14*
X107615000Y-42790000D02*
X107615000Y-41480000D01*
X107615000Y-45700000D02*
X107615000Y-44390000D01*
X111628333Y-44225000D02*
X111628333Y-42955000D01*
X114435000Y-41480000D02*
X107615000Y-41480000D01*
X114435000Y-42790000D02*
X114435000Y-41480000D01*
X114435000Y-45700000D02*
X107615000Y-45700000D01*
X114435000Y-45700000D02*
X114435000Y-44390000D01*
X114675000Y-45940000D02*
X113292000Y-45940000D01*
X114675000Y-45940000D02*
X114675000Y-44557000D01*
X109215000Y-42955000D02*
X112835000Y-42955000D01*
X112835000Y-44225000D01*
X109215000Y-44225000D01*
X109215000Y-42955000D01*
X111628333Y-42955000D02*
X112835000Y-42955000D01*
X112835000Y-44225000D01*
X111628333Y-44225000D01*
X111628333Y-42955000D01*
G36*
X111628333Y-42955000D02*
G01*
X112835000Y-42955000D01*
X112835000Y-44225000D01*
X111628333Y-44225000D01*
X111628333Y-42955000D01*
G37*
%TO.C,R11*%
X118612742Y-52477500D02*
X119087258Y-52477500D01*
X118612742Y-53522500D02*
X119087258Y-53522500D01*
%TO.C,D5*%
X120693333Y-101308000D02*
X120693333Y-103593000D01*
X120693333Y-103593000D02*
X122163333Y-103593000D01*
X122163333Y-103593000D02*
X122163333Y-101308000D01*
%TO.C,J10*%
D13*
X111819600Y-86117800D02*
X111819600Y-87087059D01*
X111819600Y-92412941D02*
X111819600Y-93382200D01*
X111819600Y-93382200D02*
X113561359Y-93382200D01*
X113561359Y-86117800D02*
X111819600Y-86117800D01*
X115680400Y-92069558D02*
X115680400Y-87430442D01*
D12*
X112702600Y-85482800D02*
G75*
G02*
X111940600Y-85482800I-381000J0D01*
G01*
X111940600Y-85482800D02*
G75*
G02*
X112702600Y-85482800I381000J0D01*
G01*
%TO.C,R4*%
D14*
X126065833Y-98562742D02*
X126065833Y-99037258D01*
X127110833Y-98562742D02*
X127110833Y-99037258D01*
%TO.C,C3*%
X113397420Y-61466000D02*
X113678580Y-61466000D01*
X113397420Y-62486000D02*
X113678580Y-62486000D01*
%TO.C,R6*%
X118465833Y-98550242D02*
X118465833Y-99024758D01*
X119510833Y-98550242D02*
X119510833Y-99024758D01*
%TO.C,D4*%
X125853333Y-101308000D02*
X125853333Y-103593000D01*
X125853333Y-103593000D02*
X127323333Y-103593000D01*
X127323333Y-103593000D02*
X127323333Y-101308000D01*
%TO.C,R9*%
X118603500Y-65007258D02*
X118603500Y-64532742D01*
X119648500Y-65007258D02*
X119648500Y-64532742D01*
%TO.C,R12*%
X118587742Y-50927500D02*
X119062258Y-50927500D01*
X118587742Y-51972500D02*
X119062258Y-51972500D01*
%TO.C,C2*%
X117488748Y-80590000D02*
X118911252Y-80590000D01*
X117488748Y-82410000D02*
X118911252Y-82410000D01*
%TO.C,C1*%
X117959420Y-78990000D02*
X118240580Y-78990000D01*
X117959420Y-80010000D02*
X118240580Y-80010000D01*
%TO.C,J2*%
X117382500Y-44850000D02*
X117982500Y-45150000D01*
X117382500Y-45450000D02*
X117382500Y-44850000D01*
X117982500Y-45150000D02*
X117382500Y-45450000D01*
X118182500Y-43040000D02*
X119382500Y-43040000D01*
X118182500Y-50060000D02*
X118182500Y-43040000D01*
X119382500Y-41340000D02*
X125062500Y-41340000D01*
X119382500Y-43040000D02*
X119382500Y-41340000D01*
X125062500Y-41340000D02*
X125062500Y-43040000D01*
X125062500Y-43040000D02*
X126262500Y-43040000D01*
X126262500Y-43040000D02*
X126262500Y-50060000D01*
X126262500Y-50060000D02*
X118182500Y-50060000D01*
%TO.C,J11*%
D13*
X124019600Y-59267800D02*
X124019600Y-60237059D01*
X124019600Y-65562941D02*
X124019600Y-66532200D01*
X124019600Y-66532200D02*
X125761359Y-66532200D01*
X125761359Y-59267800D02*
X124019600Y-59267800D01*
X127880400Y-65219558D02*
X127880400Y-60580442D01*
D12*
X124902600Y-58632800D02*
G75*
G02*
X124140600Y-58632800I-381000J0D01*
G01*
X124140600Y-58632800D02*
G75*
G02*
X124902600Y-58632800I381000J0D01*
G01*
%TO.C,J8*%
D13*
X120618500Y-68021200D02*
X120618500Y-78282800D01*
X120618500Y-78282800D02*
X124682500Y-78282800D01*
X124682500Y-68021200D02*
X120618500Y-68021200D01*
X124682500Y-78282800D02*
X124682500Y-68021200D01*
D12*
X122726500Y-80060800D02*
G75*
G02*
X121964500Y-80060800I-381000J0D01*
G01*
X121964500Y-80060800D02*
G75*
G02*
X122726500Y-80060800I381000J0D01*
G01*
%TO.C,D6*%
D14*
X118253333Y-101308000D02*
X118253333Y-103593000D01*
X118253333Y-103593000D02*
X119723333Y-103593000D01*
X119723333Y-103593000D02*
X119723333Y-101308000D01*
%TO.C,J6*%
D13*
X128509991Y-42179099D02*
X128509991Y-43137060D01*
X128509991Y-45462938D02*
X128509991Y-46420899D01*
X128509991Y-46420899D02*
X129494759Y-46420899D01*
X129494759Y-42179099D02*
X128509991Y-42179099D01*
X131659591Y-45119558D02*
X131659591Y-43480440D01*
D12*
X128636000Y-47055899D02*
G75*
G02*
X127874000Y-47055899I-381000J0D01*
G01*
X127874000Y-47055899D02*
G75*
G02*
X128636000Y-47055899I381000J0D01*
G01*
%TO.C,D7*%
D14*
X123320000Y-101308000D02*
X123320000Y-103593000D01*
X123320000Y-103593000D02*
X124790000Y-103593000D01*
X124790000Y-103593000D02*
X124790000Y-101308000D01*
%TO.C,R7*%
X113217742Y-59277500D02*
X113692258Y-59277500D01*
X113217742Y-60322500D02*
X113692258Y-60322500D01*
%TO.C,U4*%
X106670000Y-48160000D02*
X108050000Y-48160000D01*
X106670000Y-49540000D02*
X106670000Y-48160000D01*
X106670000Y-50810000D02*
X106670000Y-99180000D01*
X106670000Y-50810000D02*
X109430000Y-50810000D01*
X106670000Y-99180000D02*
X109430000Y-99180000D01*
X109430000Y-50810000D02*
X109430000Y-99180000D01*
X129530000Y-48160000D02*
X130910000Y-48160000D01*
X129530000Y-49540000D02*
X129530000Y-48160000D01*
X129530000Y-50810000D02*
X129530000Y-99180000D01*
X129530000Y-50810000D02*
X132290000Y-50810000D01*
X129530000Y-99180000D02*
X132290000Y-99180000D01*
X132290000Y-50810000D02*
X132290000Y-99180000D01*
%TO.C,R8*%
X123532500Y-98562742D02*
X123532500Y-99037258D01*
X124577500Y-98562742D02*
X124577500Y-99037258D01*
%TO.C,Q1*%
X109922500Y-48250000D02*
X109922500Y-54670000D01*
X109922500Y-54670000D02*
X110192500Y-54670000D01*
X116822500Y-48250000D02*
X116822500Y-54670000D01*
X116822500Y-54670000D02*
X116552500Y-54670000D01*
X110232500Y-56400000D02*
X109762500Y-56740000D01*
X109762500Y-56060000D01*
X110232500Y-56400000D01*
G36*
X110232500Y-56400000D02*
G01*
X109762500Y-56740000D01*
X109762500Y-56060000D01*
X110232500Y-56400000D01*
G37*
%TO.C,R5*%
X120905833Y-98575242D02*
X120905833Y-99049758D01*
X121950833Y-98575242D02*
X121950833Y-99049758D01*
%TO.C,J7*%
D13*
X115621000Y-68021200D02*
X115621000Y-78282800D01*
X115621000Y-78282800D02*
X119685000Y-78282800D01*
X119685000Y-68021200D02*
X115621000Y-68021200D01*
X119685000Y-78282800D02*
X119685000Y-68021200D01*
D12*
X117729000Y-80060800D02*
G75*
G02*
X116967000Y-80060800I-381000J0D01*
G01*
X116967000Y-80060800D02*
G75*
G02*
X117729000Y-80060800I381000J0D01*
G01*
%TO.C,R10*%
D14*
X111743258Y-64501500D02*
X111268742Y-64501500D01*
X111743258Y-65546500D02*
X111268742Y-65546500D01*
%TD*%
M02*
