%TF.GenerationSoftware,KiCad,Pcbnew,10.0.0*%
%TF.CreationDate,2026-04-30T16:17:29+09:00*%
%TF.ProjectId,esp_header_4_layers,6573705f-6865-4616-9465-725f345f6c61,rev?*%
%TF.SameCoordinates,Original*%
%TF.FileFunction,Paste,Top*%
%TF.FilePolarity,Positive*%
%FSLAX46Y46*%
G04 Gerber Fmt 4.6, Leading zero omitted, Abs format (unit mm)*
G04 Created by KiCad (PCBNEW 10.0.0) date 2026-04-30 16:17:29*
%MOMM*%
%LPD*%
G01*
G04 APERTURE LIST*
G04 Aperture macros list*
%AMRoundRect*
0 Rectangle with rounded corners*
0 $1 Rounding radius*
0 $2 $3 $4 $5 $6 $7 $8 $9 X,Y pos of 4 corners*
0 Add a 4 corners polygon primitive as box body*
4,1,4,$2,$3,$4,$5,$6,$7,$8,$9,$2,$3,0*
0 Add four circle primitives for the rounded corners*
1,1,$1+$1,$2,$3*
1,1,$1+$1,$4,$5*
1,1,$1+$1,$6,$7*
1,1,$1+$1,$8,$9*
0 Add four rect primitives between the rounded corners*
20,1,$1+$1,$2,$3,$4,$5,0*
20,1,$1+$1,$4,$5,$6,$7,0*
20,1,$1+$1,$6,$7,$8,$9,0*
20,1,$1+$1,$8,$9,$2,$3,0*%
G04 Aperture macros list end*
%ADD10R,1.168400X0.254000*%
%ADD11R,1.549400X0.660400*%
%ADD12R,1.905000X1.295400*%
%ADD13RoundRect,0.250000X0.830000X0.310000X-0.830000X0.310000X-0.830000X-0.310000X0.830000X-0.310000X0*%
%ADD14RoundRect,0.200000X-0.200000X-0.275000X0.200000X-0.275000X0.200000X0.275000X-0.200000X0.275000X0*%
%ADD15RoundRect,0.218750X0.256250X-0.218750X0.256250X0.218750X-0.256250X0.218750X-0.256250X-0.218750X0*%
%ADD16RoundRect,0.200000X-0.275000X0.200000X-0.275000X-0.200000X0.275000X-0.200000X0.275000X0.200000X0*%
%ADD17RoundRect,0.225000X-0.225000X-0.250000X0.225000X-0.250000X0.225000X0.250000X-0.225000X0.250000X0*%
%ADD18RoundRect,0.200000X0.275000X-0.200000X0.275000X0.200000X-0.275000X0.200000X-0.275000X-0.200000X0*%
%ADD19RoundRect,0.250000X-0.325000X-0.650000X0.325000X-0.650000X0.325000X0.650000X-0.325000X0.650000X0*%
%ADD20RoundRect,0.250000X1.125000X-1.275000X1.125000X1.275000X-1.125000X1.275000X-1.125000X-1.275000X0*%
%ADD21RoundRect,0.250000X0.350000X-0.850000X0.350000X0.850000X-0.350000X0.850000X-0.350000X-0.850000X0*%
%ADD22RoundRect,0.200000X0.200000X0.275000X-0.200000X0.275000X-0.200000X-0.275000X0.200000X-0.275000X0*%
G04 APERTURE END LIST*
D10*
%TO.C,U3*%
X116789200Y-65762002D03*
X116789200Y-65262001D03*
X116789200Y-64762001D03*
X116789200Y-64262000D03*
X114046000Y-64262000D03*
X114046000Y-64762001D03*
X114046000Y-65262001D03*
X114046000Y-65762002D03*
%TD*%
D11*
%TO.C,J12*%
X124321600Y-83999999D03*
X124321600Y-84999999D03*
X124321600Y-86000000D03*
X124321600Y-87000001D03*
X124321600Y-88000001D03*
D12*
X126846599Y-89299998D03*
X126846599Y-82700002D03*
%TD*%
D13*
%TO.C,SW1*%
X114390000Y-43590000D03*
X107660000Y-43590000D03*
%TD*%
D14*
%TO.C,R11*%
X118025000Y-53000000D03*
X119675000Y-53000000D03*
%TD*%
D15*
%TO.C,D5*%
X121428333Y-102895500D03*
X121428333Y-101320500D03*
%TD*%
D11*
%TO.C,J10*%
X112321600Y-87749999D03*
X112321600Y-88749999D03*
X112321600Y-89750000D03*
X112321600Y-90750001D03*
X112321600Y-91750001D03*
D12*
X114846599Y-93049998D03*
X114846599Y-86450002D03*
%TD*%
D16*
%TO.C,R4*%
X126588333Y-97975000D03*
X126588333Y-99625000D03*
%TD*%
D17*
%TO.C,C3*%
X112763000Y-61976000D03*
X114313000Y-61976000D03*
%TD*%
D16*
%TO.C,R6*%
X118988333Y-97962500D03*
X118988333Y-99612500D03*
%TD*%
D15*
%TO.C,D4*%
X126588333Y-102895500D03*
X126588333Y-101320500D03*
%TD*%
D18*
%TO.C,R9*%
X119126000Y-65595000D03*
X119126000Y-63945000D03*
%TD*%
D14*
%TO.C,R12*%
X118000000Y-51450000D03*
X119650000Y-51450000D03*
%TD*%
D19*
%TO.C,C2*%
X116725000Y-81500000D03*
X119675000Y-81500000D03*
%TD*%
D17*
%TO.C,C1*%
X117325000Y-79500000D03*
X118875000Y-79500000D03*
%TD*%
D11*
%TO.C,J11*%
X124521600Y-60899999D03*
X124521600Y-61899999D03*
X124521600Y-62900000D03*
X124521600Y-63900001D03*
X124521600Y-64900001D03*
D12*
X127046599Y-66199998D03*
X127046599Y-59600002D03*
%TD*%
D15*
%TO.C,D6*%
X118988333Y-102895500D03*
X118988333Y-101320500D03*
%TD*%
D11*
%TO.C,J6*%
X128255000Y-44799998D03*
X128255000Y-43800000D03*
D12*
X130779999Y-46099998D03*
X130779999Y-42500000D03*
%TD*%
D15*
%TO.C,D7*%
X124055000Y-102895500D03*
X124055000Y-101320500D03*
%TD*%
D14*
%TO.C,R7*%
X112630000Y-59800000D03*
X114280000Y-59800000D03*
%TD*%
D16*
%TO.C,R8*%
X124055000Y-97975000D03*
X124055000Y-99625000D03*
%TD*%
D20*
%TO.C,Q1*%
X111847500Y-51775000D03*
X114897500Y-51775000D03*
X111847500Y-48425000D03*
X114897500Y-48425000D03*
D21*
X111092500Y-56400000D03*
X115652500Y-56400000D03*
%TD*%
D16*
%TO.C,R5*%
X121428333Y-97987500D03*
X121428333Y-99637500D03*
%TD*%
D22*
%TO.C,R10*%
X112331000Y-65024000D03*
X110681000Y-65024000D03*
%TD*%
M02*
