%TF.GenerationSoftware,KiCad,Pcbnew,10.0.0*%
%TF.CreationDate,2026-04-30T16:17:28+09:00*%
%TF.ProjectId,esp_header_4_layers,6573705f-6865-4616-9465-725f345f6c61,rev?*%
%TF.SameCoordinates,Original*%
%TF.FileFunction,Copper,L1,Top*%
%TF.FilePolarity,Positive*%
%FSLAX46Y46*%
G04 Gerber Fmt 4.6, Leading zero omitted, Abs format (unit mm)*
G04 Created by KiCad (PCBNEW 10.0.0) date 2026-04-30 16:17:28*
%MOMM*%
%LPD*%
G01*
G04 APERTURE LIST*
G04 Aperture macros list*
%AMRoundRect*
0 Rectangle with rounded corners*
0 $1 Rounding radius*
0 $2 $3 $4 $5 $6 $7 $8 $9 X,Y pos of 4 corners*
0 Add a 4 corners polygon primitive as box body*
4,1,4,$2,$3,$4,$5,$6,$7,$8,$9,$2,$3,0*
0 Add four circle primitives for the rounded corners*
1,1,$1+$1,$2,$3*
1,1,$1+$1,$4,$5*
1,1,$1+$1,$6,$7*
1,1,$1+$1,$8,$9*
0 Add four rect primitives between the rounded corners*
20,1,$1+$1,$2,$3,$4,$5,0*
20,1,$1+$1,$4,$5,$6,$7,0*
20,1,$1+$1,$6,$7,$8,$9,0*
20,1,$1+$1,$8,$9,$2,$3,0*%
G04 Aperture macros list end*
%TA.AperFunction,ComponentPad*%
%ADD10C,1.397000*%
%TD*%
%TA.AperFunction,SMDPad,CuDef*%
%ADD11R,1.168400X0.254000*%
%TD*%
%TA.AperFunction,SMDPad,CuDef*%
%ADD12R,1.549400X0.660400*%
%TD*%
%TA.AperFunction,SMDPad,CuDef*%
%ADD13R,1.905000X1.295400*%
%TD*%
%TA.AperFunction,SMDPad,CuDef*%
%ADD14RoundRect,0.250000X0.830000X0.310000X-0.830000X0.310000X-0.830000X-0.310000X0.830000X-0.310000X0*%
%TD*%
%TA.AperFunction,SMDPad,CuDef*%
%ADD15RoundRect,0.200000X-0.200000X-0.275000X0.200000X-0.275000X0.200000X0.275000X-0.200000X0.275000X0*%
%TD*%
%TA.AperFunction,SMDPad,CuDef*%
%ADD16RoundRect,0.218750X0.256250X-0.218750X0.256250X0.218750X-0.256250X0.218750X-0.256250X-0.218750X0*%
%TD*%
%TA.AperFunction,SMDPad,CuDef*%
%ADD17RoundRect,0.200000X-0.275000X0.200000X-0.275000X-0.200000X0.275000X-0.200000X0.275000X0.200000X0*%
%TD*%
%TA.AperFunction,SMDPad,CuDef*%
%ADD18RoundRect,0.225000X-0.225000X-0.250000X0.225000X-0.250000X0.225000X0.250000X-0.225000X0.250000X0*%
%TD*%
%TA.AperFunction,SMDPad,CuDef*%
%ADD19RoundRect,0.200000X0.275000X-0.200000X0.275000X0.200000X-0.275000X0.200000X-0.275000X-0.200000X0*%
%TD*%
%TA.AperFunction,SMDPad,CuDef*%
%ADD20RoundRect,0.250000X-0.325000X-0.650000X0.325000X-0.650000X0.325000X0.650000X-0.325000X0.650000X0*%
%TD*%
%TA.AperFunction,ComponentPad*%
%ADD21RoundRect,0.250001X-1.099999X-1.099999X1.099999X-1.099999X1.099999X1.099999X-1.099999X1.099999X0*%
%TD*%
%TA.AperFunction,ComponentPad*%
%ADD22C,2.700000*%
%TD*%
%TA.AperFunction,ComponentPad*%
%ADD23R,1.700000X1.700000*%
%TD*%
%TA.AperFunction,ComponentPad*%
%ADD24C,1.700000*%
%TD*%
%TA.AperFunction,SMDPad,CuDef*%
%ADD25RoundRect,0.249997X2.650003X-2.950003X2.650003X2.950003X-2.650003X2.950003X-2.650003X-2.950003X0*%
%TD*%
%TA.AperFunction,SMDPad,CuDef*%
%ADD26RoundRect,0.250000X0.350000X-0.850000X0.350000X0.850000X-0.350000X0.850000X-0.350000X-0.850000X0*%
%TD*%
%TA.AperFunction,SMDPad,CuDef*%
%ADD27RoundRect,0.200000X0.200000X0.275000X-0.200000X0.275000X-0.200000X-0.275000X0.200000X-0.275000X0*%
%TD*%
%TA.AperFunction,ViaPad*%
%ADD28C,0.600000*%
%TD*%
%TA.AperFunction,Conductor*%
%ADD29C,0.200000*%
%TD*%
%TA.AperFunction,Conductor*%
%ADD30C,0.400000*%
%TD*%
%TA.AperFunction,Conductor*%
%ADD31C,0.600000*%
%TD*%
%TA.AperFunction,Conductor*%
%ADD32C,1.000000*%
%TD*%
%TA.AperFunction,Conductor*%
%ADD33C,2.000000*%
%TD*%
G04 APERTURE END LIST*
D10*
%TO.P,J9,3,3_3*%
%TO.N,TTL_DATA*%
X112268000Y-70612000D03*
%TO.P,J9,2,2_2*%
%TO.N,+6V*%
X112268000Y-73112000D03*
%TO.P,J9,1,1_1*%
%TO.N,GND*%
X112268000Y-75612000D03*
%TD*%
D11*
%TO.P,U3,1,\u002A1OE_1*%
%TO.N,TTLEN*%
X116789200Y-65762002D03*
%TO.P,U3,2,1A_2*%
%TO.N,TTL_DATA*%
X116789200Y-65262001D03*
%TO.P,U3,3,2Y_3*%
X116789200Y-64762001D03*
%TO.P,U3,4,GND_4*%
%TO.N,GND*%
X116789200Y-64262000D03*
%TO.P,U3,5,2A_5*%
%TO.N,ESP32_TXD*%
X114046000Y-64262000D03*
%TO.P,U3,6,1Y_6*%
%TO.N,ESP32_RXD*%
X114046000Y-64762001D03*
%TO.P,U3,7,2OE_7*%
%TO.N,TTLEN*%
X114046000Y-65262001D03*
%TO.P,U3,8,Vcc_8*%
%TO.N,+3V3*%
X114046000Y-65762002D03*
%TD*%
D12*
%TO.P,J12,1,1_1*%
%TO.N,SEN15*%
X124321600Y-83999999D03*
%TO.P,J12,2,2_2*%
%TO.N,SEN14*%
X124321600Y-84999999D03*
%TO.P,J12,3,3_3*%
%TO.N,SEN13*%
X124321600Y-86000000D03*
%TO.P,J12,4,4_4*%
%TO.N,SEN12*%
X124321600Y-87000001D03*
%TO.P,J12,5,5_5*%
%TO.N,SEN11*%
X124321600Y-88000001D03*
D13*
%TO.P,J12,6*%
%TO.N,N/C*%
X126846599Y-89299998D03*
%TO.P,J12,7*%
X126846599Y-82700002D03*
%TD*%
D14*
%TO.P,SW1,1*%
%TO.N,/In_6V*%
X114390000Y-43590000D03*
%TO.P,SW1,2*%
%TO.N,/gate*%
X107660000Y-43590000D03*
%TD*%
D15*
%TO.P,R11,1*%
%TO.N,+6V*%
X118025000Y-53000000D03*
%TO.P,R11,2*%
%TO.N,GND*%
X119675000Y-53000000D03*
%TD*%
D16*
%TO.P,D5,1,K_1*%
%TO.N,GND*%
X121428333Y-102895500D03*
%TO.P,D5,2,A_2*%
%TO.N,Net-(D5-A)*%
X121428333Y-101320500D03*
%TD*%
D12*
%TO.P,J10,1,1_1*%
%TO.N,SEN5*%
X112321600Y-87749999D03*
%TO.P,J10,2,2_2*%
%TO.N,SEN4*%
X112321600Y-88749999D03*
%TO.P,J10,3,3_3*%
%TO.N,SEN3*%
X112321600Y-89750000D03*
%TO.P,J10,4,4_4*%
%TO.N,SEN2*%
X112321600Y-90750001D03*
%TO.P,J10,5,5_5*%
%TO.N,SEN1*%
X112321600Y-91750001D03*
D13*
%TO.P,J10,6*%
%TO.N,N/C*%
X114846599Y-93049998D03*
%TO.P,J10,7*%
X114846599Y-86450002D03*
%TD*%
D17*
%TO.P,R4,1*%
%TO.N,+6V*%
X126588333Y-97975000D03*
%TO.P,R4,2*%
%TO.N,Net-(D4-A)*%
X126588333Y-99625000D03*
%TD*%
D18*
%TO.P,C3,1*%
%TO.N,+3V3*%
X112763000Y-61976000D03*
%TO.P,C3,2*%
%TO.N,GND*%
X114313000Y-61976000D03*
%TD*%
D17*
%TO.P,R6,1*%
%TO.N,LEDBlue*%
X118988333Y-97962500D03*
%TO.P,R6,2*%
%TO.N,Net-(D6-A)*%
X118988333Y-99612500D03*
%TD*%
D16*
%TO.P,D4,1,K_1*%
%TO.N,GND*%
X126588333Y-102895500D03*
%TO.P,D4,2,A_2*%
%TO.N,Net-(D4-A)*%
X126588333Y-101320500D03*
%TD*%
D19*
%TO.P,R9,1*%
%TO.N,TTLEN*%
X119126000Y-65595000D03*
%TO.P,R9,2*%
%TO.N,GND*%
X119126000Y-63945000D03*
%TD*%
D15*
%TO.P,R12,1*%
%TO.N,/gate*%
X118000000Y-51450000D03*
%TO.P,R12,2*%
%TO.N,GND*%
X119650000Y-51450000D03*
%TD*%
D20*
%TO.P,C2,1*%
%TO.N,+6V*%
X116725000Y-81500000D03*
%TO.P,C2,2*%
%TO.N,GND*%
X119675000Y-81500000D03*
%TD*%
D18*
%TO.P,C1,1*%
%TO.N,+6V*%
X117325000Y-79500000D03*
%TO.P,C1,2*%
%TO.N,GND*%
X118875000Y-79500000D03*
%TD*%
D21*
%TO.P,J2,1,Pin_1_1*%
%TO.N,/In_6V*%
X120242500Y-45150000D03*
D22*
%TO.P,J2,2,Pin_2_2*%
%TO.N,GND*%
X124202500Y-45150000D03*
%TD*%
D12*
%TO.P,J11,1,1_1*%
%TO.N,SEN10*%
X124521600Y-60899999D03*
%TO.P,J11,2,2_2*%
%TO.N,SEN9*%
X124521600Y-61899999D03*
%TO.P,J11,3,3_3*%
%TO.N,SEN8*%
X124521600Y-62900000D03*
%TO.P,J11,4,4_4*%
%TO.N,SEN7*%
X124521600Y-63900001D03*
%TO.P,J11,5,5_5*%
%TO.N,SEN6*%
X124521600Y-64900001D03*
D13*
%TO.P,J11,6*%
%TO.N,N/C*%
X127046599Y-66199998D03*
%TO.P,J11,7*%
X127046599Y-59600002D03*
%TD*%
D10*
%TO.P,J8,1,1_1*%
%TO.N,GND*%
X122345500Y-75652000D03*
%TO.P,J8,2,2_2*%
%TO.N,+6V*%
X122345500Y-73152000D03*
%TO.P,J8,3,3_3*%
%TO.N,TTL_DATA*%
X122345500Y-70652000D03*
%TD*%
D16*
%TO.P,D6,1,K_1*%
%TO.N,GND*%
X118988333Y-102895500D03*
%TO.P,D6,2,A_2*%
%TO.N,Net-(D6-A)*%
X118988333Y-101320500D03*
%TD*%
D12*
%TO.P,J6,1,Pin_1_1*%
%TO.N,+3V3*%
X128255000Y-44799998D03*
%TO.P,J6,2,Pin_2_2*%
%TO.N,GND*%
X128255000Y-43800000D03*
D13*
%TO.P,J6,3*%
%TO.N,N/C*%
X130779999Y-46099998D03*
%TO.P,J6,4*%
X130779999Y-42500000D03*
%TD*%
D16*
%TO.P,D7,1,K_1*%
%TO.N,GND*%
X124055000Y-102895500D03*
%TO.P,D7,2,A_2*%
%TO.N,Net-(D7-A)*%
X124055000Y-101320500D03*
%TD*%
D15*
%TO.P,R7,1*%
%TO.N,+3V3*%
X112630000Y-59800000D03*
%TO.P,R7,2*%
%TO.N,TTL_DATA*%
X114280000Y-59800000D03*
%TD*%
D23*
%TO.P,U4,1,3V3_1*%
%TO.N,+3V3*%
X130910000Y-49540000D03*
D24*
%TO.P,U4,2,EN_2*%
%TO.N,unconnected-(U4-EN-Pad2)*%
X130910000Y-52080000D03*
%TO.P,U4,3,IO17\u002CA_3*%
%TO.N,SEN10*%
X130910000Y-54620000D03*
%TO.P,U4,4,IO18\u002CA_4*%
%TO.N,SEN9*%
X130910000Y-57160000D03*
%TO.P,U4,5,IO47_5*%
%TO.N,unconnected-(U4-IO47-Pad5)*%
X130910000Y-59700000D03*
%TO.P,U4,6,USB_D-\u002CIO19_6*%
%TO.N,unconnected-(U4-USB_D-\u002CIO19-Pad6)*%
X130910000Y-62240000D03*
%TO.P,U4,7,USB_D+\u002CIO20_7*%
%TO.N,unconnected-(U4-USB_D+\u002CIO20-Pad7)*%
X130910000Y-64780000D03*
%TO.P,U4,8,A\u002CIO9_8*%
%TO.N,SEN8*%
X130910000Y-67320000D03*
%TO.P,U4,9,GND_9*%
%TO.N,GND*%
X130910000Y-69860000D03*
%TO.P,U4,10,VIN_10*%
%TO.N,+6V*%
X130910000Y-72400000D03*
%TO.P,U4,11,A\u002CIO8_11*%
%TO.N,SEN7*%
X130910000Y-74940000D03*
%TO.P,U4,12,A\u002CIO10_12*%
%TO.N,SEN6*%
X130910000Y-77480000D03*
%TO.P,U4,13,A\u002CIO11_13*%
%TO.N,SEN15*%
X130910000Y-80020000D03*
%TO.P,U4,14,A\u002CIO12_14*%
%TO.N,SEN14*%
X130910000Y-82560000D03*
%TO.P,U4,15,A\u002CIO13_15*%
%TO.N,SEN13*%
X130910000Y-85100000D03*
%TO.P,U4,16,A\u002CIO14_16*%
%TO.N,SEN12*%
X130910000Y-87640000D03*
%TO.P,U4,17,IO21_17*%
%TO.N,unconnected-(U4-IO21-Pad17)*%
X130910000Y-90180000D03*
%TO.P,U4,18,A\u002CIO4_18*%
%TO.N,SEN11*%
X130910000Y-92720000D03*
%TO.P,U4,19,A\u002CIO5_19*%
%TO.N,SEN1*%
X130910000Y-95260000D03*
%TO.P,U4,20,GND_20*%
%TO.N,GND*%
X130910000Y-97800000D03*
%TO.P,U4,21,GND_21*%
X108050000Y-49540000D03*
%TO.P,U4,22,IO1\u002CA_22*%
%TO.N,SEN5*%
X108050000Y-52080000D03*
%TO.P,U4,23,IO42_23*%
%TO.N,unconnected-(U4-IO42-Pad23)*%
X108050000Y-54620000D03*
%TO.P,U4,24,IO41_24*%
%TO.N,unconnected-(U4-IO41-Pad24)*%
X108050000Y-57160000D03*
%TO.P,U4,25,IO35_25*%
%TO.N,unconnected-(U4-IO35-Pad25)*%
X108050000Y-59700000D03*
%TO.P,U4,26,ESP32_TXD_26*%
%TO.N,ESP32_TXD*%
X108050000Y-62240000D03*
%TO.P,U4,27,ESP32_RXD_27*%
%TO.N,ESP32_RXD*%
X108050000Y-64780000D03*
%TO.P,U4,28,IO40_28*%
%TO.N,TTLEN*%
X108050000Y-67320000D03*
%TO.P,U4,29,GND_29*%
%TO.N,GND*%
X108050000Y-69860000D03*
%TO.P,U4,30,Vcc_30*%
%TO.N,Vcc*%
X108050000Y-72400000D03*
%TO.P,U4,31,IO39_31*%
%TO.N,unconnected-(U4-IO39-Pad31)*%
X108050000Y-74940000D03*
%TO.P,U4,32,IO38_32*%
%TO.N,LEDBlue*%
X108050000Y-77480000D03*
%TO.P,U4,33,IO37_33*%
%TO.N,unconnected-(U4-IO37-Pad33)*%
X108050000Y-80020000D03*
%TO.P,U4,34,IO36_34*%
%TO.N,unconnected-(U4-IO36-Pad34)*%
X108050000Y-82560000D03*
%TO.P,U4,35,IO2\u002CA_35*%
%TO.N,SEN4*%
X108050000Y-85100000D03*
%TO.P,U4,36,IO0_36*%
%TO.N,unconnected-(U4-IO0-Pad36)*%
X108050000Y-87640000D03*
%TO.P,U4,37,IO48_37*%
%TO.N,unconnected-(U4-IO48-Pad37)*%
X108050000Y-90180000D03*
%TO.P,U4,38,IO7\u002CA_38*%
%TO.N,SEN3*%
X108050000Y-92720000D03*
%TO.P,U4,39,IO6\u002CA_39*%
%TO.N,SEN2*%
X108050000Y-95260000D03*
%TO.P,U4,40,GND_40*%
%TO.N,GND*%
X108050000Y-97800000D03*
%TD*%
D17*
%TO.P,R8,1*%
%TO.N,TTL_DATA*%
X124055000Y-97975000D03*
%TO.P,R8,2*%
%TO.N,Net-(D7-A)*%
X124055000Y-99625000D03*
%TD*%
D25*
%TO.P,Q1,D,D_D*%
%TO.N,/In_6V*%
X113372500Y-50100000D03*
D26*
%TO.P,Q1,G,G_G*%
%TO.N,/gate*%
X111092500Y-56400000D03*
%TO.P,Q1,S,S_S*%
%TO.N,+6V*%
X115652500Y-56400000D03*
%TD*%
D17*
%TO.P,R5,1*%
%TO.N,+3V3*%
X121428333Y-97987500D03*
%TO.P,R5,2*%
%TO.N,Net-(D5-A)*%
X121428333Y-99637500D03*
%TD*%
D10*
%TO.P,J7,1,1_1*%
%TO.N,GND*%
X117348000Y-75652000D03*
%TO.P,J7,2,2_2*%
%TO.N,+6V*%
X117348000Y-73152000D03*
%TO.P,J7,3,3_3*%
%TO.N,TTL_DATA*%
X117348000Y-70652000D03*
%TD*%
D27*
%TO.P,R10,1*%
%TO.N,+3V3*%
X112331000Y-65024000D03*
%TO.P,R10,2*%
%TO.N,ESP32_RXD*%
X110681000Y-65024000D03*
%TD*%
D28*
%TO.N,GND*%
X120725000Y-51450000D03*
X120750000Y-81500000D03*
X116050000Y-62000000D03*
X116800000Y-63300000D03*
X129750000Y-43850000D03*
X120750000Y-53000000D03*
X120300000Y-79500000D03*
X119150000Y-62750000D03*
X122800000Y-102900000D03*
X125350000Y-102900000D03*
X128250000Y-42700000D03*
X120250000Y-102900000D03*
X117650000Y-102850000D03*
%TO.N,+6V*%
X116000000Y-79500000D03*
X115500000Y-81500000D03*
X114350000Y-56400000D03*
X127850000Y-97950000D03*
X115600000Y-58250000D03*
X115650000Y-54250000D03*
X116950000Y-56400000D03*
%TO.N,+3V3*%
X112750000Y-61000000D03*
X120950000Y-96600000D03*
X112350000Y-65950000D03*
X113600000Y-66400000D03*
X128250000Y-45750000D03*
X112650000Y-58650000D03*
%TO.N,LEDBlue*%
X117900000Y-97900000D03*
%TO.N,TTLEN*%
X112900000Y-67300000D03*
%TO.N,TTL_DATA*%
X115500000Y-64700000D03*
X124100000Y-96800000D03*
X115450000Y-59850000D03*
%TO.N,ESP32_TXD*%
X114050000Y-63100000D03*
%TO.N,ESP32_RXD*%
X112931000Y-63800000D03*
X110800000Y-63700000D03*
%TO.N,/In_6V*%
X113372500Y-50100000D03*
X117000000Y-46800000D03*
X113000000Y-46200000D03*
X112050000Y-42400000D03*
X117150000Y-43600000D03*
X110750000Y-46650000D03*
%TO.N,/gate*%
X107750000Y-44850000D03*
X111100000Y-54600000D03*
X116797500Y-51500000D03*
%TD*%
%TO.N,GND*%
D29*
X116026000Y-61976000D02*
X116050000Y-62000000D01*
X121428333Y-102895500D02*
X120254500Y-102895500D01*
X122804500Y-102895500D02*
X122800000Y-102900000D01*
X114313000Y-61976000D02*
X116026000Y-61976000D01*
X126588333Y-102895500D02*
X125354500Y-102895500D01*
X116789200Y-64262000D02*
X116789200Y-63310800D01*
X118988333Y-102895500D02*
X117695500Y-102895500D01*
X120254500Y-102895500D02*
X120250000Y-102900000D01*
D30*
X129700000Y-43800000D02*
X129750000Y-43850000D01*
X119126000Y-62774000D02*
X119150000Y-62750000D01*
D29*
X116789200Y-63310800D02*
X116800000Y-63300000D01*
X125354500Y-102895500D02*
X125350000Y-102900000D01*
D30*
X128255000Y-43800000D02*
X128255000Y-42705000D01*
X119126000Y-63945000D02*
X119126000Y-62774000D01*
D29*
X119675000Y-81500000D02*
X120750000Y-81500000D01*
X117695500Y-102895500D02*
X117650000Y-102850000D01*
X124055000Y-102895500D02*
X122804500Y-102895500D01*
D30*
X119650000Y-51450000D02*
X120725000Y-51450000D01*
X114339000Y-61950000D02*
X114313000Y-61976000D01*
X128255000Y-43800000D02*
X129700000Y-43800000D01*
D31*
X128255000Y-42705000D02*
X128250000Y-42700000D01*
D30*
X119675000Y-53000000D02*
X120750000Y-53000000D01*
D29*
X118875000Y-79500000D02*
X120300000Y-79500000D01*
%TO.N,SEN15*%
X124321600Y-83999999D02*
X124321600Y-82028400D01*
X124321600Y-82028400D02*
X126330000Y-80020000D01*
X126330000Y-80020000D02*
X130910000Y-80020000D01*
%TO.N,SEN14*%
X128470001Y-84999999D02*
X130910000Y-82560000D01*
X124321600Y-84999999D02*
X128470001Y-84999999D01*
%TO.N,SEN13*%
X124321600Y-86000000D02*
X130010000Y-86000000D01*
X130010000Y-86000000D02*
X130910000Y-85100000D01*
%TO.N,SEN12*%
X124321600Y-87000001D02*
X130270001Y-87000001D01*
X130270001Y-87000001D02*
X130910000Y-87640000D01*
%TO.N,SEN11*%
X124321600Y-88975199D02*
X126296401Y-90950000D01*
X124321600Y-88000001D02*
X124321600Y-88975199D01*
X126296401Y-90950000D02*
X129140000Y-90950000D01*
X129140000Y-90950000D02*
X130910000Y-92720000D01*
%TO.N,Net-(D5-A)*%
X121428333Y-99637500D02*
X121428333Y-101320500D01*
%TO.N,SEN5*%
X109700000Y-85128399D02*
X109700000Y-53730000D01*
X109700000Y-53730000D02*
X108050000Y-52080000D01*
X112321600Y-87749999D02*
X109700000Y-85128399D01*
%TO.N,SEN4*%
X111699999Y-88749999D02*
X108050000Y-85100000D01*
X112321600Y-88749999D02*
X111699999Y-88749999D01*
%TO.N,SEN3*%
X112321600Y-89750000D02*
X111020000Y-89750000D01*
X111020000Y-89750000D02*
X108050000Y-92720000D01*
%TO.N,SEN2*%
X112321600Y-90750001D02*
X111646345Y-90750001D01*
X108050000Y-94346346D02*
X108050000Y-95260000D01*
X111646345Y-90750001D02*
X108050000Y-94346346D01*
%TO.N,SEN1*%
X112321600Y-91750001D02*
X127400001Y-91750001D01*
X127400001Y-91750001D02*
X130910000Y-95260000D01*
%TO.N,+6V*%
D30*
X115652500Y-58197500D02*
X115600000Y-58250000D01*
D32*
X115652500Y-56400000D02*
X114350000Y-56400000D01*
X115652500Y-56400000D02*
X116950000Y-56400000D01*
X115652500Y-56400000D02*
X115652500Y-58197500D01*
D30*
X118025000Y-53000000D02*
X118025000Y-53725000D01*
X115652500Y-54347500D02*
X115652500Y-56400000D01*
X118025000Y-53725000D02*
X115677500Y-56072500D01*
X115677500Y-56072500D02*
X115677500Y-56847500D01*
D29*
X127825000Y-97975000D02*
X127850000Y-97950000D01*
X117325000Y-79500000D02*
X116000000Y-79500000D01*
X126588333Y-97975000D02*
X127825000Y-97975000D01*
X116725000Y-81500000D02*
X115500000Y-81500000D01*
%TO.N,Net-(D4-A)*%
X126588333Y-99625000D02*
X126588333Y-101320500D01*
%TO.N,+3V3*%
X114046000Y-65762002D02*
X114046000Y-65954000D01*
X112331000Y-62408000D02*
X112763000Y-61976000D01*
D30*
X128255000Y-44799998D02*
X128255000Y-45745000D01*
D29*
X112350000Y-65043000D02*
X112331000Y-65024000D01*
D30*
X112763000Y-61976000D02*
X112763000Y-61013000D01*
X112630000Y-59800000D02*
X112630000Y-58670000D01*
D29*
X121428333Y-97078333D02*
X120950000Y-96600000D01*
D30*
X128255000Y-45745000D02*
X128250000Y-45750000D01*
X112630000Y-58670000D02*
X112650000Y-58650000D01*
D29*
X121428333Y-97987500D02*
X121428333Y-97078333D01*
X112331000Y-65024000D02*
X112331000Y-62408000D01*
X112350000Y-65950000D02*
X112350000Y-65043000D01*
D30*
X112763000Y-61013000D02*
X112750000Y-61000000D01*
D29*
X114046000Y-65954000D02*
X113600000Y-66400000D01*
%TO.N,LEDBlue*%
X117962500Y-97962500D02*
X117900000Y-97900000D01*
X118988333Y-97962500D02*
X117962500Y-97962500D01*
%TO.N,Net-(D6-A)*%
X118988333Y-99612500D02*
X118988333Y-101320500D01*
%TO.N,TTLEN*%
X112900000Y-67300000D02*
X112950000Y-67250000D01*
X114857199Y-65262001D02*
X114046000Y-65262001D01*
X112950000Y-67250000D02*
X112950000Y-65592648D01*
X112950000Y-65592648D02*
X113280647Y-65262001D01*
X113280647Y-65262001D02*
X114046000Y-65262001D01*
X116789200Y-65762002D02*
X115357200Y-65762002D01*
X115357200Y-65762002D02*
X114857199Y-65262001D01*
%TO.N,TTL_DATA*%
X115500000Y-64700000D02*
X115589000Y-64789000D01*
D30*
X114280000Y-59800000D02*
X115400000Y-59800000D01*
D29*
X124055000Y-96845000D02*
X124100000Y-96800000D01*
X115589000Y-64789000D02*
X116789200Y-64789000D01*
D30*
X115400000Y-59800000D02*
X115450000Y-59850000D01*
D29*
X124055000Y-97975000D02*
X124055000Y-96845000D01*
X116789200Y-64762001D02*
X116789200Y-65262001D01*
%TO.N,SEN10*%
X129826401Y-54620000D02*
X130910000Y-54620000D01*
X124521600Y-60899999D02*
X124521600Y-59924801D01*
X124521600Y-59924801D02*
X129826401Y-54620000D01*
%TO.N,SEN9*%
X126946802Y-61899999D02*
X130910000Y-57936801D01*
X130910000Y-57936801D02*
X130910000Y-57160000D01*
X124521600Y-61899999D02*
X126946802Y-61899999D01*
%TO.N,SEN8*%
X124521600Y-62900000D02*
X126490000Y-62900000D01*
X126490000Y-62900000D02*
X130910000Y-67320000D01*
%TO.N,SEN7*%
X124521600Y-63900001D02*
X125226500Y-63900001D01*
X125226500Y-63900001D02*
X125794099Y-64467600D01*
X125794099Y-69824099D02*
X130910000Y-74940000D01*
X125794099Y-64467600D02*
X125794099Y-69824099D01*
%TO.N,SEN6*%
X124521600Y-64900001D02*
X124521600Y-71091600D01*
X124521600Y-71091600D02*
X130910000Y-77480000D01*
%TO.N,Net-(D7-A)*%
X124055000Y-99625000D02*
X124055000Y-101320500D01*
%TO.N,ESP32_TXD*%
X114050000Y-63650000D02*
X114046000Y-63654000D01*
X114050000Y-63100000D02*
X114050000Y-63650000D01*
X114046000Y-63654000D02*
X114046000Y-64262000D01*
%TO.N,ESP32_RXD*%
X112931000Y-63800000D02*
X112931000Y-64436352D01*
X113234801Y-64740153D02*
X113234801Y-64762001D01*
X110681000Y-63819000D02*
X110681000Y-65024000D01*
X110800000Y-63700000D02*
X110681000Y-63819000D01*
X113234801Y-64762001D02*
X114046000Y-64762001D01*
X112931000Y-64436352D02*
X113234801Y-64740153D01*
%TO.N,/In_6V*%
D33*
X116900000Y-43600000D02*
X117150000Y-43600000D01*
X116890000Y-43590000D02*
X116900000Y-43600000D01*
X117150000Y-43600000D02*
X118600000Y-43600000D01*
X118600000Y-43600000D02*
X119000000Y-44000000D01*
X114390000Y-43590000D02*
X116890000Y-43590000D01*
%TO.N,/gate*%
D30*
X111092500Y-56400000D02*
X111092500Y-54607500D01*
X116797500Y-51500000D02*
X117950000Y-51500000D01*
X111092500Y-54607500D02*
X111100000Y-54600000D01*
X107750000Y-44850000D02*
X107750000Y-43680000D01*
X107750000Y-43680000D02*
X107660000Y-43590000D01*
%TD*%
%TA.AperFunction,Conductor*%
%TO.N,/In_6V*%
G36*
X120773594Y-41419421D02*
G01*
X120784325Y-41426969D01*
X121051167Y-41636631D01*
X122152960Y-42502326D01*
X122193513Y-42559222D01*
X122200348Y-42600502D01*
X122169342Y-48311230D01*
X122149294Y-48378162D01*
X122096242Y-48423629D01*
X122044779Y-48434556D01*
X109871030Y-48379088D01*
X109804081Y-48359098D01*
X109758567Y-48306086D01*
X109747721Y-48249500D01*
X110002601Y-42600502D01*
X110046090Y-41636628D01*
X110068776Y-41570547D01*
X110123589Y-41527218D01*
X110168575Y-41518228D01*
X120706341Y-41400487D01*
X120773594Y-41419421D01*
G37*
%TD.AperFunction*%
%TD*%
M02*
