%TF.GenerationSoftware,KiCad,Pcbnew,10.0.0*%
%TF.CreationDate,2026-04-30T16:17:29+09:00*%
%TF.ProjectId,esp_header_4_layers,6573705f-6865-4616-9465-725f345f6c61,rev?*%
%TF.SameCoordinates,Original*%
%TF.FileFunction,Copper,L4,Bot*%
%TF.FilePolarity,Positive*%
%FSLAX46Y46*%
G04 Gerber Fmt 4.6, Leading zero omitted, Abs format (unit mm)*
G04 Created by KiCad (PCBNEW 10.0.0) date 2026-04-30 16:17:29*
%MOMM*%
%LPD*%
G01*
G04 APERTURE LIST*
G04 Aperture macros list*
%AMRoundRect*
0 Rectangle with rounded corners*
0 $1 Rounding radius*
0 $2 $3 $4 $5 $6 $7 $8 $9 X,Y pos of 4 corners*
0 Add a 4 corners polygon primitive as box body*
4,1,4,$2,$3,$4,$5,$6,$7,$8,$9,$2,$3,0*
0 Add four circle primitives for the rounded corners*
1,1,$1+$1,$2,$3*
1,1,$1+$1,$4,$5*
1,1,$1+$1,$6,$7*
1,1,$1+$1,$8,$9*
0 Add four rect primitives between the rounded corners*
20,1,$1+$1,$2,$3,$4,$5,0*
20,1,$1+$1,$4,$5,$6,$7,0*
20,1,$1+$1,$6,$7,$8,$9,0*
20,1,$1+$1,$8,$9,$2,$3,0*%
G04 Aperture macros list end*
%TA.AperFunction,ComponentPad*%
%ADD10C,1.397000*%
%TD*%
%TA.AperFunction,ComponentPad*%
%ADD11RoundRect,0.250001X-1.099999X-1.099999X1.099999X-1.099999X1.099999X1.099999X-1.099999X1.099999X0*%
%TD*%
%TA.AperFunction,ComponentPad*%
%ADD12C,2.700000*%
%TD*%
%TA.AperFunction,ComponentPad*%
%ADD13R,1.700000X1.700000*%
%TD*%
%TA.AperFunction,ComponentPad*%
%ADD14C,1.700000*%
%TD*%
%TA.AperFunction,ViaPad*%
%ADD15C,0.600000*%
%TD*%
%TA.AperFunction,Conductor*%
%ADD16C,0.200000*%
%TD*%
%TA.AperFunction,Conductor*%
%ADD17C,0.400000*%
%TD*%
G04 APERTURE END LIST*
D10*
%TO.P,J9,3,3_3*%
%TO.N,TTL_DATA*%
X112268000Y-70612000D03*
%TO.P,J9,2,2_2*%
%TO.N,+6V*%
X112268000Y-73112000D03*
%TO.P,J9,1,1_1*%
%TO.N,GND*%
X112268000Y-75612000D03*
%TD*%
D11*
%TO.P,J2,1,Pin_1_1*%
%TO.N,/In_6V*%
X120242500Y-45150000D03*
D12*
%TO.P,J2,2,Pin_2_2*%
%TO.N,GND*%
X124202500Y-45150000D03*
%TD*%
D10*
%TO.P,J8,1,1_1*%
%TO.N,GND*%
X122345500Y-75652000D03*
%TO.P,J8,2,2_2*%
%TO.N,+6V*%
X122345500Y-73152000D03*
%TO.P,J8,3,3_3*%
%TO.N,TTL_DATA*%
X122345500Y-70652000D03*
%TD*%
D13*
%TO.P,U4,1,3V3_1*%
%TO.N,+3V3*%
X130910000Y-49540000D03*
D14*
%TO.P,U4,2,EN_2*%
%TO.N,unconnected-(U4-EN-Pad2)*%
X130910000Y-52080000D03*
%TO.P,U4,3,IO17\u002CA_3*%
%TO.N,SEN10*%
X130910000Y-54620000D03*
%TO.P,U4,4,IO18\u002CA_4*%
%TO.N,SEN9*%
X130910000Y-57160000D03*
%TO.P,U4,5,IO47_5*%
%TO.N,unconnected-(U4-IO47-Pad5)*%
X130910000Y-59700000D03*
%TO.P,U4,6,USB_D-\u002CIO19_6*%
%TO.N,unconnected-(U4-USB_D-\u002CIO19-Pad6)*%
X130910000Y-62240000D03*
%TO.P,U4,7,USB_D+\u002CIO20_7*%
%TO.N,unconnected-(U4-USB_D+\u002CIO20-Pad7)*%
X130910000Y-64780000D03*
%TO.P,U4,8,A\u002CIO9_8*%
%TO.N,SEN8*%
X130910000Y-67320000D03*
%TO.P,U4,9,GND_9*%
%TO.N,GND*%
X130910000Y-69860000D03*
%TO.P,U4,10,VIN_10*%
%TO.N,+6V*%
X130910000Y-72400000D03*
%TO.P,U4,11,A\u002CIO8_11*%
%TO.N,SEN7*%
X130910000Y-74940000D03*
%TO.P,U4,12,A\u002CIO10_12*%
%TO.N,SEN6*%
X130910000Y-77480000D03*
%TO.P,U4,13,A\u002CIO11_13*%
%TO.N,SEN15*%
X130910000Y-80020000D03*
%TO.P,U4,14,A\u002CIO12_14*%
%TO.N,SEN14*%
X130910000Y-82560000D03*
%TO.P,U4,15,A\u002CIO13_15*%
%TO.N,SEN13*%
X130910000Y-85100000D03*
%TO.P,U4,16,A\u002CIO14_16*%
%TO.N,SEN12*%
X130910000Y-87640000D03*
%TO.P,U4,17,IO21_17*%
%TO.N,unconnected-(U4-IO21-Pad17)*%
X130910000Y-90180000D03*
%TO.P,U4,18,A\u002CIO4_18*%
%TO.N,SEN11*%
X130910000Y-92720000D03*
%TO.P,U4,19,A\u002CIO5_19*%
%TO.N,SEN1*%
X130910000Y-95260000D03*
%TO.P,U4,20,GND_20*%
%TO.N,GND*%
X130910000Y-97800000D03*
%TO.P,U4,21,GND_21*%
X108050000Y-49540000D03*
%TO.P,U4,22,IO1\u002CA_22*%
%TO.N,SEN5*%
X108050000Y-52080000D03*
%TO.P,U4,23,IO42_23*%
%TO.N,unconnected-(U4-IO42-Pad23)*%
X108050000Y-54620000D03*
%TO.P,U4,24,IO41_24*%
%TO.N,unconnected-(U4-IO41-Pad24)*%
X108050000Y-57160000D03*
%TO.P,U4,25,IO35_25*%
%TO.N,unconnected-(U4-IO35-Pad25)*%
X108050000Y-59700000D03*
%TO.P,U4,26,ESP32_TXD_26*%
%TO.N,ESP32_TXD*%
X108050000Y-62240000D03*
%TO.P,U4,27,ESP32_RXD_27*%
%TO.N,ESP32_RXD*%
X108050000Y-64780000D03*
%TO.P,U4,28,IO40_28*%
%TO.N,TTLEN*%
X108050000Y-67320000D03*
%TO.P,U4,29,GND_29*%
%TO.N,GND*%
X108050000Y-69860000D03*
%TO.P,U4,30,Vcc_30*%
%TO.N,Vcc*%
X108050000Y-72400000D03*
%TO.P,U4,31,IO39_31*%
%TO.N,unconnected-(U4-IO39-Pad31)*%
X108050000Y-74940000D03*
%TO.P,U4,32,IO38_32*%
%TO.N,LEDBlue*%
X108050000Y-77480000D03*
%TO.P,U4,33,IO37_33*%
%TO.N,unconnected-(U4-IO37-Pad33)*%
X108050000Y-80020000D03*
%TO.P,U4,34,IO36_34*%
%TO.N,unconnected-(U4-IO36-Pad34)*%
X108050000Y-82560000D03*
%TO.P,U4,35,IO2\u002CA_35*%
%TO.N,SEN4*%
X108050000Y-85100000D03*
%TO.P,U4,36,IO0_36*%
%TO.N,unconnected-(U4-IO0-Pad36)*%
X108050000Y-87640000D03*
%TO.P,U4,37,IO48_37*%
%TO.N,unconnected-(U4-IO48-Pad37)*%
X108050000Y-90180000D03*
%TO.P,U4,38,IO7\u002CA_38*%
%TO.N,SEN3*%
X108050000Y-92720000D03*
%TO.P,U4,39,IO6\u002CA_39*%
%TO.N,SEN2*%
X108050000Y-95260000D03*
%TO.P,U4,40,GND_40*%
%TO.N,GND*%
X108050000Y-97800000D03*
%TD*%
D10*
%TO.P,J7,1,1_1*%
%TO.N,GND*%
X117348000Y-75652000D03*
%TO.P,J7,2,2_2*%
%TO.N,+6V*%
X117348000Y-73152000D03*
%TO.P,J7,3,3_3*%
%TO.N,TTL_DATA*%
X117348000Y-70652000D03*
%TD*%
D15*
%TO.N,GND*%
X120725000Y-51450000D03*
X116050000Y-62000000D03*
X116800000Y-63300000D03*
X129750000Y-43850000D03*
X120750000Y-53000000D03*
X119150000Y-62750000D03*
X122800000Y-102900000D03*
X125350000Y-102900000D03*
X128250000Y-42700000D03*
X120250000Y-102900000D03*
X117650000Y-102850000D03*
%TO.N,+6V*%
X116000000Y-79500000D03*
X115500000Y-81500000D03*
X114350000Y-56400000D03*
X127850000Y-97950000D03*
X115600000Y-58250000D03*
X115650000Y-54250000D03*
X116950000Y-56400000D03*
%TO.N,+3V3*%
X112750000Y-61000000D03*
X120950000Y-96600000D03*
X112350000Y-65950000D03*
X113600000Y-66400000D03*
X128250000Y-45750000D03*
X112650000Y-58650000D03*
%TO.N,LEDBlue*%
X117900000Y-97900000D03*
%TO.N,TTLEN*%
X112900000Y-67300000D03*
%TO.N,TTL_DATA*%
X115500000Y-64700000D03*
X124100000Y-96800000D03*
X115450000Y-59850000D03*
%TO.N,ESP32_TXD*%
X114050000Y-63100000D03*
%TO.N,ESP32_RXD*%
X112931000Y-63800000D03*
X110800000Y-63700000D03*
%TO.N,/In_6V*%
X113372500Y-50100000D03*
X117000000Y-46800000D03*
X113000000Y-46200000D03*
X112050000Y-42400000D03*
X117150000Y-43600000D03*
X110750000Y-46650000D03*
%TO.N,/gate*%
X107750000Y-44850000D03*
X111100000Y-54600000D03*
X116797500Y-51500000D03*
%TD*%
%TO.N,+3V3*%
D16*
X113600000Y-95700000D02*
X113600000Y-80650000D01*
D17*
X128250000Y-46880000D02*
X130910000Y-49540000D01*
D16*
X120950000Y-96600000D02*
X114500000Y-96600000D01*
D17*
X127110000Y-49540000D02*
X130910000Y-49540000D01*
D16*
X114500000Y-96600000D02*
X113600000Y-95700000D01*
X113600000Y-67448529D02*
X113600000Y-66400000D01*
D17*
X112650000Y-58650000D02*
X113000000Y-59000000D01*
D16*
X113600000Y-66400000D02*
X112800000Y-66400000D01*
D17*
X128250000Y-45750000D02*
X128250000Y-46880000D01*
X117650000Y-59000000D02*
X127110000Y-49540000D01*
X112750000Y-61000000D02*
X112750000Y-58750000D01*
D16*
X110450000Y-70598529D02*
X113600000Y-67448529D01*
X113600000Y-80650000D02*
X110450000Y-77500000D01*
D17*
X113000000Y-59000000D02*
X117650000Y-59000000D01*
D16*
X110450000Y-77500000D02*
X110450000Y-70598529D01*
X112800000Y-66400000D02*
X112350000Y-65950000D01*
D17*
X112750000Y-58750000D02*
X112650000Y-58650000D01*
%TO.N,LEDBlue*%
D16*
X112050000Y-81480000D02*
X108050000Y-77480000D01*
X114000000Y-97900000D02*
X112050000Y-95950000D01*
X112050000Y-95950000D02*
X112050000Y-81480000D01*
X117900000Y-97900000D02*
X114000000Y-97900000D01*
%TO.N,TTLEN*%
X112900000Y-67300000D02*
X112100000Y-67300000D01*
X112080000Y-67320000D02*
X108050000Y-67320000D01*
X112100000Y-67300000D02*
X112080000Y-67320000D01*
%TO.N,TTL_DATA*%
X124100000Y-72406500D02*
X122345500Y-70652000D01*
X117348000Y-70652000D02*
X122345500Y-70652000D01*
X117348000Y-70652000D02*
X112308000Y-70652000D01*
X115500000Y-68804000D02*
X115500000Y-64700000D01*
X124100000Y-96800000D02*
X124100000Y-72406500D01*
D17*
X115450000Y-64650000D02*
X115500000Y-64700000D01*
D16*
X112308000Y-70652000D02*
X112268000Y-70612000D01*
X115450000Y-59850000D02*
X115450000Y-64650000D01*
X117348000Y-70652000D02*
X115500000Y-68804000D01*
%TO.N,ESP32_TXD*%
X108910000Y-63100000D02*
X108050000Y-62240000D01*
X114050000Y-63100000D02*
X108910000Y-63100000D01*
%TO.N,ESP32_RXD*%
X112831000Y-63700000D02*
X112931000Y-63800000D01*
X110800000Y-63700000D02*
X109720000Y-64780000D01*
X109720000Y-64780000D02*
X108050000Y-64780000D01*
X110800000Y-63700000D02*
X112831000Y-63700000D01*
%TO.N,/gate*%
D17*
X114297500Y-49000000D02*
X111900000Y-49000000D01*
X116797500Y-51500000D02*
X114297500Y-49000000D01*
X114150000Y-51500000D02*
X116725000Y-51500000D01*
X111125000Y-54525000D02*
X114150000Y-51500000D01*
X111900000Y-49000000D02*
X107750000Y-44850000D01*
X116700000Y-51402500D02*
X116797500Y-51500000D01*
%TD*%
M02*
