%TF.GenerationSoftware,KiCad,Pcbnew,10.0.0*%
%TF.CreationDate,2026-04-30T16:17:29+09:00*%
%TF.ProjectId,esp_header_4_layers,6573705f-6865-4616-9465-725f345f6c61,rev?*%
%TF.SameCoordinates,Original*%
%TF.FileFunction,Copper,L3,Inr*%
%TF.FilePolarity,Positive*%
%FSLAX46Y46*%
G04 Gerber Fmt 4.6, Leading zero omitted, Abs format (unit mm)*
G04 Created by KiCad (PCBNEW 10.0.0) date 2026-04-30 16:17:29*
%MOMM*%
%LPD*%
G01*
G04 APERTURE LIST*
G04 Aperture macros list*
%AMRoundRect*
0 Rectangle with rounded corners*
0 $1 Rounding radius*
0 $2 $3 $4 $5 $6 $7 $8 $9 X,Y pos of 4 corners*
0 Add a 4 corners polygon primitive as box body*
4,1,4,$2,$3,$4,$5,$6,$7,$8,$9,$2,$3,0*
0 Add four circle primitives for the rounded corners*
1,1,$1+$1,$2,$3*
1,1,$1+$1,$4,$5*
1,1,$1+$1,$6,$7*
1,1,$1+$1,$8,$9*
0 Add four rect primitives between the rounded corners*
20,1,$1+$1,$2,$3,$4,$5,0*
20,1,$1+$1,$4,$5,$6,$7,0*
20,1,$1+$1,$6,$7,$8,$9,0*
20,1,$1+$1,$8,$9,$2,$3,0*%
G04 Aperture macros list end*
%TA.AperFunction,ComponentPad*%
%ADD10C,1.397000*%
%TD*%
%TA.AperFunction,ComponentPad*%
%ADD11RoundRect,0.250001X-1.099999X-1.099999X1.099999X-1.099999X1.099999X1.099999X-1.099999X1.099999X0*%
%TD*%
%TA.AperFunction,ComponentPad*%
%ADD12C,2.700000*%
%TD*%
%TA.AperFunction,ComponentPad*%
%ADD13R,1.700000X1.700000*%
%TD*%
%TA.AperFunction,ComponentPad*%
%ADD14C,1.700000*%
%TD*%
%TA.AperFunction,ViaPad*%
%ADD15C,0.600000*%
%TD*%
G04 APERTURE END LIST*
D10*
%TO.N,TTL_DATA*%
%TO.C,J9*%
X112268000Y-70612000D03*
%TO.N,+6V*%
X112268000Y-73112000D03*
%TO.N,GND*%
X112268000Y-75612000D03*
%TD*%
D11*
%TO.N,/In_6V*%
%TO.C,J2*%
X120242500Y-45150000D03*
D12*
%TO.N,GND*%
X124202500Y-45150000D03*
%TD*%
D10*
%TO.N,GND*%
%TO.C,J8*%
X122345500Y-75652000D03*
%TO.N,+6V*%
X122345500Y-73152000D03*
%TO.N,TTL_DATA*%
X122345500Y-70652000D03*
%TD*%
D13*
%TO.N,+3V3*%
%TO.C,U4*%
X130910000Y-49540000D03*
D14*
%TO.N,unconnected-(U4-EN-Pad2)*%
X130910000Y-52080000D03*
%TO.N,SEN10*%
X130910000Y-54620000D03*
%TO.N,SEN9*%
X130910000Y-57160000D03*
%TO.N,unconnected-(U4-IO47-Pad5)*%
X130910000Y-59700000D03*
%TO.N,unconnected-(U4-USB_D-\u002CIO19-Pad6)*%
X130910000Y-62240000D03*
%TO.N,unconnected-(U4-USB_D+\u002CIO20-Pad7)*%
X130910000Y-64780000D03*
%TO.N,SEN8*%
X130910000Y-67320000D03*
%TO.N,GND*%
X130910000Y-69860000D03*
%TO.N,+6V*%
X130910000Y-72400000D03*
%TO.N,SEN7*%
X130910000Y-74940000D03*
%TO.N,SEN6*%
X130910000Y-77480000D03*
%TO.N,SEN15*%
X130910000Y-80020000D03*
%TO.N,SEN14*%
X130910000Y-82560000D03*
%TO.N,SEN13*%
X130910000Y-85100000D03*
%TO.N,SEN12*%
X130910000Y-87640000D03*
%TO.N,unconnected-(U4-IO21-Pad17)*%
X130910000Y-90180000D03*
%TO.N,SEN11*%
X130910000Y-92720000D03*
%TO.N,SEN1*%
X130910000Y-95260000D03*
%TO.N,GND*%
X130910000Y-97800000D03*
X108050000Y-49540000D03*
%TO.N,SEN5*%
X108050000Y-52080000D03*
%TO.N,unconnected-(U4-IO42-Pad23)*%
X108050000Y-54620000D03*
%TO.N,unconnected-(U4-IO41-Pad24)*%
X108050000Y-57160000D03*
%TO.N,unconnected-(U4-IO35-Pad25)*%
X108050000Y-59700000D03*
%TO.N,ESP32_TXD*%
X108050000Y-62240000D03*
%TO.N,ESP32_RXD*%
X108050000Y-64780000D03*
%TO.N,TTLEN*%
X108050000Y-67320000D03*
%TO.N,GND*%
X108050000Y-69860000D03*
%TO.N,Vcc*%
X108050000Y-72400000D03*
%TO.N,unconnected-(U4-IO39-Pad31)*%
X108050000Y-74940000D03*
%TO.N,LEDBlue*%
X108050000Y-77480000D03*
%TO.N,unconnected-(U4-IO37-Pad33)*%
X108050000Y-80020000D03*
%TO.N,unconnected-(U4-IO36-Pad34)*%
X108050000Y-82560000D03*
%TO.N,SEN4*%
X108050000Y-85100000D03*
%TO.N,unconnected-(U4-IO0-Pad36)*%
X108050000Y-87640000D03*
%TO.N,unconnected-(U4-IO48-Pad37)*%
X108050000Y-90180000D03*
%TO.N,SEN3*%
X108050000Y-92720000D03*
%TO.N,SEN2*%
X108050000Y-95260000D03*
%TO.N,GND*%
X108050000Y-97800000D03*
%TD*%
D10*
%TO.N,GND*%
%TO.C,J7*%
X117348000Y-75652000D03*
%TO.N,+6V*%
X117348000Y-73152000D03*
%TO.N,TTL_DATA*%
X117348000Y-70652000D03*
%TD*%
D15*
%TO.N,GND*%
X120725000Y-51450000D03*
X116050000Y-62000000D03*
X116800000Y-63300000D03*
X129750000Y-43850000D03*
X120750000Y-53000000D03*
X119150000Y-62750000D03*
X122800000Y-102900000D03*
X125350000Y-102900000D03*
X128250000Y-42700000D03*
X120250000Y-102900000D03*
X117650000Y-102850000D03*
%TO.N,+6V*%
X116000000Y-79500000D03*
X115500000Y-81500000D03*
X114350000Y-56400000D03*
X127850000Y-97950000D03*
X115600000Y-58250000D03*
X115650000Y-54250000D03*
X116950000Y-56400000D03*
%TO.N,+3V3*%
X112750000Y-61000000D03*
X120950000Y-96600000D03*
X112350000Y-65950000D03*
X113600000Y-66400000D03*
X128250000Y-45750000D03*
X112650000Y-58650000D03*
%TO.N,LEDBlue*%
X117900000Y-97900000D03*
%TO.N,TTLEN*%
X112900000Y-67300000D03*
%TO.N,TTL_DATA*%
X115500000Y-64700000D03*
X124100000Y-96800000D03*
X115450000Y-59850000D03*
%TO.N,ESP32_TXD*%
X114050000Y-63100000D03*
%TO.N,ESP32_RXD*%
X112931000Y-63800000D03*
X110800000Y-63700000D03*
%TO.N,/In_6V*%
X113372500Y-50100000D03*
X117000000Y-46800000D03*
X113000000Y-46200000D03*
X112050000Y-42400000D03*
X117150000Y-43600000D03*
X110750000Y-46650000D03*
%TO.N,/gate*%
X107750000Y-44850000D03*
X111100000Y-54600000D03*
X116797500Y-51500000D03*
%TD*%
%TA.AperFunction,Conductor*%
%TO.N,/In_6V*%
G36*
X132391276Y-41140987D02*
G01*
X132401844Y-41141926D01*
X132423726Y-41143871D01*
X132446851Y-41148167D01*
X132524124Y-41170277D01*
X132547419Y-41179581D01*
X132615107Y-41214939D01*
X132615111Y-41214941D01*
X132636060Y-41228748D01*
X132695246Y-41277008D01*
X132712987Y-41294749D01*
X132761253Y-41353942D01*
X132775059Y-41374891D01*
X132810413Y-41442572D01*
X132819721Y-41465873D01*
X132841830Y-41543142D01*
X132846127Y-41566269D01*
X132849013Y-41598722D01*
X132849500Y-41609706D01*
X132849500Y-53976000D01*
X132829815Y-54043039D01*
X132777011Y-54088794D01*
X132725500Y-54100000D01*
X132236736Y-54100000D01*
X132169697Y-54080315D01*
X132126251Y-54032295D01*
X132097567Y-53976000D01*
X132065051Y-53912184D01*
X132034994Y-53870814D01*
X131940109Y-53740213D01*
X131789786Y-53589890D01*
X131617820Y-53464951D01*
X131617115Y-53464591D01*
X131609054Y-53460485D01*
X131558259Y-53412512D01*
X131541463Y-53344692D01*
X131563999Y-53278556D01*
X131609054Y-53239515D01*
X131617816Y-53235051D01*
X131639789Y-53219086D01*
X131789786Y-53110109D01*
X131789788Y-53110106D01*
X131789792Y-53110104D01*
X131940104Y-52959792D01*
X131940106Y-52959788D01*
X131940109Y-52959786D01*
X132065048Y-52787820D01*
X132065047Y-52787820D01*
X132065051Y-52787816D01*
X132161557Y-52598412D01*
X132227246Y-52396243D01*
X132260500Y-52186287D01*
X132260500Y-51973713D01*
X132227246Y-51763757D01*
X132161557Y-51561588D01*
X132065051Y-51372184D01*
X132065049Y-51372181D01*
X132065048Y-51372179D01*
X131940109Y-51200213D01*
X131826569Y-51086673D01*
X131793084Y-51025350D01*
X131798068Y-50955658D01*
X131839940Y-50899725D01*
X131870915Y-50882810D01*
X132002331Y-50833796D01*
X132117546Y-50747546D01*
X132203796Y-50632331D01*
X132254091Y-50497483D01*
X132260500Y-50437873D01*
X132260499Y-48642128D01*
X132254091Y-48582517D01*
X132203796Y-48447669D01*
X132203795Y-48447668D01*
X132203793Y-48447664D01*
X132117547Y-48332455D01*
X132117544Y-48332452D01*
X132002335Y-48246206D01*
X132002328Y-48246202D01*
X131867482Y-48195908D01*
X131867483Y-48195908D01*
X131807883Y-48189501D01*
X131807881Y-48189500D01*
X131807873Y-48189500D01*
X131807864Y-48189500D01*
X130012129Y-48189500D01*
X130012123Y-48189501D01*
X129952516Y-48195908D01*
X129817671Y-48246202D01*
X129817664Y-48246206D01*
X129702455Y-48332452D01*
X129702452Y-48332455D01*
X129616206Y-48447664D01*
X129616202Y-48447671D01*
X129565908Y-48582517D01*
X129559501Y-48642116D01*
X129559501Y-48642123D01*
X129559500Y-48642135D01*
X129559500Y-50437870D01*
X129559501Y-50437876D01*
X129565908Y-50497483D01*
X129616202Y-50632328D01*
X129616206Y-50632335D01*
X129702452Y-50747544D01*
X129702455Y-50747547D01*
X129817664Y-50833793D01*
X129817671Y-50833797D01*
X129949082Y-50882810D01*
X130005016Y-50924681D01*
X130029433Y-50990145D01*
X130014582Y-51058418D01*
X129993431Y-51086673D01*
X129879889Y-51200215D01*
X129754951Y-51372179D01*
X129658444Y-51561585D01*
X129592753Y-51763760D01*
X129559500Y-51973713D01*
X129559500Y-52186286D01*
X129577589Y-52300499D01*
X129592754Y-52396243D01*
X129623122Y-52489707D01*
X129658444Y-52598414D01*
X129754951Y-52787820D01*
X129879890Y-52959786D01*
X130030213Y-53110109D01*
X130202182Y-53235050D01*
X130210946Y-53239516D01*
X130261742Y-53287491D01*
X130278536Y-53355312D01*
X130255998Y-53421447D01*
X130210946Y-53460484D01*
X130202182Y-53464949D01*
X130030213Y-53589890D01*
X129879890Y-53740213D01*
X129754951Y-53912180D01*
X129693749Y-54032295D01*
X129645774Y-54083091D01*
X129583264Y-54100000D01*
X116537030Y-54100000D01*
X116469991Y-54080315D01*
X116424236Y-54027511D01*
X116422183Y-54022082D01*
X116422068Y-54022130D01*
X116359397Y-53870827D01*
X116359390Y-53870814D01*
X116271789Y-53739711D01*
X116271786Y-53739707D01*
X116160292Y-53628213D01*
X116160288Y-53628210D01*
X116029185Y-53540609D01*
X116029172Y-53540602D01*
X115883501Y-53480264D01*
X115883489Y-53480261D01*
X115728845Y-53449500D01*
X115728842Y-53449500D01*
X115571158Y-53449500D01*
X115571155Y-53449500D01*
X115416510Y-53480261D01*
X115416498Y-53480264D01*
X115270827Y-53540602D01*
X115270814Y-53540609D01*
X115139711Y-53628210D01*
X115139707Y-53628213D01*
X115028213Y-53739707D01*
X115028210Y-53739711D01*
X114940609Y-53870814D01*
X114940602Y-53870827D01*
X114877932Y-54022130D01*
X114875616Y-54021170D01*
X114843335Y-54070433D01*
X114779523Y-54098890D01*
X114762970Y-54100000D01*
X111783441Y-54100000D01*
X111716402Y-54080315D01*
X111695760Y-54063681D01*
X111610292Y-53978213D01*
X111610288Y-53978210D01*
X111479185Y-53890609D01*
X111479172Y-53890602D01*
X111333501Y-53830264D01*
X111333489Y-53830261D01*
X111178845Y-53799500D01*
X111178842Y-53799500D01*
X111021158Y-53799500D01*
X111021155Y-53799500D01*
X110866510Y-53830261D01*
X110866498Y-53830264D01*
X110720827Y-53890602D01*
X110720814Y-53890609D01*
X110589711Y-53978210D01*
X110589707Y-53978213D01*
X110504240Y-54063681D01*
X110442917Y-54097166D01*
X110416559Y-54100000D01*
X109376736Y-54100000D01*
X109309697Y-54080315D01*
X109266251Y-54032295D01*
X109237567Y-53976000D01*
X109205051Y-53912184D01*
X109174994Y-53870814D01*
X109080109Y-53740213D01*
X108929786Y-53589890D01*
X108757820Y-53464951D01*
X108757115Y-53464591D01*
X108749054Y-53460485D01*
X108698259Y-53412512D01*
X108681463Y-53344692D01*
X108703999Y-53278556D01*
X108749054Y-53239515D01*
X108757816Y-53235051D01*
X108779789Y-53219086D01*
X108929786Y-53110109D01*
X108929788Y-53110106D01*
X108929792Y-53110104D01*
X109080104Y-52959792D01*
X109080106Y-52959788D01*
X109080109Y-52959786D01*
X109205048Y-52787820D01*
X109205047Y-52787820D01*
X109205051Y-52787816D01*
X109301557Y-52598412D01*
X109367246Y-52396243D01*
X109400500Y-52186287D01*
X109400500Y-51973713D01*
X109367246Y-51763757D01*
X109301557Y-51561588D01*
X109230002Y-51421153D01*
X115997000Y-51421153D01*
X115997000Y-51578846D01*
X116027761Y-51733489D01*
X116027764Y-51733501D01*
X116088102Y-51879172D01*
X116088109Y-51879185D01*
X116175710Y-52010288D01*
X116175713Y-52010292D01*
X116287207Y-52121786D01*
X116287211Y-52121789D01*
X116418314Y-52209390D01*
X116418327Y-52209397D01*
X116524047Y-52253187D01*
X116564003Y-52269737D01*
X116668918Y-52290606D01*
X116718653Y-52300499D01*
X116718656Y-52300500D01*
X116718658Y-52300500D01*
X116876344Y-52300500D01*
X116876345Y-52300499D01*
X117030997Y-52269737D01*
X117176679Y-52209394D01*
X117307789Y-52121789D01*
X117419289Y-52010289D01*
X117506894Y-51879179D01*
X117567237Y-51733497D01*
X117598000Y-51578842D01*
X117598000Y-51421158D01*
X117598000Y-51421155D01*
X117591655Y-51389258D01*
X117591655Y-51389257D01*
X117588054Y-51371153D01*
X119924500Y-51371153D01*
X119924500Y-51528846D01*
X119955261Y-51683489D01*
X119955264Y-51683501D01*
X120015602Y-51829172D01*
X120015609Y-51829185D01*
X120103210Y-51960288D01*
X120103213Y-51960292D01*
X120214707Y-52071786D01*
X120214711Y-52071789D01*
X120302203Y-52130250D01*
X120347008Y-52183862D01*
X120355715Y-52253187D01*
X120325560Y-52316215D01*
X120302204Y-52336454D01*
X120239707Y-52378213D01*
X120128213Y-52489707D01*
X120128210Y-52489711D01*
X120040609Y-52620814D01*
X120040602Y-52620827D01*
X119980264Y-52766498D01*
X119980261Y-52766510D01*
X119949500Y-52921153D01*
X119949500Y-53078846D01*
X119980261Y-53233489D01*
X119980264Y-53233501D01*
X120040602Y-53379172D01*
X120040609Y-53379185D01*
X120128210Y-53510288D01*
X120128213Y-53510292D01*
X120239707Y-53621786D01*
X120239711Y-53621789D01*
X120370814Y-53709390D01*
X120370827Y-53709397D01*
X120445225Y-53740213D01*
X120516503Y-53769737D01*
X120666131Y-53799500D01*
X120671153Y-53800499D01*
X120671156Y-53800500D01*
X120671158Y-53800500D01*
X120828844Y-53800500D01*
X120828845Y-53800499D01*
X120983497Y-53769737D01*
X121129179Y-53709394D01*
X121260289Y-53621789D01*
X121371789Y-53510289D01*
X121459394Y-53379179D01*
X121519737Y-53233497D01*
X121550500Y-53078842D01*
X121550500Y-52921158D01*
X121550500Y-52921155D01*
X121550499Y-52921153D01*
X121519738Y-52766510D01*
X121519737Y-52766503D01*
X121519735Y-52766498D01*
X121459397Y-52620827D01*
X121459390Y-52620814D01*
X121371789Y-52489711D01*
X121371786Y-52489707D01*
X121260292Y-52378213D01*
X121260288Y-52378210D01*
X121172796Y-52319749D01*
X121127991Y-52266136D01*
X121119284Y-52196811D01*
X121149439Y-52133784D01*
X121172792Y-52113547D01*
X121235289Y-52071789D01*
X121346789Y-51960289D01*
X121434394Y-51829179D01*
X121494737Y-51683497D01*
X121525500Y-51528842D01*
X121525500Y-51371158D01*
X121525500Y-51371155D01*
X121525499Y-51371153D01*
X121504684Y-51266510D01*
X121494737Y-51216503D01*
X121487990Y-51200213D01*
X121434397Y-51070827D01*
X121434390Y-51070814D01*
X121346789Y-50939711D01*
X121346786Y-50939707D01*
X121235292Y-50828213D01*
X121235288Y-50828210D01*
X121104185Y-50740609D01*
X121104172Y-50740602D01*
X120958501Y-50680264D01*
X120958489Y-50680261D01*
X120803845Y-50649500D01*
X120803842Y-50649500D01*
X120646158Y-50649500D01*
X120646155Y-50649500D01*
X120491510Y-50680261D01*
X120491498Y-50680264D01*
X120345827Y-50740602D01*
X120345814Y-50740609D01*
X120214711Y-50828210D01*
X120214707Y-50828213D01*
X120103213Y-50939707D01*
X120103210Y-50939711D01*
X120015609Y-51070814D01*
X120015602Y-51070827D01*
X119955264Y-51216498D01*
X119955261Y-51216510D01*
X119924500Y-51371153D01*
X117588054Y-51371153D01*
X117567238Y-51266510D01*
X117567237Y-51266503D01*
X117567235Y-51266498D01*
X117506897Y-51120827D01*
X117506890Y-51120814D01*
X117419289Y-50989711D01*
X117419286Y-50989707D01*
X117307792Y-50878213D01*
X117307788Y-50878210D01*
X117176685Y-50790609D01*
X117176672Y-50790602D01*
X117031001Y-50730264D01*
X117030989Y-50730261D01*
X116876345Y-50699500D01*
X116876342Y-50699500D01*
X116718658Y-50699500D01*
X116718655Y-50699500D01*
X116564010Y-50730261D01*
X116563998Y-50730264D01*
X116418327Y-50790602D01*
X116418314Y-50790609D01*
X116287211Y-50878210D01*
X116287207Y-50878213D01*
X116175713Y-50989707D01*
X116175710Y-50989711D01*
X116088109Y-51120814D01*
X116088102Y-51120827D01*
X116027764Y-51266498D01*
X116027761Y-51266510D01*
X115997000Y-51421153D01*
X109230002Y-51421153D01*
X109205051Y-51372184D01*
X109205049Y-51372181D01*
X109205048Y-51372179D01*
X109080109Y-51200213D01*
X108929786Y-51049890D01*
X108757820Y-50924951D01*
X108757115Y-50924591D01*
X108749054Y-50920485D01*
X108698259Y-50872512D01*
X108681463Y-50804692D01*
X108703999Y-50738556D01*
X108749054Y-50699515D01*
X108757816Y-50695051D01*
X108844138Y-50632335D01*
X108929786Y-50570109D01*
X108929788Y-50570106D01*
X108929792Y-50570104D01*
X109080104Y-50419792D01*
X109080106Y-50419788D01*
X109080109Y-50419786D01*
X109205048Y-50247820D01*
X109205047Y-50247820D01*
X109205051Y-50247816D01*
X109301557Y-50058412D01*
X109367246Y-49856243D01*
X109400500Y-49646287D01*
X109400500Y-49433713D01*
X109367246Y-49223757D01*
X109301557Y-49021588D01*
X109205051Y-48832184D01*
X109205049Y-48832181D01*
X109205048Y-48832179D01*
X109080109Y-48660213D01*
X108929786Y-48509890D01*
X108757820Y-48384951D01*
X108568414Y-48288444D01*
X108568413Y-48288443D01*
X108568412Y-48288443D01*
X108366243Y-48222754D01*
X108366241Y-48222753D01*
X108366240Y-48222753D01*
X108204957Y-48197208D01*
X108156287Y-48189500D01*
X107943713Y-48189500D01*
X107895042Y-48197208D01*
X107733760Y-48222753D01*
X107531585Y-48288444D01*
X107342179Y-48384951D01*
X107170213Y-48509890D01*
X107019890Y-48660213D01*
X106894951Y-48832179D01*
X106798444Y-49021585D01*
X106732753Y-49223760D01*
X106699500Y-49433713D01*
X106699500Y-49646286D01*
X106732753Y-49856239D01*
X106798444Y-50058414D01*
X106894951Y-50247820D01*
X107019890Y-50419786D01*
X107170213Y-50570109D01*
X107342182Y-50695050D01*
X107350946Y-50699516D01*
X107401742Y-50747491D01*
X107418536Y-50815312D01*
X107395998Y-50881447D01*
X107350946Y-50920484D01*
X107342182Y-50924949D01*
X107170213Y-51049890D01*
X107019890Y-51200213D01*
X106894951Y-51372179D01*
X106798444Y-51561585D01*
X106732753Y-51763760D01*
X106699500Y-51973713D01*
X106699500Y-52186286D01*
X106717589Y-52300499D01*
X106732754Y-52396243D01*
X106763122Y-52489707D01*
X106798444Y-52598414D01*
X106894951Y-52787820D01*
X107019890Y-52959786D01*
X107170213Y-53110109D01*
X107342182Y-53235050D01*
X107350946Y-53239516D01*
X107401742Y-53287491D01*
X107418536Y-53355312D01*
X107395998Y-53421447D01*
X107350946Y-53460484D01*
X107342182Y-53464949D01*
X107170213Y-53589890D01*
X107019890Y-53740213D01*
X106894951Y-53912180D01*
X106833749Y-54032295D01*
X106785774Y-54083091D01*
X106723264Y-54100000D01*
X106274500Y-54100000D01*
X106207461Y-54080315D01*
X106161706Y-54027511D01*
X106150500Y-53976000D01*
X106150500Y-44771153D01*
X106949500Y-44771153D01*
X106949500Y-44928846D01*
X106980261Y-45083489D01*
X106980264Y-45083501D01*
X107040602Y-45229172D01*
X107040609Y-45229185D01*
X107128210Y-45360288D01*
X107128213Y-45360292D01*
X107239707Y-45471786D01*
X107239711Y-45471789D01*
X107370814Y-45559390D01*
X107370827Y-45559397D01*
X107516498Y-45619735D01*
X107516503Y-45619737D01*
X107671153Y-45650499D01*
X107671156Y-45650500D01*
X107671158Y-45650500D01*
X107828844Y-45650500D01*
X107828845Y-45650499D01*
X107983497Y-45619737D01*
X108129179Y-45559394D01*
X108260289Y-45471789D01*
X108371789Y-45360289D01*
X108452360Y-45239707D01*
X108459390Y-45229185D01*
X108459390Y-45229184D01*
X108459394Y-45229179D01*
X108519737Y-45083497D01*
X108536254Y-45000461D01*
X108550500Y-44928844D01*
X108550500Y-44771155D01*
X108550499Y-44771153D01*
X108519738Y-44616510D01*
X108519737Y-44616503D01*
X108459794Y-44471786D01*
X108459397Y-44470827D01*
X108459390Y-44470814D01*
X108371789Y-44339711D01*
X108371786Y-44339707D01*
X108260292Y-44228213D01*
X108260288Y-44228210D01*
X108129185Y-44140609D01*
X108129172Y-44140602D01*
X108058733Y-44111426D01*
X107983501Y-44080264D01*
X107983489Y-44080261D01*
X107828845Y-44049500D01*
X107828842Y-44049500D01*
X107671158Y-44049500D01*
X107671155Y-44049500D01*
X107516510Y-44080261D01*
X107516498Y-44080264D01*
X107370827Y-44140602D01*
X107370814Y-44140609D01*
X107239711Y-44228210D01*
X107239707Y-44228213D01*
X107128213Y-44339707D01*
X107128210Y-44339711D01*
X107040609Y-44470814D01*
X107040602Y-44470827D01*
X106980264Y-44616498D01*
X106980261Y-44616510D01*
X106949500Y-44771153D01*
X106150500Y-44771153D01*
X106150500Y-44000014D01*
X118392500Y-44000014D01*
X118392500Y-44900000D01*
X119426020Y-44900000D01*
X119425165Y-44902064D01*
X119392500Y-45066282D01*
X119392500Y-45233718D01*
X119425165Y-45397936D01*
X119426020Y-45400000D01*
X118392500Y-45400000D01*
X118392500Y-46299985D01*
X118402993Y-46402689D01*
X118402994Y-46402696D01*
X118458141Y-46569118D01*
X118458143Y-46569123D01*
X118550184Y-46718344D01*
X118674155Y-46842315D01*
X118823376Y-46934356D01*
X118823381Y-46934358D01*
X118989803Y-46989505D01*
X118989810Y-46989506D01*
X119092514Y-46999999D01*
X119092527Y-47000000D01*
X119992500Y-47000000D01*
X119992500Y-45966480D01*
X119994564Y-45967335D01*
X120158782Y-46000000D01*
X120326218Y-46000000D01*
X120490436Y-45967335D01*
X120492500Y-45966480D01*
X120492500Y-47000000D01*
X121392473Y-47000000D01*
X121392485Y-46999999D01*
X121495189Y-46989506D01*
X121495196Y-46989505D01*
X121661618Y-46934358D01*
X121661623Y-46934356D01*
X121810844Y-46842315D01*
X121934815Y-46718344D01*
X122026856Y-46569123D01*
X122026858Y-46569118D01*
X122082005Y-46402696D01*
X122082006Y-46402689D01*
X122092499Y-46299985D01*
X122092500Y-46299972D01*
X122092500Y-45400000D01*
X121058980Y-45400000D01*
X121059835Y-45397936D01*
X121092500Y-45233718D01*
X121092500Y-45066282D01*
X121085027Y-45028711D01*
X122352000Y-45028711D01*
X122352000Y-45271288D01*
X122383661Y-45511785D01*
X122446447Y-45746104D01*
X122538084Y-45967335D01*
X122539276Y-45970212D01*
X122660564Y-46180289D01*
X122660566Y-46180292D01*
X122660567Y-46180293D01*
X122808233Y-46372736D01*
X122808239Y-46372743D01*
X122979756Y-46544260D01*
X122979763Y-46544266D01*
X123092821Y-46631018D01*
X123172211Y-46691936D01*
X123382288Y-46813224D01*
X123606400Y-46906054D01*
X123840711Y-46968838D01*
X123997703Y-46989506D01*
X124081211Y-47000500D01*
X124081212Y-47000500D01*
X124323789Y-47000500D01*
X124371888Y-46994167D01*
X124564289Y-46968838D01*
X124798600Y-46906054D01*
X125022712Y-46813224D01*
X125232789Y-46691936D01*
X125425238Y-46544265D01*
X125596765Y-46372738D01*
X125744436Y-46180289D01*
X125865724Y-45970212D01*
X125958554Y-45746100D01*
X125978636Y-45671153D01*
X127449500Y-45671153D01*
X127449500Y-45828846D01*
X127480261Y-45983489D01*
X127480264Y-45983501D01*
X127540602Y-46129172D01*
X127540609Y-46129185D01*
X127628210Y-46260288D01*
X127628213Y-46260292D01*
X127739707Y-46371786D01*
X127739711Y-46371789D01*
X127870814Y-46459390D01*
X127870827Y-46459397D01*
X128016498Y-46519735D01*
X128016503Y-46519737D01*
X128139788Y-46544260D01*
X128171153Y-46550499D01*
X128171156Y-46550500D01*
X128171158Y-46550500D01*
X128328844Y-46550500D01*
X128328845Y-46550499D01*
X128483497Y-46519737D01*
X128629179Y-46459394D01*
X128760289Y-46371789D01*
X128871789Y-46260289D01*
X128959394Y-46129179D01*
X129019737Y-45983497D01*
X129050500Y-45828842D01*
X129050500Y-45671158D01*
X129050500Y-45671155D01*
X129050499Y-45671153D01*
X129028269Y-45559397D01*
X129019737Y-45516503D01*
X129001215Y-45471786D01*
X128959397Y-45370827D01*
X128959390Y-45370814D01*
X128871789Y-45239711D01*
X128871786Y-45239707D01*
X128760292Y-45128213D01*
X128760288Y-45128210D01*
X128629185Y-45040609D01*
X128629172Y-45040602D01*
X128483501Y-44980264D01*
X128483489Y-44980261D01*
X128328845Y-44949500D01*
X128328842Y-44949500D01*
X128171158Y-44949500D01*
X128171155Y-44949500D01*
X128016510Y-44980261D01*
X128016498Y-44980264D01*
X127870827Y-45040602D01*
X127870814Y-45040609D01*
X127739711Y-45128210D01*
X127739707Y-45128213D01*
X127628213Y-45239707D01*
X127628210Y-45239711D01*
X127540609Y-45370814D01*
X127540602Y-45370827D01*
X127480264Y-45516498D01*
X127480261Y-45516510D01*
X127449500Y-45671153D01*
X125978636Y-45671153D01*
X126021338Y-45511789D01*
X126053000Y-45271288D01*
X126053000Y-45028712D01*
X126021338Y-44788211D01*
X125958554Y-44553900D01*
X125865724Y-44329788D01*
X125744436Y-44119711D01*
X125683518Y-44040321D01*
X125596766Y-43927263D01*
X125596760Y-43927256D01*
X125440657Y-43771153D01*
X128949500Y-43771153D01*
X128949500Y-43928846D01*
X128980261Y-44083489D01*
X128980264Y-44083501D01*
X129040602Y-44229172D01*
X129040609Y-44229185D01*
X129128210Y-44360288D01*
X129128213Y-44360292D01*
X129239707Y-44471786D01*
X129239711Y-44471789D01*
X129370814Y-44559390D01*
X129370827Y-44559397D01*
X129508683Y-44616498D01*
X129516503Y-44619737D01*
X129671153Y-44650499D01*
X129671156Y-44650500D01*
X129671158Y-44650500D01*
X129828844Y-44650500D01*
X129828845Y-44650499D01*
X129983497Y-44619737D01*
X130129179Y-44559394D01*
X130260289Y-44471789D01*
X130371789Y-44360289D01*
X130459394Y-44229179D01*
X130519737Y-44083497D01*
X130550500Y-43928842D01*
X130550500Y-43771158D01*
X130550500Y-43771155D01*
X130550499Y-43771153D01*
X130519738Y-43616510D01*
X130519737Y-43616503D01*
X130516243Y-43608067D01*
X130459397Y-43470827D01*
X130459390Y-43470814D01*
X130371789Y-43339711D01*
X130371786Y-43339707D01*
X130260292Y-43228213D01*
X130260288Y-43228210D01*
X130129185Y-43140609D01*
X130129172Y-43140602D01*
X129983501Y-43080264D01*
X129983489Y-43080261D01*
X129828845Y-43049500D01*
X129828842Y-43049500D01*
X129671158Y-43049500D01*
X129671155Y-43049500D01*
X129516510Y-43080261D01*
X129516498Y-43080264D01*
X129370827Y-43140602D01*
X129370814Y-43140609D01*
X129239711Y-43228210D01*
X129239707Y-43228213D01*
X129128213Y-43339707D01*
X129128210Y-43339711D01*
X129040609Y-43470814D01*
X129040602Y-43470827D01*
X128980264Y-43616498D01*
X128980261Y-43616510D01*
X128949500Y-43771153D01*
X125440657Y-43771153D01*
X125425243Y-43755739D01*
X125425236Y-43755733D01*
X125232793Y-43608067D01*
X125232792Y-43608066D01*
X125232789Y-43608064D01*
X125022712Y-43486776D01*
X124984208Y-43470827D01*
X124798604Y-43393947D01*
X124564285Y-43331161D01*
X124323789Y-43299500D01*
X124323788Y-43299500D01*
X124081212Y-43299500D01*
X124081211Y-43299500D01*
X123840714Y-43331161D01*
X123606395Y-43393947D01*
X123382294Y-43486773D01*
X123382285Y-43486777D01*
X123172206Y-43608067D01*
X122979763Y-43755733D01*
X122979756Y-43755739D01*
X122808239Y-43927256D01*
X122808233Y-43927263D01*
X122660567Y-44119706D01*
X122539277Y-44329785D01*
X122539273Y-44329794D01*
X122446447Y-44553895D01*
X122383661Y-44788214D01*
X122352000Y-45028711D01*
X121085027Y-45028711D01*
X121059835Y-44902064D01*
X121058980Y-44900000D01*
X122092500Y-44900000D01*
X122092500Y-44000027D01*
X122092499Y-44000014D01*
X122082006Y-43897310D01*
X122082005Y-43897303D01*
X122026858Y-43730881D01*
X122026856Y-43730876D01*
X121934815Y-43581655D01*
X121810844Y-43457684D01*
X121661623Y-43365643D01*
X121661618Y-43365641D01*
X121495196Y-43310494D01*
X121495189Y-43310493D01*
X121392485Y-43300000D01*
X120492500Y-43300000D01*
X120492500Y-44333519D01*
X120490436Y-44332665D01*
X120326218Y-44300000D01*
X120158782Y-44300000D01*
X119994564Y-44332665D01*
X119992500Y-44333519D01*
X119992500Y-43300000D01*
X119092514Y-43300000D01*
X118989810Y-43310493D01*
X118989803Y-43310494D01*
X118823381Y-43365641D01*
X118823376Y-43365643D01*
X118674155Y-43457684D01*
X118550184Y-43581655D01*
X118458143Y-43730876D01*
X118458141Y-43730881D01*
X118402994Y-43897303D01*
X118402993Y-43897310D01*
X118392500Y-44000014D01*
X106150500Y-44000014D01*
X106150500Y-42621153D01*
X127449500Y-42621153D01*
X127449500Y-42778846D01*
X127480261Y-42933489D01*
X127480264Y-42933501D01*
X127540602Y-43079172D01*
X127540609Y-43079185D01*
X127628210Y-43210288D01*
X127628213Y-43210292D01*
X127739707Y-43321786D01*
X127739711Y-43321789D01*
X127870814Y-43409390D01*
X127870827Y-43409397D01*
X127987404Y-43457684D01*
X128016503Y-43469737D01*
X128171153Y-43500499D01*
X128171156Y-43500500D01*
X128171158Y-43500500D01*
X128328844Y-43500500D01*
X128328845Y-43500499D01*
X128483497Y-43469737D01*
X128629179Y-43409394D01*
X128760289Y-43321789D01*
X128871789Y-43210289D01*
X128959394Y-43079179D01*
X129019737Y-42933497D01*
X129050500Y-42778842D01*
X129050500Y-42621158D01*
X129050500Y-42621155D01*
X129050499Y-42621153D01*
X129019738Y-42466510D01*
X129019737Y-42466503D01*
X129019735Y-42466498D01*
X128959397Y-42320827D01*
X128959390Y-42320814D01*
X128871789Y-42189711D01*
X128871786Y-42189707D01*
X128760292Y-42078213D01*
X128760288Y-42078210D01*
X128629185Y-41990609D01*
X128629172Y-41990602D01*
X128483501Y-41930264D01*
X128483489Y-41930261D01*
X128328845Y-41899500D01*
X128328842Y-41899500D01*
X128171158Y-41899500D01*
X128171155Y-41899500D01*
X128016510Y-41930261D01*
X128016498Y-41930264D01*
X127870827Y-41990602D01*
X127870814Y-41990609D01*
X127739711Y-42078210D01*
X127739707Y-42078213D01*
X127628213Y-42189707D01*
X127628210Y-42189711D01*
X127540609Y-42320814D01*
X127540602Y-42320827D01*
X127480264Y-42466498D01*
X127480261Y-42466510D01*
X127449500Y-42621153D01*
X106150500Y-42621153D01*
X106150500Y-41609701D01*
X106150987Y-41598723D01*
X106153871Y-41566275D01*
X106158166Y-41543149D01*
X106180278Y-41465871D01*
X106189580Y-41442582D01*
X106224944Y-41374882D01*
X106238745Y-41353942D01*
X106287012Y-41294747D01*
X106304743Y-41277016D01*
X106363949Y-41228739D01*
X106384883Y-41214943D01*
X106452580Y-41179581D01*
X106475865Y-41170279D01*
X106553149Y-41148166D01*
X106576270Y-41143871D01*
X106599559Y-41141801D01*
X106608724Y-41140987D01*
X106619702Y-41140500D01*
X132380298Y-41140500D01*
X132391276Y-41140987D01*
G37*
%TD.AperFunction*%
%TD*%
%TA.AperFunction,Conductor*%
%TO.N,+6V*%
G36*
X106680485Y-55005023D02*
G01*
X106695483Y-55009427D01*
X106754256Y-55047197D01*
X106761076Y-55055067D01*
X106773632Y-55082559D01*
X106775463Y-55081817D01*
X106796755Y-55134340D01*
X106798443Y-55138416D01*
X106868310Y-55275535D01*
X106894951Y-55327820D01*
X107019890Y-55499786D01*
X107170213Y-55650109D01*
X107342182Y-55775050D01*
X107342190Y-55775054D01*
X107342693Y-55775363D01*
X107344174Y-55776496D01*
X107346122Y-55777912D01*
X107346086Y-55777960D01*
X107363034Y-55790934D01*
X107373315Y-55800643D01*
X107408541Y-55860983D01*
X107405552Y-55930789D01*
X107369383Y-55984507D01*
X107362227Y-55990708D01*
X107345814Y-56002723D01*
X107342190Y-56004943D01*
X107170210Y-56129892D01*
X107019892Y-56280210D01*
X106894949Y-56452182D01*
X106798445Y-56641580D01*
X106732752Y-56843759D01*
X106699500Y-57053707D01*
X106699500Y-57266291D01*
X106732752Y-57476239D01*
X106798445Y-57678418D01*
X106891532Y-57861111D01*
X106894951Y-57867820D01*
X107019890Y-58039786D01*
X107170213Y-58190109D01*
X107342182Y-58315050D01*
X107342190Y-58315054D01*
X107342693Y-58315363D01*
X107344174Y-58316496D01*
X107346122Y-58317912D01*
X107346086Y-58317960D01*
X107363034Y-58330934D01*
X107373315Y-58340643D01*
X107408541Y-58400983D01*
X107405552Y-58470789D01*
X107369383Y-58524507D01*
X107362227Y-58530708D01*
X107345814Y-58542723D01*
X107342190Y-58544943D01*
X107170210Y-58669892D01*
X107019892Y-58820210D01*
X106894949Y-58992182D01*
X106798445Y-59181580D01*
X106732752Y-59383759D01*
X106699500Y-59593707D01*
X106699500Y-59806290D01*
X106715028Y-59904334D01*
X106718911Y-59928846D01*
X106732754Y-60016243D01*
X106754606Y-60083497D01*
X106777410Y-60153681D01*
X106798445Y-60218418D01*
X106891532Y-60401111D01*
X106894951Y-60407820D01*
X107019890Y-60579786D01*
X107170213Y-60730109D01*
X107342182Y-60855050D01*
X107342190Y-60855054D01*
X107342693Y-60855363D01*
X107344174Y-60856496D01*
X107346122Y-60857912D01*
X107346086Y-60857960D01*
X107363034Y-60870934D01*
X107373315Y-60880643D01*
X107408541Y-60940983D01*
X107405552Y-61010789D01*
X107369383Y-61064507D01*
X107362227Y-61070708D01*
X107345814Y-61082723D01*
X107342190Y-61084943D01*
X107170210Y-61209892D01*
X107019892Y-61360210D01*
X107006106Y-61379185D01*
X106925806Y-61489711D01*
X106894949Y-61532182D01*
X106798445Y-61721580D01*
X106732752Y-61923759D01*
X106723804Y-61980262D01*
X106723804Y-61980263D01*
X106699500Y-62133707D01*
X106699500Y-62346286D01*
X106706520Y-62390609D01*
X106706520Y-62390610D01*
X106726459Y-62516503D01*
X106732752Y-62556234D01*
X106732755Y-62556246D01*
X106770091Y-62671157D01*
X106798443Y-62758414D01*
X106881187Y-62920807D01*
X106894951Y-62947820D01*
X107019890Y-63119786D01*
X107170213Y-63270109D01*
X107342182Y-63395050D01*
X107342190Y-63395054D01*
X107342693Y-63395363D01*
X107344174Y-63396496D01*
X107346122Y-63397912D01*
X107346086Y-63397960D01*
X107363034Y-63410934D01*
X107373315Y-63420643D01*
X107408541Y-63480983D01*
X107405552Y-63550789D01*
X107369383Y-63604507D01*
X107362227Y-63610708D01*
X107345814Y-63622723D01*
X107342190Y-63624943D01*
X107170210Y-63749892D01*
X107019892Y-63900210D01*
X107004216Y-63921787D01*
X106894956Y-64072173D01*
X106894949Y-64072182D01*
X106798445Y-64261580D01*
X106732753Y-64463759D01*
X106715968Y-64569737D01*
X106715968Y-64569738D01*
X106699500Y-64673708D01*
X106699500Y-64886286D01*
X106732754Y-65096244D01*
X106732754Y-65096247D01*
X106779658Y-65240601D01*
X106798441Y-65298407D01*
X106798443Y-65298412D01*
X106798444Y-65298414D01*
X106894951Y-65487820D01*
X107019890Y-65659786D01*
X107170213Y-65810109D01*
X107342182Y-65935050D01*
X107342190Y-65935054D01*
X107342693Y-65935363D01*
X107344174Y-65936496D01*
X107346122Y-65937912D01*
X107346086Y-65937960D01*
X107363034Y-65950934D01*
X107373315Y-65960643D01*
X107408541Y-66020983D01*
X107405552Y-66090789D01*
X107369383Y-66144507D01*
X107362227Y-66150708D01*
X107345814Y-66162723D01*
X107342190Y-66164943D01*
X107170210Y-66289892D01*
X107019892Y-66440210D01*
X107019890Y-66440213D01*
X106924302Y-66571781D01*
X106894949Y-66612182D01*
X106798445Y-66801580D01*
X106732752Y-67003759D01*
X106699500Y-67213707D01*
X106699500Y-67426290D01*
X106716480Y-67533497D01*
X106732753Y-67636239D01*
X106732753Y-67636240D01*
X106789305Y-67810290D01*
X106798442Y-67838410D01*
X106798443Y-67838412D01*
X106885562Y-68009394D01*
X106894951Y-68027820D01*
X107019890Y-68199786D01*
X107170213Y-68350109D01*
X107342182Y-68475050D01*
X107342190Y-68475054D01*
X107342693Y-68475363D01*
X107344174Y-68476496D01*
X107346122Y-68477912D01*
X107346086Y-68477960D01*
X107363034Y-68490934D01*
X107373315Y-68500643D01*
X107408541Y-68560983D01*
X107405552Y-68630789D01*
X107369383Y-68684507D01*
X107362227Y-68690708D01*
X107345814Y-68702723D01*
X107342190Y-68704943D01*
X107170210Y-68829892D01*
X107019892Y-68980210D01*
X106894949Y-69152182D01*
X106798445Y-69341582D01*
X106732752Y-69543763D01*
X106708410Y-69697456D01*
X106708410Y-69697457D01*
X106699500Y-69753708D01*
X106699500Y-69966291D01*
X106709534Y-70029643D01*
X106728873Y-70151744D01*
X106732752Y-70176238D01*
X106756536Y-70249439D01*
X106796111Y-70371236D01*
X106798444Y-70378414D01*
X106894951Y-70567820D01*
X107019890Y-70739786D01*
X107170213Y-70890109D01*
X107342182Y-71015050D01*
X107342188Y-71015053D01*
X107342693Y-71015363D01*
X107344174Y-71016496D01*
X107346122Y-71017912D01*
X107346086Y-71017960D01*
X107363034Y-71030934D01*
X107373315Y-71040643D01*
X107408541Y-71100983D01*
X107405552Y-71170789D01*
X107369383Y-71224507D01*
X107362227Y-71230708D01*
X107345814Y-71242723D01*
X107342190Y-71244943D01*
X107170210Y-71369892D01*
X107019892Y-71520210D01*
X106957420Y-71606196D01*
X106905633Y-71677477D01*
X106894949Y-71692182D01*
X106798445Y-71881580D01*
X106732752Y-72083759D01*
X106699500Y-72293707D01*
X106699500Y-72506291D01*
X106731291Y-72707009D01*
X106732735Y-72716127D01*
X106732753Y-72716239D01*
X106732754Y-72716242D01*
X106732755Y-72716246D01*
X106783150Y-72871348D01*
X106798441Y-72918406D01*
X106798443Y-72918412D01*
X106874612Y-73067904D01*
X106894951Y-73107820D01*
X107019890Y-73279786D01*
X107170213Y-73430109D01*
X107342182Y-73555050D01*
X107342190Y-73555054D01*
X107342693Y-73555363D01*
X107344174Y-73556496D01*
X107346122Y-73557912D01*
X107346086Y-73557960D01*
X107363034Y-73570934D01*
X107373315Y-73580643D01*
X107408541Y-73640983D01*
X107405552Y-73710789D01*
X107369383Y-73764507D01*
X107362227Y-73770708D01*
X107345814Y-73782723D01*
X107342190Y-73784943D01*
X107170210Y-73909892D01*
X107019892Y-74060210D01*
X106977319Y-74118808D01*
X106901842Y-74222695D01*
X106894949Y-74232182D01*
X106798445Y-74421580D01*
X106732754Y-74623755D01*
X106732754Y-74623757D01*
X106732753Y-74623760D01*
X106732315Y-74626524D01*
X106699500Y-74833707D01*
X106699500Y-75046291D01*
X106732752Y-75256239D01*
X106798445Y-75458418D01*
X106848994Y-75557625D01*
X106894951Y-75647820D01*
X107019890Y-75819786D01*
X107170213Y-75970109D01*
X107342182Y-76095050D01*
X107342190Y-76095054D01*
X107342693Y-76095363D01*
X107344174Y-76096496D01*
X107346122Y-76097912D01*
X107346086Y-76097960D01*
X107363034Y-76110934D01*
X107373315Y-76120643D01*
X107408541Y-76180983D01*
X107405552Y-76250789D01*
X107369383Y-76304507D01*
X107362227Y-76310708D01*
X107345814Y-76322723D01*
X107342190Y-76324943D01*
X107170210Y-76449892D01*
X107019892Y-76600210D01*
X106894949Y-76772182D01*
X106798445Y-76961580D01*
X106732752Y-77163759D01*
X106699500Y-77373707D01*
X106699500Y-77586291D01*
X106732752Y-77796239D01*
X106798445Y-77998418D01*
X106891532Y-78181111D01*
X106894951Y-78187820D01*
X107019890Y-78359786D01*
X107170213Y-78510109D01*
X107342182Y-78635050D01*
X107342190Y-78635054D01*
X107342693Y-78635363D01*
X107344174Y-78636496D01*
X107346122Y-78637912D01*
X107346086Y-78637960D01*
X107363034Y-78650934D01*
X107373315Y-78660643D01*
X107408541Y-78720983D01*
X107405552Y-78790789D01*
X107369383Y-78844507D01*
X107362227Y-78850708D01*
X107345814Y-78862723D01*
X107342190Y-78864943D01*
X107170210Y-78989892D01*
X107019892Y-79140210D01*
X106894949Y-79312182D01*
X106798445Y-79501580D01*
X106732752Y-79703759D01*
X106699500Y-79913707D01*
X106699500Y-80126291D01*
X106732752Y-80336239D01*
X106798445Y-80538418D01*
X106891532Y-80721111D01*
X106894951Y-80727820D01*
X107019890Y-80899786D01*
X107170213Y-81050109D01*
X107342182Y-81175050D01*
X107342190Y-81175054D01*
X107342693Y-81175363D01*
X107344174Y-81176496D01*
X107346122Y-81177912D01*
X107346086Y-81177960D01*
X107363034Y-81190934D01*
X107373315Y-81200643D01*
X107408541Y-81260983D01*
X107405552Y-81330789D01*
X107369383Y-81384507D01*
X107362227Y-81390708D01*
X107345814Y-81402723D01*
X107342190Y-81404943D01*
X107170210Y-81529892D01*
X107019892Y-81680210D01*
X106894949Y-81852182D01*
X106798445Y-82041580D01*
X106732752Y-82243759D01*
X106699500Y-82453707D01*
X106699500Y-82666291D01*
X106732752Y-82876239D01*
X106798445Y-83078418D01*
X106891532Y-83261111D01*
X106894951Y-83267820D01*
X107019890Y-83439786D01*
X107170213Y-83590109D01*
X107342182Y-83715050D01*
X107342190Y-83715054D01*
X107342693Y-83715363D01*
X107344174Y-83716496D01*
X107346122Y-83717912D01*
X107346086Y-83717960D01*
X107363034Y-83730934D01*
X107373315Y-83740643D01*
X107408541Y-83800983D01*
X107405552Y-83870789D01*
X107369383Y-83924507D01*
X107362227Y-83930708D01*
X107345814Y-83942723D01*
X107342190Y-83944943D01*
X107170210Y-84069892D01*
X107019892Y-84220210D01*
X106894949Y-84392182D01*
X106798445Y-84581580D01*
X106732752Y-84783759D01*
X106699500Y-84993707D01*
X106699500Y-85206291D01*
X106732752Y-85416239D01*
X106798445Y-85618418D01*
X106891532Y-85801111D01*
X106894951Y-85807820D01*
X107019890Y-85979786D01*
X107170213Y-86130109D01*
X107342182Y-86255050D01*
X107342190Y-86255054D01*
X107342693Y-86255363D01*
X107344174Y-86256496D01*
X107346122Y-86257912D01*
X107346086Y-86257960D01*
X107363034Y-86270934D01*
X107373315Y-86280643D01*
X107408541Y-86340983D01*
X107405552Y-86410789D01*
X107369383Y-86464507D01*
X107362227Y-86470708D01*
X107345814Y-86482723D01*
X107342190Y-86484943D01*
X107170210Y-86609892D01*
X107019892Y-86760210D01*
X106894949Y-86932182D01*
X106798445Y-87121580D01*
X106732752Y-87323759D01*
X106699500Y-87533707D01*
X106699500Y-87746291D01*
X106732752Y-87956239D01*
X106798445Y-88158418D01*
X106891532Y-88341111D01*
X106894951Y-88347820D01*
X107019890Y-88519786D01*
X107170213Y-88670109D01*
X107342182Y-88795050D01*
X107342190Y-88795054D01*
X107342693Y-88795363D01*
X107344174Y-88796496D01*
X107346122Y-88797912D01*
X107346086Y-88797960D01*
X107363034Y-88810934D01*
X107373315Y-88820643D01*
X107408541Y-88880983D01*
X107405552Y-88950789D01*
X107369383Y-89004507D01*
X107362227Y-89010708D01*
X107345814Y-89022723D01*
X107342190Y-89024943D01*
X107170210Y-89149892D01*
X107019892Y-89300210D01*
X106894949Y-89472182D01*
X106798445Y-89661580D01*
X106732752Y-89863759D01*
X106699500Y-90073707D01*
X106699500Y-90286291D01*
X106732752Y-90496239D01*
X106798445Y-90698418D01*
X106891532Y-90881111D01*
X106894951Y-90887820D01*
X107019890Y-91059786D01*
X107170213Y-91210109D01*
X107342182Y-91335050D01*
X107342190Y-91335054D01*
X107342693Y-91335363D01*
X107344174Y-91336496D01*
X107346122Y-91337912D01*
X107346086Y-91337960D01*
X107363034Y-91350934D01*
X107373315Y-91360643D01*
X107408541Y-91420983D01*
X107405552Y-91490789D01*
X107369383Y-91544507D01*
X107362227Y-91550708D01*
X107345814Y-91562723D01*
X107342190Y-91564943D01*
X107170210Y-91689892D01*
X107019892Y-91840210D01*
X106894949Y-92012182D01*
X106798445Y-92201580D01*
X106732752Y-92403759D01*
X106699500Y-92613707D01*
X106699500Y-92826291D01*
X106732752Y-93036239D01*
X106798445Y-93238418D01*
X106891532Y-93421111D01*
X106894951Y-93427820D01*
X107019890Y-93599786D01*
X107170213Y-93750109D01*
X107342182Y-93875050D01*
X107342190Y-93875054D01*
X107342693Y-93875363D01*
X107344174Y-93876496D01*
X107346122Y-93877912D01*
X107346086Y-93877960D01*
X107363034Y-93890934D01*
X107373315Y-93900643D01*
X107408541Y-93960983D01*
X107405552Y-94030789D01*
X107369383Y-94084507D01*
X107362227Y-94090708D01*
X107345814Y-94102723D01*
X107342190Y-94104943D01*
X107170210Y-94229892D01*
X107019892Y-94380210D01*
X106894949Y-94552182D01*
X106798445Y-94741580D01*
X106732752Y-94943759D01*
X106699500Y-95153707D01*
X106699500Y-95366291D01*
X106732752Y-95576239D01*
X106798445Y-95778418D01*
X106891532Y-95961111D01*
X106894951Y-95967820D01*
X107019890Y-96139786D01*
X107170213Y-96290109D01*
X107342182Y-96415050D01*
X107342190Y-96415054D01*
X107342693Y-96415363D01*
X107344174Y-96416496D01*
X107346122Y-96417912D01*
X107346086Y-96417960D01*
X107363034Y-96430934D01*
X107373315Y-96440643D01*
X107408541Y-96500983D01*
X107405552Y-96570789D01*
X107369383Y-96624507D01*
X107362227Y-96630708D01*
X107345814Y-96642723D01*
X107342190Y-96644943D01*
X107170210Y-96769892D01*
X107019892Y-96920210D01*
X106894949Y-97092182D01*
X106798445Y-97281580D01*
X106732752Y-97483759D01*
X106699500Y-97693707D01*
X106699500Y-97906286D01*
X106732754Y-98116244D01*
X106732754Y-98116247D01*
X106785696Y-98279183D01*
X106798442Y-98318410D01*
X106798443Y-98318412D01*
X106880645Y-98479744D01*
X106894951Y-98507820D01*
X107019890Y-98679786D01*
X107019892Y-98679788D01*
X107170216Y-98830112D01*
X107342169Y-98955042D01*
X107342177Y-98955047D01*
X107342179Y-98955048D01*
X107342181Y-98955049D01*
X107342182Y-98955050D01*
X107342200Y-98955060D01*
X107342442Y-98955182D01*
X107531588Y-99051557D01*
X107733757Y-99117246D01*
X107943713Y-99150500D01*
X107943714Y-99150500D01*
X108156286Y-99150500D01*
X108156287Y-99150500D01*
X108366243Y-99117246D01*
X108568412Y-99051557D01*
X108757816Y-98955051D01*
X108779789Y-98939086D01*
X108929786Y-98830109D01*
X108929786Y-98830108D01*
X108929844Y-98830066D01*
X108930605Y-98829290D01*
X109080104Y-98679792D01*
X109080106Y-98679788D01*
X109080109Y-98679786D01*
X109205048Y-98507820D01*
X109205047Y-98507820D01*
X109205051Y-98507816D01*
X109205053Y-98507810D01*
X109225445Y-98479744D01*
X109233730Y-98451529D01*
X109301557Y-98318412D01*
X109367246Y-98116243D01*
X109389007Y-97978848D01*
X117099499Y-97978848D01*
X117130257Y-98133471D01*
X117130264Y-98133502D01*
X117190598Y-98279165D01*
X117190603Y-98279174D01*
X117190610Y-98279186D01*
X117278211Y-98410290D01*
X117278212Y-98410291D01*
X117278217Y-98410297D01*
X117389701Y-98521781D01*
X117389707Y-98521786D01*
X117389711Y-98521789D01*
X117520814Y-98609390D01*
X117520827Y-98609397D01*
X117666498Y-98669735D01*
X117666503Y-98669737D01*
X117821153Y-98700499D01*
X117821156Y-98700500D01*
X117821158Y-98700500D01*
X117978844Y-98700500D01*
X117978845Y-98700499D01*
X118133497Y-98669737D01*
X118279179Y-98609394D01*
X118410289Y-98521789D01*
X118521789Y-98410289D01*
X118583178Y-98318414D01*
X118609392Y-98279183D01*
X118609397Y-98279172D01*
X118669735Y-98133501D01*
X118669737Y-98133497D01*
X118700500Y-97978842D01*
X118700500Y-97821158D01*
X118700500Y-97821155D01*
X118700500Y-97820973D01*
X118700065Y-97818972D01*
X118670398Y-97669830D01*
X118669983Y-97667403D01*
X118669737Y-97666504D01*
X118642398Y-97600500D01*
X118609402Y-97520840D01*
X118609397Y-97520827D01*
X118609390Y-97520814D01*
X118521789Y-97389711D01*
X118521786Y-97389707D01*
X118521781Y-97389701D01*
X118410297Y-97278217D01*
X118410291Y-97278212D01*
X118410290Y-97278211D01*
X118279191Y-97190613D01*
X118279190Y-97190612D01*
X118279185Y-97190609D01*
X118279172Y-97190602D01*
X118279165Y-97190598D01*
X118133502Y-97130264D01*
X118133471Y-97130257D01*
X117978847Y-97099500D01*
X117978845Y-97099500D01*
X117978842Y-97099500D01*
X117821158Y-97099500D01*
X117821155Y-97099500D01*
X117821153Y-97099500D01*
X117666527Y-97130257D01*
X117666496Y-97130264D01*
X117520833Y-97190598D01*
X117520824Y-97190603D01*
X117520807Y-97190613D01*
X117389708Y-97278211D01*
X117389707Y-97278212D01*
X117389701Y-97278217D01*
X117278217Y-97389701D01*
X117278212Y-97389707D01*
X117278211Y-97389708D01*
X117190613Y-97520807D01*
X117190604Y-97520823D01*
X117190599Y-97520831D01*
X117130264Y-97666496D01*
X117130257Y-97666527D01*
X117099500Y-97821150D01*
X117099500Y-97821153D01*
X117099500Y-97978846D01*
X117099500Y-97978848D01*
X117099499Y-97978848D01*
X109389007Y-97978848D01*
X109400500Y-97906287D01*
X109400500Y-97693713D01*
X109367246Y-97483757D01*
X109301557Y-97281588D01*
X109205051Y-97092184D01*
X109205049Y-97092181D01*
X109205048Y-97092179D01*
X109204702Y-97091703D01*
X109204700Y-97091699D01*
X109080112Y-96920216D01*
X108929782Y-96769886D01*
X108804477Y-96678848D01*
X120149499Y-96678848D01*
X120180257Y-96833471D01*
X120180264Y-96833502D01*
X120240598Y-96979165D01*
X120240603Y-96979174D01*
X120240613Y-96979191D01*
X120328211Y-97110290D01*
X120328212Y-97110291D01*
X120328217Y-97110297D01*
X120439701Y-97221781D01*
X120439707Y-97221786D01*
X120439711Y-97221789D01*
X120570814Y-97309390D01*
X120570827Y-97309397D01*
X120716498Y-97369735D01*
X120716503Y-97369737D01*
X120871153Y-97400499D01*
X120871156Y-97400500D01*
X120871158Y-97400500D01*
X121028844Y-97400500D01*
X121028845Y-97400499D01*
X121183497Y-97369737D01*
X121327011Y-97310292D01*
X121329172Y-97309397D01*
X121329172Y-97309396D01*
X121329179Y-97309394D01*
X121460289Y-97221789D01*
X121571789Y-97110289D01*
X121659394Y-96979179D01*
X121700952Y-96878848D01*
X123299499Y-96878848D01*
X123330257Y-97033471D01*
X123330264Y-97033502D01*
X123390598Y-97179165D01*
X123390603Y-97179174D01*
X123390613Y-97179191D01*
X123478211Y-97310290D01*
X123478212Y-97310291D01*
X123478217Y-97310297D01*
X123589701Y-97421781D01*
X123589707Y-97421786D01*
X123589711Y-97421789D01*
X123720814Y-97509390D01*
X123720827Y-97509397D01*
X123866498Y-97569735D01*
X123866503Y-97569737D01*
X124021153Y-97600499D01*
X124021156Y-97600500D01*
X124021158Y-97600500D01*
X124178844Y-97600500D01*
X124178845Y-97600499D01*
X124333497Y-97569737D01*
X124451592Y-97520821D01*
X124479172Y-97509397D01*
X124479172Y-97509396D01*
X124479179Y-97509394D01*
X124479184Y-97509390D01*
X124481534Y-97508417D01*
X124481534Y-97508416D01*
X124481537Y-97508416D01*
X124490792Y-97504582D01*
X124499677Y-97495698D01*
X124555002Y-97458730D01*
X124610289Y-97421789D01*
X124721789Y-97310289D01*
X124809394Y-97179179D01*
X124869737Y-97033497D01*
X124900500Y-96878842D01*
X124900500Y-96721158D01*
X124900500Y-96721155D01*
X124900500Y-96720973D01*
X124900065Y-96718971D01*
X124894476Y-96690873D01*
X124876688Y-96601447D01*
X124869737Y-96566503D01*
X124862256Y-96548443D01*
X124809397Y-96420827D01*
X124809390Y-96420814D01*
X124721789Y-96289711D01*
X124721786Y-96289707D01*
X124721781Y-96289701D01*
X124610297Y-96178217D01*
X124610291Y-96178212D01*
X124610290Y-96178211D01*
X124479191Y-96090613D01*
X124479190Y-96090612D01*
X124479185Y-96090609D01*
X124479172Y-96090602D01*
X124479165Y-96090598D01*
X124333502Y-96030264D01*
X124333471Y-96030257D01*
X124178847Y-95999500D01*
X124178845Y-95999500D01*
X124178842Y-95999500D01*
X124021158Y-95999500D01*
X124021155Y-95999500D01*
X124021153Y-95999500D01*
X123866527Y-96030257D01*
X123866496Y-96030264D01*
X123720833Y-96090598D01*
X123720824Y-96090603D01*
X123720807Y-96090613D01*
X123589708Y-96178211D01*
X123589707Y-96178212D01*
X123589701Y-96178217D01*
X123478217Y-96289701D01*
X123478212Y-96289707D01*
X123478211Y-96289708D01*
X123390613Y-96420807D01*
X123390603Y-96420824D01*
X123390598Y-96420833D01*
X123330264Y-96566496D01*
X123330257Y-96566527D01*
X123299500Y-96721150D01*
X123299500Y-96721153D01*
X123299500Y-96878846D01*
X123299500Y-96878848D01*
X123299499Y-96878848D01*
X121700952Y-96878848D01*
X121719737Y-96833497D01*
X121742083Y-96721158D01*
X121748107Y-96690875D01*
X121748107Y-96690874D01*
X121748109Y-96690866D01*
X121748109Y-96690865D01*
X121749295Y-96684904D01*
X121749296Y-96684904D01*
X121749297Y-96684889D01*
X121750500Y-96678844D01*
X121750500Y-96521155D01*
X121750500Y-96520971D01*
X121750064Y-96518966D01*
X121739825Y-96467491D01*
X121738048Y-96458556D01*
X121719737Y-96366503D01*
X121687929Y-96289711D01*
X121659397Y-96220827D01*
X121659390Y-96220814D01*
X121571789Y-96089711D01*
X121571786Y-96089707D01*
X121571781Y-96089701D01*
X121460297Y-95978217D01*
X121460291Y-95978212D01*
X121460290Y-95978211D01*
X121329191Y-95890613D01*
X121329190Y-95890612D01*
X121329185Y-95890609D01*
X121329172Y-95890602D01*
X121329165Y-95890598D01*
X121183502Y-95830264D01*
X121183471Y-95830257D01*
X121028847Y-95799500D01*
X121028845Y-95799500D01*
X121028842Y-95799500D01*
X120871158Y-95799500D01*
X120871155Y-95799500D01*
X120871153Y-95799500D01*
X120716527Y-95830257D01*
X120716496Y-95830264D01*
X120570833Y-95890598D01*
X120570824Y-95890603D01*
X120570807Y-95890613D01*
X120439708Y-95978211D01*
X120439707Y-95978212D01*
X120439701Y-95978217D01*
X120328217Y-96089701D01*
X120328212Y-96089707D01*
X120328211Y-96089708D01*
X120240613Y-96220807D01*
X120240603Y-96220824D01*
X120240598Y-96220833D01*
X120180264Y-96366496D01*
X120180257Y-96366527D01*
X120149500Y-96521150D01*
X120149500Y-96521153D01*
X120149500Y-96678846D01*
X120149500Y-96678848D01*
X120149499Y-96678848D01*
X108804477Y-96678848D01*
X108757824Y-96644953D01*
X108757258Y-96644606D01*
X108755628Y-96643358D01*
X108753901Y-96642103D01*
X108753932Y-96642059D01*
X108736957Y-96629059D01*
X108726021Y-96618731D01*
X108690797Y-96558390D01*
X108693787Y-96488585D01*
X108727452Y-96437098D01*
X108731256Y-96433617D01*
X108753868Y-96417947D01*
X108753656Y-96417601D01*
X108757807Y-96415056D01*
X108757808Y-96415054D01*
X108757816Y-96415051D01*
X108774599Y-96402856D01*
X108789091Y-96392327D01*
X108789095Y-96392324D01*
X108929786Y-96290109D01*
X108929786Y-96290108D01*
X108929847Y-96290064D01*
X108930609Y-96289286D01*
X109080104Y-96139792D01*
X109080106Y-96139788D01*
X109080109Y-96139786D01*
X109205048Y-95967820D01*
X109205047Y-95967820D01*
X109205051Y-95967816D01*
X109205053Y-95967810D01*
X109225445Y-95939744D01*
X109233730Y-95911529D01*
X109301557Y-95778412D01*
X109367246Y-95576243D01*
X109400500Y-95366287D01*
X109400500Y-95153713D01*
X109367246Y-94943757D01*
X109301557Y-94741588D01*
X109205051Y-94552184D01*
X109205049Y-94552181D01*
X109205048Y-94552179D01*
X109204702Y-94551703D01*
X109204700Y-94551699D01*
X109080112Y-94380216D01*
X108929782Y-94229886D01*
X108757824Y-94104953D01*
X108757258Y-94104606D01*
X108755627Y-94103357D01*
X108753901Y-94102103D01*
X108753932Y-94102059D01*
X108736960Y-94089062D01*
X108726683Y-94079357D01*
X108691457Y-94019017D01*
X108694445Y-93949212D01*
X108730613Y-93895493D01*
X108737783Y-93889281D01*
X108754187Y-93877275D01*
X108757816Y-93875051D01*
X108757817Y-93875050D01*
X108779789Y-93859086D01*
X108929786Y-93750109D01*
X108929787Y-93750106D01*
X108929790Y-93750105D01*
X108929792Y-93750104D01*
X108929793Y-93750102D01*
X108929847Y-93750063D01*
X108930605Y-93749290D01*
X109080104Y-93599792D01*
X109080106Y-93599788D01*
X109080109Y-93599786D01*
X109205048Y-93427820D01*
X109205047Y-93427820D01*
X109205051Y-93427816D01*
X109205053Y-93427810D01*
X109225445Y-93399744D01*
X109233730Y-93371529D01*
X109301557Y-93238412D01*
X109367246Y-93036243D01*
X109400500Y-92826287D01*
X109400500Y-92613713D01*
X109367246Y-92403757D01*
X109301557Y-92201588D01*
X109205051Y-92012184D01*
X109205049Y-92012181D01*
X109205048Y-92012179D01*
X109204702Y-92011703D01*
X109204700Y-92011699D01*
X109080112Y-91840216D01*
X108929782Y-91689886D01*
X108757824Y-91564953D01*
X108757258Y-91564606D01*
X108755627Y-91563357D01*
X108753901Y-91562103D01*
X108753932Y-91562059D01*
X108736960Y-91549062D01*
X108726683Y-91539357D01*
X108691457Y-91479017D01*
X108694445Y-91409212D01*
X108730613Y-91355493D01*
X108737783Y-91349281D01*
X108754187Y-91337275D01*
X108757816Y-91335051D01*
X108757817Y-91335050D01*
X108779789Y-91319086D01*
X108929786Y-91210109D01*
X108929787Y-91210106D01*
X108929790Y-91210105D01*
X108929792Y-91210104D01*
X108929793Y-91210102D01*
X108929847Y-91210063D01*
X108930605Y-91209290D01*
X109080104Y-91059792D01*
X109080106Y-91059788D01*
X109080109Y-91059786D01*
X109205048Y-90887820D01*
X109205047Y-90887820D01*
X109205051Y-90887816D01*
X109205053Y-90887810D01*
X109225445Y-90859744D01*
X109233730Y-90831529D01*
X109301557Y-90698412D01*
X109367246Y-90496243D01*
X109400500Y-90286287D01*
X109400500Y-90073713D01*
X109367246Y-89863757D01*
X109301557Y-89661588D01*
X109205051Y-89472184D01*
X109205049Y-89472181D01*
X109205048Y-89472179D01*
X109204702Y-89471703D01*
X109204700Y-89471699D01*
X109080112Y-89300216D01*
X108929782Y-89149886D01*
X108757824Y-89024953D01*
X108757258Y-89024606D01*
X108755627Y-89023357D01*
X108753901Y-89022103D01*
X108753932Y-89022059D01*
X108736960Y-89009062D01*
X108726683Y-88999357D01*
X108691457Y-88939017D01*
X108694445Y-88869212D01*
X108730613Y-88815493D01*
X108737783Y-88809281D01*
X108754187Y-88797275D01*
X108757816Y-88795051D01*
X108757817Y-88795050D01*
X108779789Y-88779086D01*
X108929786Y-88670109D01*
X108929787Y-88670106D01*
X108929790Y-88670105D01*
X108929792Y-88670104D01*
X108929793Y-88670102D01*
X108929847Y-88670063D01*
X108930605Y-88669290D01*
X109080104Y-88519792D01*
X109080106Y-88519788D01*
X109080109Y-88519786D01*
X109205048Y-88347820D01*
X109205047Y-88347820D01*
X109205051Y-88347816D01*
X109205053Y-88347810D01*
X109225445Y-88319744D01*
X109233730Y-88291529D01*
X109301557Y-88158412D01*
X109367246Y-87956243D01*
X109400500Y-87746287D01*
X109400500Y-87533713D01*
X109367246Y-87323757D01*
X109301557Y-87121588D01*
X109205051Y-86932184D01*
X109205049Y-86932181D01*
X109205048Y-86932179D01*
X109204702Y-86931703D01*
X109204700Y-86931699D01*
X109080112Y-86760216D01*
X108929782Y-86609886D01*
X108757824Y-86484953D01*
X108757258Y-86484606D01*
X108755627Y-86483357D01*
X108753901Y-86482103D01*
X108753932Y-86482059D01*
X108736960Y-86469062D01*
X108726683Y-86459357D01*
X108691457Y-86399017D01*
X108694445Y-86329212D01*
X108730613Y-86275493D01*
X108737783Y-86269281D01*
X108754187Y-86257275D01*
X108757816Y-86255051D01*
X108757817Y-86255050D01*
X108779789Y-86239086D01*
X108929786Y-86130109D01*
X108929787Y-86130106D01*
X108929790Y-86130105D01*
X108929792Y-86130104D01*
X108929793Y-86130102D01*
X108929847Y-86130063D01*
X108930605Y-86129290D01*
X109080104Y-85979792D01*
X109080106Y-85979788D01*
X109080109Y-85979786D01*
X109205048Y-85807820D01*
X109205047Y-85807820D01*
X109205051Y-85807816D01*
X109205053Y-85807810D01*
X109225445Y-85779744D01*
X109233730Y-85751529D01*
X109301557Y-85618412D01*
X109367246Y-85416243D01*
X109400500Y-85206287D01*
X109400500Y-84993713D01*
X109367246Y-84783757D01*
X109301557Y-84581588D01*
X109205051Y-84392184D01*
X109205049Y-84392181D01*
X109205048Y-84392179D01*
X109204702Y-84391703D01*
X109204700Y-84391699D01*
X109080112Y-84220216D01*
X108929782Y-84069886D01*
X108757824Y-83944953D01*
X108757258Y-83944606D01*
X108755627Y-83943357D01*
X108753901Y-83942103D01*
X108753932Y-83942059D01*
X108736960Y-83929062D01*
X108726683Y-83919357D01*
X108691457Y-83859017D01*
X108694445Y-83789212D01*
X108730613Y-83735493D01*
X108737783Y-83729281D01*
X108754187Y-83717275D01*
X108757816Y-83715051D01*
X108757817Y-83715050D01*
X108779789Y-83699086D01*
X108929786Y-83590109D01*
X108929787Y-83590106D01*
X108929790Y-83590105D01*
X108929792Y-83590104D01*
X108929793Y-83590102D01*
X108929847Y-83590063D01*
X108930605Y-83589290D01*
X109080104Y-83439792D01*
X109080106Y-83439788D01*
X109080109Y-83439786D01*
X109205048Y-83267820D01*
X109205047Y-83267820D01*
X109205051Y-83267816D01*
X109205053Y-83267810D01*
X109225445Y-83239744D01*
X109233730Y-83211529D01*
X109301557Y-83078412D01*
X109367246Y-82876243D01*
X109400500Y-82666287D01*
X109400500Y-82453713D01*
X109367246Y-82243757D01*
X109301557Y-82041588D01*
X109205051Y-81852184D01*
X109205049Y-81852181D01*
X109205048Y-81852179D01*
X109204702Y-81851703D01*
X109204700Y-81851699D01*
X109080112Y-81680216D01*
X108929782Y-81529886D01*
X108757824Y-81404953D01*
X108757258Y-81404606D01*
X108755627Y-81403357D01*
X108753901Y-81402103D01*
X108753932Y-81402059D01*
X108736960Y-81389062D01*
X108726683Y-81379357D01*
X108691457Y-81319017D01*
X108694445Y-81249212D01*
X108730613Y-81195493D01*
X108737783Y-81189281D01*
X108754187Y-81177275D01*
X108757816Y-81175051D01*
X108757817Y-81175050D01*
X108779789Y-81159086D01*
X108929786Y-81050109D01*
X108929787Y-81050106D01*
X108929790Y-81050105D01*
X108929792Y-81050104D01*
X108929793Y-81050102D01*
X108929847Y-81050063D01*
X108930605Y-81049290D01*
X109080104Y-80899792D01*
X109080106Y-80899788D01*
X109080109Y-80899786D01*
X109205048Y-80727820D01*
X109205047Y-80727820D01*
X109205051Y-80727816D01*
X109205053Y-80727810D01*
X109225445Y-80699744D01*
X109233730Y-80671529D01*
X109301557Y-80538412D01*
X109367246Y-80336243D01*
X109400500Y-80126287D01*
X109400500Y-79913713D01*
X109367246Y-79703757D01*
X109301557Y-79501588D01*
X109205051Y-79312184D01*
X109205049Y-79312181D01*
X109205048Y-79312179D01*
X109204702Y-79311703D01*
X109204700Y-79311699D01*
X109080112Y-79140216D01*
X108929782Y-78989886D01*
X108757824Y-78864953D01*
X108757258Y-78864606D01*
X108755627Y-78863357D01*
X108753901Y-78862103D01*
X108753932Y-78862059D01*
X108736960Y-78849062D01*
X108726683Y-78839357D01*
X108691457Y-78779017D01*
X108694445Y-78709212D01*
X108730613Y-78655493D01*
X108737783Y-78649281D01*
X108754187Y-78637275D01*
X108757816Y-78635051D01*
X108757817Y-78635050D01*
X108779789Y-78619086D01*
X108929786Y-78510109D01*
X108929787Y-78510106D01*
X108929790Y-78510105D01*
X108929792Y-78510104D01*
X108929793Y-78510102D01*
X108929847Y-78510063D01*
X108930605Y-78509290D01*
X109080104Y-78359792D01*
X109080106Y-78359788D01*
X109080109Y-78359786D01*
X109205048Y-78187820D01*
X109205047Y-78187820D01*
X109205051Y-78187816D01*
X109205053Y-78187810D01*
X109225445Y-78159744D01*
X109233730Y-78131529D01*
X109301557Y-77998412D01*
X109367246Y-77796243D01*
X109400500Y-77586287D01*
X109400500Y-77373713D01*
X109367246Y-77163757D01*
X109301557Y-76961588D01*
X109205051Y-76772184D01*
X109205049Y-76772181D01*
X109205048Y-76772179D01*
X109204702Y-76771703D01*
X109204700Y-76771699D01*
X109080112Y-76600216D01*
X108929782Y-76449886D01*
X108757824Y-76324953D01*
X108757258Y-76324606D01*
X108755627Y-76323357D01*
X108753901Y-76322103D01*
X108753932Y-76322059D01*
X108736960Y-76309062D01*
X108726683Y-76299357D01*
X108691457Y-76239017D01*
X108694445Y-76169212D01*
X108730612Y-76115495D01*
X108737783Y-76109281D01*
X108754194Y-76097269D01*
X108757794Y-76095061D01*
X108757816Y-76095051D01*
X108766392Y-76088820D01*
X108789191Y-76072257D01*
X108863258Y-76018443D01*
X108929786Y-75970109D01*
X108929787Y-75970106D01*
X108929789Y-75970105D01*
X108929792Y-75970104D01*
X108929794Y-75970101D01*
X108929848Y-75970062D01*
X108930605Y-75969290D01*
X109080104Y-75819792D01*
X109080106Y-75819788D01*
X109080109Y-75819786D01*
X109134899Y-75744371D01*
X109205051Y-75647816D01*
X109301557Y-75458412D01*
X109367246Y-75256243D01*
X109400500Y-75046287D01*
X109400500Y-74833713D01*
X109367246Y-74623757D01*
X109301557Y-74421588D01*
X109205051Y-74232184D01*
X109205049Y-74232181D01*
X109205048Y-74232179D01*
X109204702Y-74231703D01*
X109204700Y-74231699D01*
X109080112Y-74060216D01*
X108929782Y-73909886D01*
X108757824Y-73784953D01*
X108757258Y-73784606D01*
X108755627Y-73783357D01*
X108753901Y-73782103D01*
X108753932Y-73782059D01*
X108736960Y-73769062D01*
X108726683Y-73759357D01*
X108691457Y-73699017D01*
X108694445Y-73629212D01*
X108730612Y-73575495D01*
X108737783Y-73569281D01*
X108754194Y-73557269D01*
X108757792Y-73555063D01*
X108757816Y-73555051D01*
X108815205Y-73513355D01*
X108825944Y-73505554D01*
X108852851Y-73486005D01*
X108929786Y-73430109D01*
X108929788Y-73430106D01*
X108929792Y-73430104D01*
X108929794Y-73430101D01*
X108929845Y-73430065D01*
X108930592Y-73429303D01*
X109080104Y-73279792D01*
X109080106Y-73279788D01*
X109080109Y-73279786D01*
X109111853Y-73236094D01*
X109165883Y-73161727D01*
X109165884Y-73161725D01*
X109165890Y-73161717D01*
X109205051Y-73107816D01*
X109301557Y-72918412D01*
X109367246Y-72716243D01*
X109400500Y-72506287D01*
X109400500Y-72293713D01*
X109367246Y-72083757D01*
X109301557Y-71881588D01*
X109205051Y-71692184D01*
X109205049Y-71692181D01*
X109205048Y-71692179D01*
X109204702Y-71691703D01*
X109204700Y-71691699D01*
X109080112Y-71520216D01*
X108929782Y-71369886D01*
X108757835Y-71244961D01*
X108757827Y-71244956D01*
X108757820Y-71244951D01*
X108757812Y-71244946D01*
X108757329Y-71244651D01*
X108755839Y-71243510D01*
X108753878Y-71242086D01*
X108753913Y-71242037D01*
X108736960Y-71229063D01*
X108726676Y-71219351D01*
X108691455Y-71159011D01*
X108694447Y-71089205D01*
X108730613Y-71035493D01*
X108737783Y-71029281D01*
X108754187Y-71017275D01*
X108757816Y-71015051D01*
X108757820Y-71015048D01*
X108779789Y-70999086D01*
X108929786Y-70890109D01*
X108929787Y-70890106D01*
X108929790Y-70890105D01*
X108929792Y-70890104D01*
X108929793Y-70890102D01*
X108929847Y-70890063D01*
X108930605Y-70889290D01*
X109080104Y-70739792D01*
X109080106Y-70739788D01*
X109080109Y-70739786D01*
X109104388Y-70706368D01*
X111068999Y-70706368D01*
X111098099Y-70890097D01*
X111098520Y-70892753D01*
X111098523Y-70892769D01*
X111156844Y-71072260D01*
X111234560Y-71224785D01*
X111242523Y-71240413D01*
X111353454Y-71393096D01*
X111486904Y-71526546D01*
X111639587Y-71637477D01*
X111718090Y-71677476D01*
X111807739Y-71723155D01*
X111807741Y-71723155D01*
X111807744Y-71723157D01*
X111855959Y-71738823D01*
X111912802Y-71777255D01*
X111913660Y-71778283D01*
X111922978Y-71784656D01*
X111950167Y-71849019D01*
X111938243Y-71917863D01*
X111918317Y-71946995D01*
X111916222Y-71949277D01*
X111863200Y-71983348D01*
X111807931Y-72001307D01*
X111639841Y-72086954D01*
X111639114Y-72087423D01*
X111637510Y-72088647D01*
X111614743Y-72105186D01*
X111614743Y-72105191D01*
X112052478Y-72542925D01*
X112085963Y-72604248D01*
X112080979Y-72673939D01*
X112039108Y-72729873D01*
X112026797Y-72737993D01*
X111995073Y-72756308D01*
X111995068Y-72756312D01*
X111912312Y-72839068D01*
X111912308Y-72839073D01*
X111893993Y-72870797D01*
X111843426Y-72919013D01*
X111774819Y-72932236D01*
X111709954Y-72906268D01*
X111698925Y-72896478D01*
X111540440Y-72737993D01*
X111261191Y-72458743D01*
X111261187Y-72458743D01*
X111244647Y-72481510D01*
X111243423Y-72483114D01*
X111242954Y-72483841D01*
X111157308Y-72651930D01*
X111157302Y-72651941D01*
X111157298Y-72651950D01*
X111099011Y-72831345D01*
X111069500Y-73017670D01*
X111069500Y-73206328D01*
X111099011Y-73392653D01*
X111157298Y-73572048D01*
X111157302Y-73572057D01*
X111157303Y-73572060D01*
X111157304Y-73572061D01*
X111157305Y-73572063D01*
X111221848Y-73698734D01*
X111242954Y-73740157D01*
X111261188Y-73765254D01*
X111261189Y-73765255D01*
X111261190Y-73765255D01*
X111698926Y-73327518D01*
X111760247Y-73294035D01*
X111829938Y-73299019D01*
X111885872Y-73340890D01*
X111893992Y-73353201D01*
X111912308Y-73384926D01*
X111912310Y-73384929D01*
X111912311Y-73384930D01*
X111995070Y-73467689D01*
X112026795Y-73486005D01*
X112075011Y-73536572D01*
X112088235Y-73605179D01*
X112062267Y-73670044D01*
X112052477Y-73681074D01*
X111614743Y-74118807D01*
X111614743Y-74118808D01*
X111614743Y-74118809D01*
X111639844Y-74137046D01*
X111807935Y-74222694D01*
X111807938Y-74222695D01*
X111807940Y-74222695D01*
X111807941Y-74222696D01*
X111807961Y-74222703D01*
X111855953Y-74238296D01*
X111912780Y-74276706D01*
X111913670Y-74277771D01*
X111922996Y-74284153D01*
X111950171Y-74348522D01*
X111938232Y-74417364D01*
X111918303Y-74446486D01*
X111916829Y-74448092D01*
X111916205Y-74448772D01*
X111863200Y-74482823D01*
X111807736Y-74500845D01*
X111639585Y-74586523D01*
X111605679Y-74611158D01*
X111584532Y-74626523D01*
X111498774Y-74688830D01*
X111491394Y-74692962D01*
X111348961Y-74835395D01*
X111344831Y-74842771D01*
X111324396Y-74870899D01*
X111324394Y-74870902D01*
X111242523Y-74983586D01*
X111242520Y-74983590D01*
X111242519Y-74983593D01*
X111156845Y-75151738D01*
X111098521Y-75331239D01*
X111069000Y-75517625D01*
X111069000Y-75706367D01*
X111086964Y-75819786D01*
X111098522Y-75892764D01*
X111098523Y-75892767D01*
X111156843Y-76072256D01*
X111242523Y-76240413D01*
X111353454Y-76393096D01*
X111486904Y-76526546D01*
X111639587Y-76637477D01*
X111718090Y-76677476D01*
X111807739Y-76723155D01*
X111807741Y-76723155D01*
X111807744Y-76723157D01*
X111987233Y-76781477D01*
X112057134Y-76792548D01*
X112173632Y-76811000D01*
X112173637Y-76811000D01*
X112362367Y-76811000D01*
X112362368Y-76811000D01*
X112465920Y-76794598D01*
X112465921Y-76794598D01*
X112493535Y-76790224D01*
X112548767Y-76781477D01*
X112728256Y-76723157D01*
X112896413Y-76637477D01*
X113049096Y-76526546D01*
X113182546Y-76393096D01*
X113293477Y-76240413D01*
X113379157Y-76072256D01*
X113437477Y-75892767D01*
X113456027Y-75775643D01*
X113460665Y-75746364D01*
X113460665Y-75746363D01*
X113467000Y-75706366D01*
X113467000Y-75517632D01*
X113439004Y-75340876D01*
X113439003Y-75340869D01*
X113439003Y-75340870D01*
X113437477Y-75331236D01*
X113437477Y-75331233D01*
X113379157Y-75151744D01*
X113379155Y-75151741D01*
X113379155Y-75151739D01*
X113293476Y-74983586D01*
X113245545Y-74917615D01*
X113182546Y-74830904D01*
X113049096Y-74697454D01*
X112896413Y-74586523D01*
X112728260Y-74500843D01*
X112728257Y-74500842D01*
X112680043Y-74485177D01*
X112623221Y-74446772D01*
X112622352Y-74445733D01*
X112613040Y-74439367D01*
X112585835Y-74375011D01*
X112597741Y-74306163D01*
X112617655Y-74277032D01*
X112619756Y-74274743D01*
X112672799Y-74240650D01*
X112728058Y-74222696D01*
X112728064Y-74222694D01*
X112896151Y-74137048D01*
X112896153Y-74137045D01*
X112900493Y-74134835D01*
X112900939Y-74135712D01*
X112916014Y-74131461D01*
X112921256Y-74118807D01*
X112483522Y-73681074D01*
X112450037Y-73619751D01*
X112455021Y-73550060D01*
X112496892Y-73494126D01*
X112509205Y-73486005D01*
X112540930Y-73467689D01*
X112623689Y-73384930D01*
X112642005Y-73353204D01*
X112692571Y-73304988D01*
X112761178Y-73291764D01*
X112826043Y-73317731D01*
X112837074Y-73327522D01*
X113274807Y-73765256D01*
X113274807Y-73765255D01*
X113274808Y-73765256D01*
X113274808Y-73765255D01*
X113287464Y-73760013D01*
X113291715Y-73744941D01*
X113290835Y-73744493D01*
X113293045Y-73740153D01*
X113293048Y-73740151D01*
X113378694Y-73572064D01*
X113378695Y-73572061D01*
X113378887Y-73571472D01*
X113436987Y-73392653D01*
X113436986Y-73392653D01*
X113436988Y-73392650D01*
X113466500Y-73206323D01*
X113466500Y-73017676D01*
X113436988Y-72831349D01*
X113436987Y-72831345D01*
X113378703Y-72651961D01*
X113378696Y-72651942D01*
X113378696Y-72651941D01*
X113378695Y-72651940D01*
X113378695Y-72651938D01*
X113378694Y-72651935D01*
X113293046Y-72483844D01*
X113291350Y-72481510D01*
X113274810Y-72458743D01*
X113274809Y-72458743D01*
X113274808Y-72458743D01*
X113274807Y-72458743D01*
X112837074Y-72896476D01*
X112775751Y-72929961D01*
X112706059Y-72924977D01*
X112650126Y-72883105D01*
X112642006Y-72870795D01*
X112623691Y-72839073D01*
X112623687Y-72839068D01*
X112540931Y-72756312D01*
X112540926Y-72756308D01*
X112509201Y-72737992D01*
X112460986Y-72687425D01*
X112447762Y-72618818D01*
X112473730Y-72553954D01*
X112483506Y-72542939D01*
X112921255Y-72105190D01*
X112921255Y-72105189D01*
X112921251Y-72105186D01*
X112896159Y-72086955D01*
X112728060Y-72001304D01*
X112680040Y-71985701D01*
X112623227Y-71947304D01*
X112622353Y-71946259D01*
X112613039Y-71939892D01*
X112585834Y-71875536D01*
X112597740Y-71806688D01*
X112617652Y-71777559D01*
X112619756Y-71775267D01*
X112672797Y-71741176D01*
X112728256Y-71723157D01*
X112896413Y-71637477D01*
X113049096Y-71526546D01*
X113182546Y-71393096D01*
X113293477Y-71240413D01*
X113379157Y-71072256D01*
X113437477Y-70892767D01*
X113460665Y-70746363D01*
X113467000Y-70706368D01*
X113467000Y-70557625D01*
X116149000Y-70557625D01*
X116149000Y-70746373D01*
X116178519Y-70932750D01*
X116178521Y-70932761D01*
X116178525Y-70932775D01*
X116236844Y-71112260D01*
X116302994Y-71242086D01*
X116322523Y-71280413D01*
X116433454Y-71433096D01*
X116566904Y-71566546D01*
X116719587Y-71677477D01*
X116799034Y-71717957D01*
X116887739Y-71763155D01*
X116887741Y-71763155D01*
X116887744Y-71763157D01*
X116935959Y-71778823D01*
X116992802Y-71817255D01*
X116993660Y-71818283D01*
X117002978Y-71824656D01*
X117030167Y-71889019D01*
X117018243Y-71957863D01*
X116998317Y-71986995D01*
X116996222Y-71989277D01*
X116943200Y-72023348D01*
X116887931Y-72041307D01*
X116719841Y-72126954D01*
X116719114Y-72127423D01*
X116717510Y-72128647D01*
X116694743Y-72145186D01*
X116694743Y-72145191D01*
X117132478Y-72582925D01*
X117165963Y-72644248D01*
X117160979Y-72713939D01*
X117119108Y-72769873D01*
X117106797Y-72777993D01*
X117075073Y-72796308D01*
X117075068Y-72796312D01*
X116992312Y-72879068D01*
X116992308Y-72879073D01*
X116973993Y-72910797D01*
X116923426Y-72959013D01*
X116854819Y-72972236D01*
X116789954Y-72946268D01*
X116778925Y-72936478D01*
X116620440Y-72777993D01*
X116341191Y-72498743D01*
X116341187Y-72498743D01*
X116324647Y-72521510D01*
X116323423Y-72523114D01*
X116322954Y-72523841D01*
X116237308Y-72691930D01*
X116237302Y-72691941D01*
X116237298Y-72691950D01*
X116179011Y-72871345D01*
X116149500Y-73057670D01*
X116149500Y-73246328D01*
X116179011Y-73432653D01*
X116237298Y-73612048D01*
X116237302Y-73612057D01*
X116237303Y-73612060D01*
X116237304Y-73612061D01*
X116237305Y-73612063D01*
X116302570Y-73740151D01*
X116322954Y-73780157D01*
X116341188Y-73805254D01*
X116341189Y-73805255D01*
X116341190Y-73805255D01*
X116778926Y-73367518D01*
X116840247Y-73334035D01*
X116909938Y-73339019D01*
X116965872Y-73380890D01*
X116973992Y-73393201D01*
X116992308Y-73424926D01*
X116992310Y-73424929D01*
X116992311Y-73424930D01*
X117075070Y-73507689D01*
X117106795Y-73526005D01*
X117155011Y-73576572D01*
X117168235Y-73645179D01*
X117142267Y-73710044D01*
X117132477Y-73721074D01*
X116694743Y-74158807D01*
X116694743Y-74158808D01*
X116694743Y-74158809D01*
X116719844Y-74177046D01*
X116887935Y-74262694D01*
X116887938Y-74262695D01*
X116887940Y-74262695D01*
X116887941Y-74262696D01*
X116887961Y-74262703D01*
X116935953Y-74278296D01*
X116992770Y-74316694D01*
X116993670Y-74317771D01*
X117002994Y-74324151D01*
X117030171Y-74388519D01*
X117018233Y-74457361D01*
X116998301Y-74486489D01*
X116996207Y-74488769D01*
X116943203Y-74522822D01*
X116887731Y-74540847D01*
X116719584Y-74626524D01*
X116632474Y-74689812D01*
X116632475Y-74689813D01*
X116578773Y-74728830D01*
X116571394Y-74732962D01*
X116428960Y-74875396D01*
X116424829Y-74882773D01*
X116322525Y-75023582D01*
X116236845Y-75191738D01*
X116178521Y-75371239D01*
X116149000Y-75557625D01*
X116149000Y-75746373D01*
X116178519Y-75932750D01*
X116178521Y-75932761D01*
X116178525Y-75932775D01*
X116236844Y-76112260D01*
X116302142Y-76240413D01*
X116322523Y-76280413D01*
X116433454Y-76433096D01*
X116566904Y-76566546D01*
X116719587Y-76677477D01*
X116799034Y-76717957D01*
X116887739Y-76763155D01*
X116887741Y-76763155D01*
X116887744Y-76763157D01*
X117067233Y-76821477D01*
X117137134Y-76832548D01*
X117253632Y-76851000D01*
X117253637Y-76851000D01*
X117442367Y-76851000D01*
X117442368Y-76851000D01*
X117545920Y-76834598D01*
X117545921Y-76834598D01*
X117573535Y-76830224D01*
X117628767Y-76821477D01*
X117808256Y-76763157D01*
X117976413Y-76677477D01*
X118129096Y-76566546D01*
X118262546Y-76433096D01*
X118373477Y-76280413D01*
X118459157Y-76112256D01*
X118517477Y-75932767D01*
X118535371Y-75819786D01*
X118547000Y-75746368D01*
X118547000Y-75557631D01*
X118517477Y-75371236D01*
X118517477Y-75371233D01*
X118459157Y-75191744D01*
X118459155Y-75191741D01*
X118459155Y-75191739D01*
X118385043Y-75046287D01*
X118373477Y-75023587D01*
X118262546Y-74870904D01*
X118129096Y-74737454D01*
X117976413Y-74626523D01*
X117970984Y-74623757D01*
X117970976Y-74623752D01*
X117866104Y-74570317D01*
X117808260Y-74540844D01*
X117768698Y-74527989D01*
X117768692Y-74527987D01*
X117760036Y-74525174D01*
X117728370Y-74509604D01*
X117719035Y-74503221D01*
X117674806Y-74449132D01*
X117666841Y-74379718D01*
X117697657Y-74317030D01*
X117699756Y-74314743D01*
X117752799Y-74280650D01*
X117808058Y-74262696D01*
X117808064Y-74262694D01*
X117976151Y-74177048D01*
X117976153Y-74177045D01*
X117980493Y-74174835D01*
X117980939Y-74175712D01*
X117996014Y-74171461D01*
X118001256Y-74158807D01*
X117563522Y-73721074D01*
X117530037Y-73659751D01*
X117535021Y-73590060D01*
X117576892Y-73534126D01*
X117589205Y-73526005D01*
X117607799Y-73515270D01*
X117620930Y-73507689D01*
X117703689Y-73424930D01*
X117722005Y-73393204D01*
X117772571Y-73344988D01*
X117841178Y-73331764D01*
X117906043Y-73357731D01*
X117917074Y-73367522D01*
X118354807Y-73805256D01*
X118354807Y-73805255D01*
X118354808Y-73805256D01*
X118354808Y-73805255D01*
X118367464Y-73800013D01*
X118371715Y-73784941D01*
X118370835Y-73784493D01*
X118373045Y-73780153D01*
X118373048Y-73780151D01*
X118458694Y-73612064D01*
X118458695Y-73612061D01*
X118465844Y-73590060D01*
X118516987Y-73432653D01*
X118516986Y-73432653D01*
X118516988Y-73432650D01*
X118546500Y-73246323D01*
X118546500Y-73057676D01*
X118516988Y-72871349D01*
X118506500Y-72839070D01*
X118458703Y-72691961D01*
X118458696Y-72691942D01*
X118458696Y-72691941D01*
X118458695Y-72691940D01*
X118458695Y-72691938D01*
X118458694Y-72691935D01*
X118373046Y-72523844D01*
X118371350Y-72521510D01*
X118354810Y-72498743D01*
X118354809Y-72498743D01*
X118354808Y-72498743D01*
X118354807Y-72498743D01*
X117917074Y-72936476D01*
X117855751Y-72969961D01*
X117786059Y-72964977D01*
X117730126Y-72923105D01*
X117722006Y-72910795D01*
X117703691Y-72879073D01*
X117703687Y-72879068D01*
X117620931Y-72796312D01*
X117620926Y-72796308D01*
X117589201Y-72777992D01*
X117540986Y-72727425D01*
X117527762Y-72658818D01*
X117553730Y-72593954D01*
X117563506Y-72582939D01*
X118001255Y-72145190D01*
X118001255Y-72145189D01*
X117999411Y-72143849D01*
X117976159Y-72126955D01*
X117808060Y-72041304D01*
X117760040Y-72025701D01*
X117703227Y-71987304D01*
X117702353Y-71986259D01*
X117693039Y-71979892D01*
X117665834Y-71915536D01*
X117677740Y-71846688D01*
X117697652Y-71817559D01*
X117699756Y-71815267D01*
X117752797Y-71781176D01*
X117808256Y-71763157D01*
X117976413Y-71677477D01*
X118129096Y-71566546D01*
X118262546Y-71433096D01*
X118373477Y-71280413D01*
X118459157Y-71112256D01*
X118517477Y-70932767D01*
X118524962Y-70885501D01*
X118530598Y-70849924D01*
X118530598Y-70849917D01*
X118547000Y-70746368D01*
X118547000Y-70557631D01*
X118546999Y-70557625D01*
X121146500Y-70557625D01*
X121146500Y-70746373D01*
X121176019Y-70932750D01*
X121176021Y-70932761D01*
X121176025Y-70932775D01*
X121234344Y-71112260D01*
X121300494Y-71242086D01*
X121320023Y-71280413D01*
X121430954Y-71433096D01*
X121564404Y-71566546D01*
X121717087Y-71677477D01*
X121796534Y-71717957D01*
X121885239Y-71763155D01*
X121885241Y-71763155D01*
X121885244Y-71763157D01*
X121933459Y-71778823D01*
X121990302Y-71817255D01*
X121991160Y-71818283D01*
X122000478Y-71824656D01*
X122027667Y-71889019D01*
X122015743Y-71957863D01*
X121995817Y-71986995D01*
X121993722Y-71989277D01*
X121940700Y-72023348D01*
X121885431Y-72041307D01*
X121717341Y-72126954D01*
X121716614Y-72127423D01*
X121715010Y-72128647D01*
X121692243Y-72145186D01*
X121692243Y-72145191D01*
X122129978Y-72582925D01*
X122163463Y-72644248D01*
X122158479Y-72713939D01*
X122116608Y-72769873D01*
X122104297Y-72777993D01*
X122072573Y-72796308D01*
X122072568Y-72796312D01*
X121989812Y-72879068D01*
X121989808Y-72879073D01*
X121971493Y-72910797D01*
X121920926Y-72959013D01*
X121852319Y-72972236D01*
X121787454Y-72946268D01*
X121776425Y-72936478D01*
X121617940Y-72777993D01*
X121338691Y-72498743D01*
X121338687Y-72498743D01*
X121322147Y-72521510D01*
X121320923Y-72523114D01*
X121320454Y-72523841D01*
X121234808Y-72691930D01*
X121234802Y-72691941D01*
X121234798Y-72691950D01*
X121176511Y-72871345D01*
X121147000Y-73057670D01*
X121147000Y-73246328D01*
X121176511Y-73432653D01*
X121234798Y-73612048D01*
X121234802Y-73612057D01*
X121234803Y-73612060D01*
X121234804Y-73612061D01*
X121234805Y-73612063D01*
X121300070Y-73740151D01*
X121320454Y-73780157D01*
X121338688Y-73805254D01*
X121338689Y-73805255D01*
X121338690Y-73805255D01*
X121776426Y-73367518D01*
X121837747Y-73334035D01*
X121907438Y-73339019D01*
X121963372Y-73380890D01*
X121971492Y-73393201D01*
X121989808Y-73424926D01*
X121989810Y-73424929D01*
X121989811Y-73424930D01*
X122072570Y-73507689D01*
X122104295Y-73526005D01*
X122152511Y-73576572D01*
X122165735Y-73645179D01*
X122139767Y-73710044D01*
X122129977Y-73721074D01*
X121692243Y-74158807D01*
X121692243Y-74158808D01*
X121692243Y-74158809D01*
X121717344Y-74177046D01*
X121885435Y-74262694D01*
X121885438Y-74262695D01*
X121885440Y-74262695D01*
X121885441Y-74262696D01*
X121885461Y-74262703D01*
X121933453Y-74278296D01*
X121990270Y-74316694D01*
X121991170Y-74317771D01*
X122000494Y-74324151D01*
X122027671Y-74388519D01*
X122015733Y-74457361D01*
X121995801Y-74486489D01*
X121993707Y-74488769D01*
X121940703Y-74522822D01*
X121885231Y-74540847D01*
X121717084Y-74626524D01*
X121629974Y-74689812D01*
X121629975Y-74689813D01*
X121576273Y-74728830D01*
X121568894Y-74732962D01*
X121426460Y-74875396D01*
X121422329Y-74882773D01*
X121320025Y-75023582D01*
X121234345Y-75191738D01*
X121176021Y-75371239D01*
X121146500Y-75557625D01*
X121146500Y-75746373D01*
X121176019Y-75932750D01*
X121176021Y-75932761D01*
X121176025Y-75932775D01*
X121234344Y-76112260D01*
X121299642Y-76240413D01*
X121320023Y-76280413D01*
X121430954Y-76433096D01*
X121564404Y-76566546D01*
X121717087Y-76677477D01*
X121796534Y-76717957D01*
X121885239Y-76763155D01*
X121885241Y-76763155D01*
X121885244Y-76763157D01*
X122064733Y-76821477D01*
X122134634Y-76832548D01*
X122251132Y-76851000D01*
X122251137Y-76851000D01*
X122439867Y-76851000D01*
X122439868Y-76851000D01*
X122543420Y-76834598D01*
X122543421Y-76834598D01*
X122571035Y-76830224D01*
X122626267Y-76821477D01*
X122805756Y-76763157D01*
X122973913Y-76677477D01*
X123126596Y-76566546D01*
X123260046Y-76433096D01*
X123370977Y-76280413D01*
X123456657Y-76112256D01*
X123514977Y-75932767D01*
X123532871Y-75819786D01*
X123544500Y-75746368D01*
X123544500Y-75557631D01*
X123514977Y-75371236D01*
X123514977Y-75371233D01*
X123456657Y-75191744D01*
X123456655Y-75191741D01*
X123456655Y-75191739D01*
X123382543Y-75046287D01*
X123370977Y-75023587D01*
X123282439Y-74901726D01*
X123282439Y-74901724D01*
X123261501Y-74872907D01*
X123260448Y-74871394D01*
X123260044Y-74870902D01*
X123220043Y-74830901D01*
X123126596Y-74737454D01*
X122973913Y-74626523D01*
X122968484Y-74623757D01*
X122968476Y-74623752D01*
X122863604Y-74570317D01*
X122805760Y-74540844D01*
X122766198Y-74527989D01*
X122766192Y-74527987D01*
X122757536Y-74525174D01*
X122725870Y-74509604D01*
X122716535Y-74503221D01*
X122672306Y-74449132D01*
X122664341Y-74379718D01*
X122695157Y-74317030D01*
X122697256Y-74314743D01*
X122750299Y-74280650D01*
X122805558Y-74262696D01*
X122805564Y-74262694D01*
X122973651Y-74177048D01*
X122973653Y-74177045D01*
X122977993Y-74174835D01*
X122978439Y-74175712D01*
X122993514Y-74171461D01*
X122998756Y-74158807D01*
X122561022Y-73721074D01*
X122527537Y-73659751D01*
X122532521Y-73590060D01*
X122574392Y-73534126D01*
X122586705Y-73526005D01*
X122605299Y-73515270D01*
X122618430Y-73507689D01*
X122701189Y-73424930D01*
X122719505Y-73393204D01*
X122770071Y-73344988D01*
X122838678Y-73331764D01*
X122903543Y-73357731D01*
X122914574Y-73367522D01*
X123352307Y-73805256D01*
X123352307Y-73805255D01*
X123352308Y-73805256D01*
X123352308Y-73805255D01*
X123364964Y-73800013D01*
X123369215Y-73784941D01*
X123368335Y-73784493D01*
X123370545Y-73780153D01*
X123370548Y-73780151D01*
X123456194Y-73612064D01*
X123456195Y-73612061D01*
X123463344Y-73590060D01*
X123514487Y-73432653D01*
X123514486Y-73432653D01*
X123514488Y-73432650D01*
X123544000Y-73246323D01*
X123544000Y-73057676D01*
X123514488Y-72871349D01*
X123504000Y-72839070D01*
X123456203Y-72691961D01*
X123456196Y-72691942D01*
X123456196Y-72691941D01*
X123456195Y-72691940D01*
X123456195Y-72691938D01*
X123456194Y-72691935D01*
X123370546Y-72523844D01*
X123368850Y-72521510D01*
X123352310Y-72498743D01*
X123352309Y-72498743D01*
X123352308Y-72498743D01*
X123352307Y-72498743D01*
X122914574Y-72936476D01*
X122853251Y-72969961D01*
X122783559Y-72964977D01*
X122727626Y-72923105D01*
X122719506Y-72910795D01*
X122701191Y-72879073D01*
X122701187Y-72879068D01*
X122618431Y-72796312D01*
X122618430Y-72796311D01*
X122610385Y-72791666D01*
X122586701Y-72777992D01*
X122538486Y-72727424D01*
X122525264Y-72658817D01*
X122551232Y-72593952D01*
X122561013Y-72582932D01*
X122942746Y-72201200D01*
X122998755Y-72145190D01*
X122998755Y-72145189D01*
X122996911Y-72143849D01*
X122973659Y-72126955D01*
X122805560Y-72041304D01*
X122757540Y-72025701D01*
X122700727Y-71987304D01*
X122699853Y-71986259D01*
X122690539Y-71979892D01*
X122663334Y-71915536D01*
X122675240Y-71846688D01*
X122695152Y-71817559D01*
X122697256Y-71815267D01*
X122750297Y-71781176D01*
X122805756Y-71763157D01*
X122973913Y-71677477D01*
X123126596Y-71566546D01*
X123260046Y-71433096D01*
X123370977Y-71280413D01*
X123456657Y-71112256D01*
X123514977Y-70932767D01*
X123522462Y-70885501D01*
X123528098Y-70849924D01*
X123528098Y-70849917D01*
X123544500Y-70746368D01*
X123544500Y-70557631D01*
X123524818Y-70433367D01*
X123514977Y-70371233D01*
X123456657Y-70191744D01*
X123370977Y-70023587D01*
X123260046Y-69870904D01*
X123126596Y-69737454D01*
X122973913Y-69626523D01*
X122973911Y-69626522D01*
X122805760Y-69540844D01*
X122639793Y-69486917D01*
X122639782Y-69486914D01*
X122626267Y-69482523D01*
X122626265Y-69482522D01*
X122626263Y-69482522D01*
X122611866Y-69480241D01*
X122611859Y-69480240D01*
X122439873Y-69453000D01*
X122439868Y-69453000D01*
X122439863Y-69453000D01*
X122251137Y-69453000D01*
X122251132Y-69453000D01*
X122251127Y-69453000D01*
X122064739Y-69482521D01*
X121885238Y-69540845D01*
X121717084Y-69626524D01*
X121629974Y-69689812D01*
X121629975Y-69689813D01*
X121576273Y-69728830D01*
X121568894Y-69732962D01*
X121426462Y-69875394D01*
X121422330Y-69882773D01*
X121383313Y-69936475D01*
X121383312Y-69936474D01*
X121320025Y-70023582D01*
X121234345Y-70191738D01*
X121176021Y-70371239D01*
X121146500Y-70557625D01*
X118546999Y-70557625D01*
X118527318Y-70433367D01*
X118517477Y-70371233D01*
X118459157Y-70191744D01*
X118373477Y-70023587D01*
X118262546Y-69870904D01*
X118129096Y-69737454D01*
X117976413Y-69626523D01*
X117976411Y-69626522D01*
X117808260Y-69540844D01*
X117642293Y-69486917D01*
X117642282Y-69486914D01*
X117628767Y-69482523D01*
X117628765Y-69482522D01*
X117628763Y-69482522D01*
X117614366Y-69480241D01*
X117614359Y-69480240D01*
X117442373Y-69453000D01*
X117442368Y-69453000D01*
X117442363Y-69453000D01*
X117253637Y-69453000D01*
X117253632Y-69453000D01*
X117253627Y-69453000D01*
X117067239Y-69482521D01*
X116887738Y-69540845D01*
X116719584Y-69626524D01*
X116632474Y-69689812D01*
X116632475Y-69689813D01*
X116578773Y-69728830D01*
X116571394Y-69732962D01*
X116428962Y-69875394D01*
X116424830Y-69882773D01*
X116385813Y-69936475D01*
X116385812Y-69936474D01*
X116322525Y-70023582D01*
X116236845Y-70191738D01*
X116178521Y-70371239D01*
X116149000Y-70557625D01*
X113467000Y-70557625D01*
X113467000Y-70517631D01*
X113444950Y-70378417D01*
X113437478Y-70331239D01*
X113437477Y-70331232D01*
X113387116Y-70176239D01*
X113379157Y-70151744D01*
X113379155Y-70151741D01*
X113379155Y-70151739D01*
X113316944Y-70029644D01*
X113293477Y-69983587D01*
X113182546Y-69830904D01*
X113049096Y-69697454D01*
X112896413Y-69586523D01*
X112728260Y-69500844D01*
X112562293Y-69446917D01*
X112562282Y-69446914D01*
X112548767Y-69442523D01*
X112548765Y-69442522D01*
X112548763Y-69442522D01*
X112534366Y-69440241D01*
X112534359Y-69440240D01*
X112362373Y-69413000D01*
X112362368Y-69413000D01*
X112362363Y-69413000D01*
X112173637Y-69413000D01*
X112173632Y-69413000D01*
X112173627Y-69413000D01*
X111987239Y-69442521D01*
X111807738Y-69500845D01*
X111639585Y-69586523D01*
X111605679Y-69611158D01*
X111584532Y-69626523D01*
X111498774Y-69688830D01*
X111491394Y-69692962D01*
X111348961Y-69835395D01*
X111344831Y-69842771D01*
X111324396Y-69870899D01*
X111324394Y-69870902D01*
X111242523Y-69983586D01*
X111242520Y-69983590D01*
X111242519Y-69983593D01*
X111156845Y-70151738D01*
X111098521Y-70331239D01*
X111069000Y-70517625D01*
X111069000Y-70706368D01*
X111068999Y-70706368D01*
X109104388Y-70706368D01*
X109134899Y-70664371D01*
X109205051Y-70567816D01*
X109301557Y-70378412D01*
X109367246Y-70176243D01*
X109400500Y-69966287D01*
X109400500Y-69753713D01*
X109367246Y-69543757D01*
X109301557Y-69341588D01*
X109205051Y-69152184D01*
X109205049Y-69152181D01*
X109205048Y-69152179D01*
X109204702Y-69151703D01*
X109204700Y-69151699D01*
X109080112Y-68980216D01*
X108929782Y-68829886D01*
X108757824Y-68704953D01*
X108757258Y-68704606D01*
X108755627Y-68703357D01*
X108753901Y-68702103D01*
X108753932Y-68702059D01*
X108736960Y-68689062D01*
X108726683Y-68679357D01*
X108691457Y-68619017D01*
X108694445Y-68549212D01*
X108730613Y-68495493D01*
X108737783Y-68489281D01*
X108754187Y-68477275D01*
X108757816Y-68475051D01*
X108757817Y-68475050D01*
X108779789Y-68459086D01*
X108929786Y-68350109D01*
X108929787Y-68350106D01*
X108929790Y-68350105D01*
X108929792Y-68350104D01*
X108929793Y-68350102D01*
X108929847Y-68350063D01*
X108930605Y-68349290D01*
X109080104Y-68199792D01*
X109080106Y-68199788D01*
X109080109Y-68199786D01*
X109205048Y-68027820D01*
X109205047Y-68027820D01*
X109205051Y-68027816D01*
X109205053Y-68027810D01*
X109225445Y-67999744D01*
X109233730Y-67971529D01*
X109301557Y-67838412D01*
X109367246Y-67636243D01*
X109400500Y-67426287D01*
X109400500Y-67213713D01*
X109367246Y-67003757D01*
X109301557Y-66801588D01*
X109205051Y-66612184D01*
X109205049Y-66612181D01*
X109205048Y-66612179D01*
X109204702Y-66611703D01*
X109204700Y-66611699D01*
X109080112Y-66440216D01*
X108929782Y-66289886D01*
X108757824Y-66164953D01*
X108757258Y-66164606D01*
X108755627Y-66163357D01*
X108753901Y-66162103D01*
X108753932Y-66162059D01*
X108736960Y-66149062D01*
X108726683Y-66139357D01*
X108691457Y-66079017D01*
X108693604Y-66028848D01*
X111549499Y-66028848D01*
X111580257Y-66183471D01*
X111580264Y-66183502D01*
X111640598Y-66329165D01*
X111640603Y-66329174D01*
X111640613Y-66329191D01*
X111728211Y-66460290D01*
X111728212Y-66460291D01*
X111728217Y-66460297D01*
X111839701Y-66571781D01*
X111839707Y-66571786D01*
X111839711Y-66571789D01*
X111970814Y-66659390D01*
X111970827Y-66659397D01*
X111970829Y-66659397D01*
X111970833Y-66659400D01*
X112112443Y-66718056D01*
X112114399Y-66718885D01*
X112120377Y-66721482D01*
X112121338Y-66722284D01*
X112128428Y-66725330D01*
X112146581Y-66734824D01*
X112196864Y-66783335D01*
X112212938Y-66851330D01*
X112212938Y-66851333D01*
X112212658Y-66856563D01*
X112191946Y-66918811D01*
X112190629Y-66920782D01*
X112190606Y-66920818D01*
X112190602Y-66920825D01*
X112190597Y-66920836D01*
X112130264Y-67066496D01*
X112130257Y-67066527D01*
X112099500Y-67221150D01*
X112099500Y-67221153D01*
X112099500Y-67378846D01*
X112099500Y-67378848D01*
X112099499Y-67378848D01*
X112130257Y-67533471D01*
X112130263Y-67533497D01*
X112130263Y-67533500D01*
X112190598Y-67679165D01*
X112190603Y-67679174D01*
X112190613Y-67679191D01*
X112278211Y-67810290D01*
X112278217Y-67810297D01*
X112389701Y-67921781D01*
X112389707Y-67921786D01*
X112389711Y-67921789D01*
X112520814Y-68009390D01*
X112520827Y-68009397D01*
X112666498Y-68069735D01*
X112666503Y-68069737D01*
X112821153Y-68100499D01*
X112821156Y-68100500D01*
X112821158Y-68100500D01*
X112978844Y-68100500D01*
X112978845Y-68100499D01*
X113133497Y-68069737D01*
X113279179Y-68009394D01*
X113410289Y-67921789D01*
X113521789Y-67810289D01*
X113609394Y-67679179D01*
X113669737Y-67533497D01*
X113700500Y-67378842D01*
X113700500Y-67315784D01*
X113705523Y-67280848D01*
X113709927Y-67265850D01*
X113747700Y-67207074D01*
X113753252Y-67202263D01*
X113810263Y-67174357D01*
X113833497Y-67169737D01*
X113979179Y-67109394D01*
X114110289Y-67021789D01*
X114221789Y-66910289D01*
X114309394Y-66779179D01*
X114369737Y-66633497D01*
X114400500Y-66478842D01*
X114400500Y-66321158D01*
X114400500Y-66321155D01*
X114400500Y-66320971D01*
X114400064Y-66318966D01*
X114369738Y-66166506D01*
X114369735Y-66166498D01*
X114367244Y-66160483D01*
X114367244Y-66160482D01*
X114309400Y-66020833D01*
X114309395Y-66020824D01*
X114309390Y-66020814D01*
X114221789Y-65889711D01*
X114221786Y-65889707D01*
X114221781Y-65889701D01*
X114110297Y-65778217D01*
X114110291Y-65778212D01*
X114110290Y-65778211D01*
X113979191Y-65690613D01*
X113979190Y-65690612D01*
X113979185Y-65690609D01*
X113979172Y-65690602D01*
X113979165Y-65690598D01*
X113833502Y-65630264D01*
X113833471Y-65630257D01*
X113678847Y-65599500D01*
X113678845Y-65599500D01*
X113678842Y-65599500D01*
X113521158Y-65599500D01*
X113521155Y-65599500D01*
X113521153Y-65599500D01*
X113366527Y-65630257D01*
X113366511Y-65630260D01*
X113366510Y-65630261D01*
X113366498Y-65630264D01*
X113297420Y-65658877D01*
X113256414Y-65675862D01*
X113222220Y-65684589D01*
X113206681Y-65686260D01*
X113137921Y-65673856D01*
X113137914Y-65673853D01*
X113136294Y-65673042D01*
X113089944Y-65632876D01*
X113085532Y-65626521D01*
X113072829Y-65603256D01*
X113059397Y-65570827D01*
X113059390Y-65570814D01*
X112971789Y-65439711D01*
X112971786Y-65439707D01*
X112971781Y-65439701D01*
X112860297Y-65328217D01*
X112860291Y-65328212D01*
X112860290Y-65328211D01*
X112729191Y-65240613D01*
X112729190Y-65240612D01*
X112729185Y-65240609D01*
X112729172Y-65240602D01*
X112729170Y-65240601D01*
X112729165Y-65240598D01*
X112583502Y-65180264D01*
X112583471Y-65180257D01*
X112428847Y-65149500D01*
X112428845Y-65149500D01*
X112428842Y-65149500D01*
X112271158Y-65149500D01*
X112271155Y-65149500D01*
X112271153Y-65149500D01*
X112116527Y-65180257D01*
X112116496Y-65180264D01*
X111970833Y-65240598D01*
X111970829Y-65240601D01*
X111970807Y-65240613D01*
X111839708Y-65328211D01*
X111839707Y-65328212D01*
X111839701Y-65328217D01*
X111728217Y-65439701D01*
X111728212Y-65439707D01*
X111728211Y-65439708D01*
X111640613Y-65570807D01*
X111640603Y-65570824D01*
X111640598Y-65570833D01*
X111580264Y-65716496D01*
X111580257Y-65716527D01*
X111549500Y-65871150D01*
X111549500Y-65871152D01*
X111549500Y-65871153D01*
X111549500Y-66028846D01*
X111549500Y-66028848D01*
X111549499Y-66028848D01*
X108693604Y-66028848D01*
X108694445Y-66009212D01*
X108730612Y-65955495D01*
X108737783Y-65949281D01*
X108754194Y-65937269D01*
X108757797Y-65935060D01*
X108757816Y-65935051D01*
X108845765Y-65871153D01*
X108929786Y-65810109D01*
X108929788Y-65810106D01*
X108929792Y-65810104D01*
X108929796Y-65810099D01*
X108929848Y-65810063D01*
X108930609Y-65809286D01*
X109080104Y-65659792D01*
X109080106Y-65659788D01*
X109080109Y-65659786D01*
X109205048Y-65487820D01*
X109205047Y-65487820D01*
X109205051Y-65487816D01*
X109205053Y-65487810D01*
X109225445Y-65459744D01*
X109233730Y-65431529D01*
X109301557Y-65298412D01*
X109367246Y-65096243D01*
X109400500Y-64886287D01*
X109400500Y-64778848D01*
X114699499Y-64778848D01*
X114730257Y-64933471D01*
X114730264Y-64933502D01*
X114790598Y-65079165D01*
X114790603Y-65079174D01*
X114790613Y-65079191D01*
X114878211Y-65210290D01*
X114878212Y-65210291D01*
X114878217Y-65210297D01*
X114989701Y-65321781D01*
X114989707Y-65321786D01*
X114989711Y-65321789D01*
X115120814Y-65409390D01*
X115120827Y-65409397D01*
X115194013Y-65439711D01*
X115266503Y-65469737D01*
X115266505Y-65469737D01*
X115266510Y-65469739D01*
X115350279Y-65486401D01*
X115421153Y-65500499D01*
X115421156Y-65500500D01*
X115421158Y-65500500D01*
X115578844Y-65500500D01*
X115578845Y-65500499D01*
X115733497Y-65469737D01*
X115879179Y-65409394D01*
X116010289Y-65321789D01*
X116121789Y-65210289D01*
X116209394Y-65079179D01*
X116269737Y-64933497D01*
X116300500Y-64778842D01*
X116300500Y-64621158D01*
X116300500Y-64621155D01*
X116300500Y-64620973D01*
X116300065Y-64618971D01*
X116278269Y-64509396D01*
X116270380Y-64469736D01*
X116269737Y-64466503D01*
X116209794Y-64321786D01*
X116209397Y-64320827D01*
X116209390Y-64320814D01*
X116121789Y-64189711D01*
X116121786Y-64189707D01*
X116121781Y-64189701D01*
X116010297Y-64078217D01*
X116010291Y-64078212D01*
X116010290Y-64078211D01*
X115879191Y-63990613D01*
X115879190Y-63990612D01*
X115879185Y-63990609D01*
X115879172Y-63990602D01*
X115879165Y-63990598D01*
X115733502Y-63930264D01*
X115733471Y-63930257D01*
X115578847Y-63899500D01*
X115578845Y-63899500D01*
X115578842Y-63899500D01*
X115421158Y-63899500D01*
X115421155Y-63899500D01*
X115421153Y-63899500D01*
X115266527Y-63930257D01*
X115266496Y-63930264D01*
X115120833Y-63990598D01*
X115120824Y-63990603D01*
X115120807Y-63990613D01*
X114989708Y-64078211D01*
X114989707Y-64078212D01*
X114989701Y-64078217D01*
X114878217Y-64189701D01*
X114878212Y-64189707D01*
X114878211Y-64189708D01*
X114790613Y-64320807D01*
X114790603Y-64320824D01*
X114790598Y-64320833D01*
X114730264Y-64466496D01*
X114730257Y-64466527D01*
X114699500Y-64621150D01*
X114699500Y-64621153D01*
X114699500Y-64778846D01*
X114699500Y-64778848D01*
X114699499Y-64778848D01*
X109400500Y-64778848D01*
X109400500Y-64673713D01*
X109367246Y-64463757D01*
X109301557Y-64261588D01*
X109205051Y-64072184D01*
X109205049Y-64072181D01*
X109205048Y-64072179D01*
X109204702Y-64071703D01*
X109204700Y-64071699D01*
X109080112Y-63900217D01*
X109080111Y-63900216D01*
X109080109Y-63900213D01*
X108958744Y-63778848D01*
X109999499Y-63778848D01*
X110030257Y-63933471D01*
X110030264Y-63933502D01*
X110090598Y-64079165D01*
X110090602Y-64079172D01*
X110090607Y-64079182D01*
X110090613Y-64079191D01*
X110178211Y-64210290D01*
X110178212Y-64210291D01*
X110178217Y-64210297D01*
X110289701Y-64321781D01*
X110289707Y-64321786D01*
X110289711Y-64321789D01*
X110420814Y-64409390D01*
X110420827Y-64409397D01*
X110552066Y-64463757D01*
X110566503Y-64469737D01*
X110715279Y-64499330D01*
X110716989Y-64499722D01*
X110717245Y-64499865D01*
X110721155Y-64500500D01*
X110878844Y-64500500D01*
X110882964Y-64500500D01*
X110890814Y-64498118D01*
X111033497Y-64469737D01*
X111179179Y-64409394D01*
X111310289Y-64321789D01*
X111421789Y-64210289D01*
X111509394Y-64079179D01*
X111512294Y-64072179D01*
X111538301Y-64009390D01*
X111569737Y-63933497D01*
X111580607Y-63878848D01*
X112130499Y-63878848D01*
X112161257Y-64033471D01*
X112161264Y-64033502D01*
X112221598Y-64179165D01*
X112221603Y-64179174D01*
X112221613Y-64179191D01*
X112309211Y-64310290D01*
X112309212Y-64310291D01*
X112309217Y-64310297D01*
X112420701Y-64421781D01*
X112420707Y-64421786D01*
X112420711Y-64421789D01*
X112551814Y-64509390D01*
X112551827Y-64509397D01*
X112697498Y-64569735D01*
X112697503Y-64569737D01*
X112852153Y-64600499D01*
X112852156Y-64600500D01*
X112852158Y-64600500D01*
X113009844Y-64600500D01*
X113009845Y-64600499D01*
X113164497Y-64569737D01*
X113310179Y-64509394D01*
X113310181Y-64509392D01*
X113310184Y-64509391D01*
X113378475Y-64463760D01*
X113441289Y-64421789D01*
X113552789Y-64310289D01*
X113640394Y-64179179D01*
X113700737Y-64033497D01*
X113708808Y-63992916D01*
X113720550Y-63959635D01*
X113727795Y-63945785D01*
X113776308Y-63895508D01*
X113777892Y-63894606D01*
X113837028Y-63878386D01*
X113844761Y-63878248D01*
X113871163Y-63880610D01*
X113877599Y-63881889D01*
X113888455Y-63884049D01*
X113941531Y-63894607D01*
X113971154Y-63900500D01*
X114128844Y-63900500D01*
X114132964Y-63900500D01*
X114140814Y-63898118D01*
X114283497Y-63869737D01*
X114427011Y-63810292D01*
X114429172Y-63809397D01*
X114429172Y-63809396D01*
X114429179Y-63809394D01*
X114560289Y-63721789D01*
X114671789Y-63610289D01*
X114759394Y-63479179D01*
X114772520Y-63447491D01*
X114778885Y-63432122D01*
X114819737Y-63333497D01*
X114850500Y-63178842D01*
X114850500Y-63021158D01*
X114850500Y-63021155D01*
X114850500Y-63020973D01*
X114850065Y-63018971D01*
X114843601Y-62986474D01*
X114832419Y-62930261D01*
X114819737Y-62866503D01*
X114804138Y-62828844D01*
X114804137Y-62828842D01*
X114759402Y-62720840D01*
X114759399Y-62720833D01*
X114759397Y-62720827D01*
X114759390Y-62720814D01*
X114671789Y-62589711D01*
X114671786Y-62589707D01*
X114671781Y-62589701D01*
X114560297Y-62478217D01*
X114560290Y-62478211D01*
X114560288Y-62478210D01*
X114429191Y-62390613D01*
X114429186Y-62390610D01*
X114429185Y-62390609D01*
X114429172Y-62390602D01*
X114429165Y-62390598D01*
X114283502Y-62330264D01*
X114283471Y-62330257D01*
X114128847Y-62299500D01*
X114128845Y-62299500D01*
X114128842Y-62299500D01*
X113971158Y-62299500D01*
X113971155Y-62299500D01*
X113971153Y-62299500D01*
X113816527Y-62330257D01*
X113816496Y-62330264D01*
X113670833Y-62390598D01*
X113670824Y-62390603D01*
X113670807Y-62390613D01*
X113539711Y-62478210D01*
X113539709Y-62478211D01*
X113539701Y-62478217D01*
X113428217Y-62589701D01*
X113428212Y-62589707D01*
X113428211Y-62589708D01*
X113340613Y-62720807D01*
X113340603Y-62720824D01*
X113340598Y-62720833D01*
X113280272Y-62866475D01*
X113280264Y-62866499D01*
X113280259Y-62866513D01*
X113272191Y-62907077D01*
X113260448Y-62940364D01*
X113253201Y-62954217D01*
X113204683Y-63004494D01*
X113204678Y-63004497D01*
X113203106Y-63005392D01*
X113143967Y-63021613D01*
X113136233Y-63021751D01*
X113109830Y-63019388D01*
X113009848Y-62999500D01*
X113009845Y-62999500D01*
X113009842Y-62999500D01*
X112852158Y-62999500D01*
X112852155Y-62999500D01*
X112852153Y-62999500D01*
X112697527Y-63030257D01*
X112697496Y-63030264D01*
X112551833Y-63090598D01*
X112551824Y-63090603D01*
X112551807Y-63090613D01*
X112420708Y-63178211D01*
X112420707Y-63178212D01*
X112420701Y-63178217D01*
X112309217Y-63289701D01*
X112309212Y-63289707D01*
X112309211Y-63289708D01*
X112221613Y-63420807D01*
X112221603Y-63420824D01*
X112221598Y-63420833D01*
X112161264Y-63566496D01*
X112161257Y-63566527D01*
X112130500Y-63721150D01*
X112130500Y-63721153D01*
X112130500Y-63878846D01*
X112130500Y-63878848D01*
X112130499Y-63878848D01*
X111580607Y-63878848D01*
X111600500Y-63778842D01*
X111600500Y-63621158D01*
X111600500Y-63621155D01*
X111600499Y-63621153D01*
X111583061Y-63533489D01*
X111569737Y-63466503D01*
X111569735Y-63466498D01*
X111509397Y-63320827D01*
X111509390Y-63320814D01*
X111421789Y-63189711D01*
X111421786Y-63189707D01*
X111421781Y-63189701D01*
X111310297Y-63078217D01*
X111310291Y-63078212D01*
X111310290Y-63078211D01*
X111179191Y-62990613D01*
X111179190Y-62990612D01*
X111179185Y-62990609D01*
X111179172Y-62990602D01*
X111179165Y-62990598D01*
X111033502Y-62930264D01*
X111033471Y-62930257D01*
X110878847Y-62899500D01*
X110878845Y-62899500D01*
X110878842Y-62899500D01*
X110721158Y-62899500D01*
X110721155Y-62899500D01*
X110721153Y-62899500D01*
X110566527Y-62930257D01*
X110566496Y-62930264D01*
X110420833Y-62990598D01*
X110420824Y-62990603D01*
X110420807Y-62990613D01*
X110289708Y-63078211D01*
X110289707Y-63078212D01*
X110289701Y-63078217D01*
X110178217Y-63189701D01*
X110178212Y-63189707D01*
X110090613Y-63320807D01*
X110090603Y-63320824D01*
X110090598Y-63320833D01*
X110030264Y-63466496D01*
X110030257Y-63466527D01*
X109999500Y-63621150D01*
X109999500Y-63621153D01*
X109999500Y-63778846D01*
X109999500Y-63778848D01*
X109999499Y-63778848D01*
X108958744Y-63778848D01*
X108929792Y-63749896D01*
X108929784Y-63749890D01*
X108929739Y-63749857D01*
X108882682Y-63715668D01*
X108882615Y-63715620D01*
X108757816Y-63624949D01*
X108751568Y-63621766D01*
X108743980Y-63616331D01*
X108736849Y-63607213D01*
X108720546Y-63593916D01*
X108720513Y-63593947D01*
X108720298Y-63593713D01*
X108719266Y-63592871D01*
X108717579Y-63590758D01*
X108717576Y-63590755D01*
X108714860Y-63587352D01*
X108716453Y-63586080D01*
X108709851Y-63572689D01*
X108700939Y-63561293D01*
X108700175Y-63553065D01*
X108689226Y-63530856D01*
X108697115Y-63461433D01*
X108730181Y-63415867D01*
X108737781Y-63409282D01*
X108754210Y-63397259D01*
X108757798Y-63395059D01*
X108757816Y-63395051D01*
X108842533Y-63333501D01*
X108929786Y-63270109D01*
X108929788Y-63270106D01*
X108929792Y-63270104D01*
X108929798Y-63270097D01*
X108929848Y-63270062D01*
X108930605Y-63269290D01*
X109080104Y-63119792D01*
X109080106Y-63119788D01*
X109080109Y-63119786D01*
X109205048Y-62947820D01*
X109205047Y-62947820D01*
X109205051Y-62947816D01*
X109205053Y-62947810D01*
X109225445Y-62919744D01*
X109233730Y-62891529D01*
X109301557Y-62758412D01*
X109367246Y-62556243D01*
X109400500Y-62346287D01*
X109400500Y-62133713D01*
X109391810Y-62078848D01*
X115249499Y-62078848D01*
X115280257Y-62233471D01*
X115280264Y-62233502D01*
X115340598Y-62379165D01*
X115340603Y-62379174D01*
X115340613Y-62379191D01*
X115428211Y-62510290D01*
X115428212Y-62510291D01*
X115428217Y-62510297D01*
X115539701Y-62621781D01*
X115539706Y-62621785D01*
X115539707Y-62621786D01*
X115539711Y-62621789D01*
X115670814Y-62709390D01*
X115670827Y-62709397D01*
X115816498Y-62769735D01*
X115816503Y-62769737D01*
X115840810Y-62774571D01*
X115874719Y-62781317D01*
X115874743Y-62781321D01*
X115874767Y-62781326D01*
X115954118Y-62797111D01*
X115976308Y-62803730D01*
X115976694Y-62803885D01*
X115976694Y-62803886D01*
X115996778Y-62811987D01*
X116051587Y-62855321D01*
X116074266Y-62921401D01*
X116074604Y-62928900D01*
X116065291Y-62981935D01*
X116030266Y-63066493D01*
X116030264Y-63066497D01*
X116030172Y-63066776D01*
X116029834Y-63068649D01*
X115999500Y-63221148D01*
X115999500Y-63221153D01*
X115999500Y-63378846D01*
X115999500Y-63378848D01*
X115999499Y-63378848D01*
X116030257Y-63533471D01*
X116030261Y-63533489D01*
X116030263Y-63533500D01*
X116090598Y-63679165D01*
X116090603Y-63679174D01*
X116090613Y-63679191D01*
X116178211Y-63810290D01*
X116178212Y-63810291D01*
X116178217Y-63810297D01*
X116289701Y-63921781D01*
X116289707Y-63921786D01*
X116289711Y-63921789D01*
X116420814Y-64009390D01*
X116420827Y-64009397D01*
X116566498Y-64069735D01*
X116566503Y-64069737D01*
X116721153Y-64100499D01*
X116721156Y-64100500D01*
X116721158Y-64100500D01*
X116878844Y-64100500D01*
X116878845Y-64100499D01*
X117033497Y-64069737D01*
X117179179Y-64009394D01*
X117310289Y-63921789D01*
X117421789Y-63810289D01*
X117509394Y-63679179D01*
X117569737Y-63533497D01*
X117569739Y-63533489D01*
X117569740Y-63533487D01*
X117600499Y-63378846D01*
X117600500Y-63378844D01*
X117600500Y-63220971D01*
X117600064Y-63218966D01*
X117594244Y-63189707D01*
X117591957Y-63178210D01*
X117569737Y-63066503D01*
X117569310Y-63065472D01*
X117554727Y-63030264D01*
X117509400Y-62920833D01*
X117509395Y-62920824D01*
X117509390Y-62920814D01*
X117447940Y-62828848D01*
X118349499Y-62828848D01*
X118380257Y-62983471D01*
X118380264Y-62983502D01*
X118440598Y-63129165D01*
X118440603Y-63129174D01*
X118440613Y-63129191D01*
X118528211Y-63260290D01*
X118528212Y-63260291D01*
X118528217Y-63260297D01*
X118639701Y-63371781D01*
X118639707Y-63371786D01*
X118639711Y-63371789D01*
X118770814Y-63459390D01*
X118770827Y-63459397D01*
X118905820Y-63515312D01*
X118916503Y-63519737D01*
X118916507Y-63519737D01*
X118916510Y-63519739D01*
X119000279Y-63536401D01*
X119071153Y-63550499D01*
X119071156Y-63550500D01*
X119071158Y-63550500D01*
X119228844Y-63550500D01*
X119228845Y-63550499D01*
X119383497Y-63519737D01*
X119518769Y-63463706D01*
X119529172Y-63459397D01*
X119529172Y-63459396D01*
X119529179Y-63459394D01*
X119660289Y-63371789D01*
X119771789Y-63260289D01*
X119859394Y-63129179D01*
X119919737Y-62983497D01*
X119950500Y-62828842D01*
X119950500Y-62671158D01*
X119950500Y-62671155D01*
X119950500Y-62670973D01*
X119950065Y-62668972D01*
X119940679Y-62621786D01*
X119940679Y-62621785D01*
X119919738Y-62516508D01*
X119919737Y-62516507D01*
X119919737Y-62516503D01*
X119903876Y-62478210D01*
X119902011Y-62473707D01*
X119859400Y-62370833D01*
X119859395Y-62370824D01*
X119859390Y-62370814D01*
X119771789Y-62239711D01*
X119771786Y-62239707D01*
X119771781Y-62239701D01*
X119660297Y-62128217D01*
X119660291Y-62128212D01*
X119660290Y-62128211D01*
X119529191Y-62040613D01*
X119529190Y-62040612D01*
X119529185Y-62040609D01*
X119529172Y-62040602D01*
X119529165Y-62040598D01*
X119383502Y-61980264D01*
X119383471Y-61980257D01*
X119228847Y-61949500D01*
X119228845Y-61949500D01*
X119228842Y-61949500D01*
X119071158Y-61949500D01*
X119071155Y-61949500D01*
X119071153Y-61949500D01*
X118916527Y-61980257D01*
X118916496Y-61980264D01*
X118770833Y-62040598D01*
X118770824Y-62040603D01*
X118770807Y-62040613D01*
X118639708Y-62128211D01*
X118639707Y-62128212D01*
X118639701Y-62128217D01*
X118528217Y-62239701D01*
X118528212Y-62239707D01*
X118528211Y-62239708D01*
X118440613Y-62370807D01*
X118440603Y-62370824D01*
X118440598Y-62370833D01*
X118380264Y-62516496D01*
X118380257Y-62516527D01*
X118349500Y-62671150D01*
X118349500Y-62828844D01*
X118349499Y-62828848D01*
X117447940Y-62828848D01*
X117421789Y-62789711D01*
X117421786Y-62789707D01*
X117421781Y-62789701D01*
X117310297Y-62678217D01*
X117310291Y-62678212D01*
X117310290Y-62678211D01*
X117179191Y-62590613D01*
X117179190Y-62590612D01*
X117179185Y-62590609D01*
X117179172Y-62590602D01*
X117179165Y-62590598D01*
X117033502Y-62530264D01*
X117033471Y-62530257D01*
X116895839Y-62502880D01*
X116873601Y-62496242D01*
X116853178Y-62487995D01*
X116798386Y-62444641D01*
X116775731Y-62378546D01*
X116775731Y-62378543D01*
X116775396Y-62371034D01*
X116784712Y-62318054D01*
X116819737Y-62233497D01*
X116850500Y-62078842D01*
X116850500Y-61921158D01*
X116850500Y-61921155D01*
X116850500Y-61920973D01*
X116850065Y-61918972D01*
X116825560Y-61795779D01*
X116820395Y-61769815D01*
X116819983Y-61767403D01*
X116819737Y-61766504D01*
X116819734Y-61766497D01*
X116801133Y-61721588D01*
X116759397Y-61620827D01*
X116759390Y-61620814D01*
X116671789Y-61489711D01*
X116671786Y-61489707D01*
X116671781Y-61489701D01*
X116560297Y-61378217D01*
X116560291Y-61378212D01*
X116560290Y-61378211D01*
X116429191Y-61290613D01*
X116429190Y-61290612D01*
X116429185Y-61290609D01*
X116429172Y-61290602D01*
X116429165Y-61290598D01*
X116283502Y-61230264D01*
X116283471Y-61230257D01*
X116128847Y-61199500D01*
X116128845Y-61199500D01*
X116128842Y-61199500D01*
X115971158Y-61199500D01*
X115971155Y-61199500D01*
X115971153Y-61199500D01*
X115816527Y-61230257D01*
X115816496Y-61230264D01*
X115670833Y-61290598D01*
X115670824Y-61290603D01*
X115670807Y-61290613D01*
X115539708Y-61378211D01*
X115539707Y-61378212D01*
X115539701Y-61378217D01*
X115428217Y-61489701D01*
X115428212Y-61489707D01*
X115428211Y-61489708D01*
X115340613Y-61620807D01*
X115340603Y-61620824D01*
X115340598Y-61620833D01*
X115280264Y-61766496D01*
X115280257Y-61766527D01*
X115249500Y-61921150D01*
X115249500Y-61921153D01*
X115249500Y-62078846D01*
X115249500Y-62078848D01*
X115249499Y-62078848D01*
X109391810Y-62078848D01*
X109367246Y-61923757D01*
X109301557Y-61721588D01*
X109205051Y-61532184D01*
X109205049Y-61532181D01*
X109205048Y-61532179D01*
X109204702Y-61531703D01*
X109204700Y-61531699D01*
X109080112Y-61360216D01*
X108929782Y-61209886D01*
X108757824Y-61084953D01*
X108757258Y-61084606D01*
X108755626Y-61083356D01*
X108753901Y-61082103D01*
X108753932Y-61082059D01*
X108749739Y-61078848D01*
X111949499Y-61078848D01*
X111980257Y-61233471D01*
X111980264Y-61233502D01*
X112040598Y-61379165D01*
X112040603Y-61379174D01*
X112040613Y-61379191D01*
X112128211Y-61510290D01*
X112128212Y-61510291D01*
X112128217Y-61510297D01*
X112239701Y-61621781D01*
X112239707Y-61621786D01*
X112239711Y-61621789D01*
X112370814Y-61709390D01*
X112370827Y-61709397D01*
X112370829Y-61709397D01*
X112370833Y-61709400D01*
X112508678Y-61766497D01*
X112516495Y-61769734D01*
X112516506Y-61769738D01*
X112586795Y-61783719D01*
X112671153Y-61800499D01*
X112671156Y-61800500D01*
X112671158Y-61800500D01*
X112828844Y-61800500D01*
X112828845Y-61800499D01*
X112839179Y-61798443D01*
X112864287Y-61793450D01*
X112864292Y-61793449D01*
X112949800Y-61776439D01*
X112983497Y-61769737D01*
X113129179Y-61709394D01*
X113260289Y-61621789D01*
X113371789Y-61510289D01*
X113459394Y-61379179D01*
X113459793Y-61378217D01*
X113496079Y-61290613D01*
X113519737Y-61233497D01*
X113550500Y-61078842D01*
X113550500Y-60921158D01*
X113550500Y-60921155D01*
X113550499Y-60921153D01*
X113539816Y-60867445D01*
X113519737Y-60766503D01*
X113504660Y-60730104D01*
X113459397Y-60620827D01*
X113459390Y-60620814D01*
X113371789Y-60489711D01*
X113371786Y-60489707D01*
X113371781Y-60489701D01*
X113260297Y-60378217D01*
X113260291Y-60378212D01*
X113260290Y-60378211D01*
X113129191Y-60290613D01*
X113129190Y-60290612D01*
X113129185Y-60290609D01*
X113129172Y-60290602D01*
X113129165Y-60290598D01*
X112983502Y-60230264D01*
X112983471Y-60230257D01*
X112828847Y-60199500D01*
X112828845Y-60199500D01*
X112828842Y-60199500D01*
X112671158Y-60199500D01*
X112671155Y-60199500D01*
X112671153Y-60199500D01*
X112516527Y-60230257D01*
X112516496Y-60230264D01*
X112370833Y-60290598D01*
X112370824Y-60290603D01*
X112370807Y-60290613D01*
X112239708Y-60378211D01*
X112239707Y-60378212D01*
X112239701Y-60378217D01*
X112128217Y-60489701D01*
X112128212Y-60489707D01*
X112128211Y-60489708D01*
X112040613Y-60620807D01*
X112040603Y-60620824D01*
X112040598Y-60620833D01*
X111980264Y-60766496D01*
X111980257Y-60766527D01*
X111949500Y-60921150D01*
X111949500Y-60921153D01*
X111949500Y-61078846D01*
X111949500Y-61078848D01*
X111949499Y-61078848D01*
X108749739Y-61078848D01*
X108736957Y-61069060D01*
X108726683Y-61059357D01*
X108726004Y-61058715D01*
X108690781Y-60998376D01*
X108693770Y-60928572D01*
X108694398Y-60926730D01*
X108734654Y-60869624D01*
X108755490Y-60856236D01*
X108757816Y-60855051D01*
X108757822Y-60855047D01*
X108813297Y-60814743D01*
X108929784Y-60730110D01*
X108929784Y-60730109D01*
X108929792Y-60730104D01*
X109080104Y-60579792D01*
X109080106Y-60579788D01*
X109080109Y-60579786D01*
X109205048Y-60407820D01*
X109205047Y-60407820D01*
X109205051Y-60407816D01*
X109205053Y-60407810D01*
X109225445Y-60379744D01*
X109233730Y-60351529D01*
X109301557Y-60218412D01*
X109367246Y-60016243D01*
X109400500Y-59806287D01*
X109400500Y-59771150D01*
X114649500Y-59771150D01*
X114649500Y-59928846D01*
X114680257Y-60083471D01*
X114680263Y-60083496D01*
X114680263Y-60083500D01*
X114740598Y-60229165D01*
X114740603Y-60229174D01*
X114740613Y-60229191D01*
X114828211Y-60360290D01*
X114828212Y-60360291D01*
X114828217Y-60360297D01*
X114939701Y-60471781D01*
X114939707Y-60471786D01*
X114939711Y-60471789D01*
X115070814Y-60559390D01*
X115070827Y-60559397D01*
X115216498Y-60619735D01*
X115216503Y-60619737D01*
X115371153Y-60650499D01*
X115371156Y-60650500D01*
X115371158Y-60650500D01*
X115528844Y-60650500D01*
X115528845Y-60650499D01*
X115683497Y-60619737D01*
X115829179Y-60559394D01*
X115960289Y-60471789D01*
X116071789Y-60360289D01*
X116159394Y-60229179D01*
X116219737Y-60083497D01*
X116235048Y-60006520D01*
X116250500Y-59928845D01*
X116250500Y-59770973D01*
X116250065Y-59768972D01*
X116220398Y-59619830D01*
X116219984Y-59617406D01*
X116219737Y-59616508D01*
X116219737Y-59616503D01*
X116210297Y-59593713D01*
X116159397Y-59470827D01*
X116159390Y-59470814D01*
X116071789Y-59339711D01*
X116071786Y-59339707D01*
X116071781Y-59339701D01*
X115960297Y-59228217D01*
X115960291Y-59228212D01*
X115960290Y-59228211D01*
X115829191Y-59140613D01*
X115829190Y-59140612D01*
X115829185Y-59140609D01*
X115829172Y-59140602D01*
X115829165Y-59140598D01*
X115683502Y-59080264D01*
X115683471Y-59080257D01*
X115528847Y-59049500D01*
X115528845Y-59049500D01*
X115528842Y-59049500D01*
X115371158Y-59049500D01*
X115371155Y-59049500D01*
X115371153Y-59049500D01*
X115216527Y-59080257D01*
X115216496Y-59080264D01*
X115070833Y-59140598D01*
X115070824Y-59140603D01*
X115070807Y-59140613D01*
X114939708Y-59228211D01*
X114939707Y-59228212D01*
X114939701Y-59228217D01*
X114828217Y-59339701D01*
X114828212Y-59339707D01*
X114828211Y-59339708D01*
X114740613Y-59470807D01*
X114740603Y-59470824D01*
X114740598Y-59470833D01*
X114680264Y-59616496D01*
X114680257Y-59616527D01*
X114649500Y-59771150D01*
X109400500Y-59771150D01*
X109400500Y-59593713D01*
X109367246Y-59383757D01*
X109301557Y-59181588D01*
X109205051Y-58992184D01*
X109205049Y-58992181D01*
X109205048Y-58992179D01*
X109204702Y-58991703D01*
X109204700Y-58991699D01*
X109080112Y-58820217D01*
X109080111Y-58820216D01*
X109080109Y-58820213D01*
X108988744Y-58728848D01*
X111849499Y-58728848D01*
X111880257Y-58883471D01*
X111880264Y-58883502D01*
X111940598Y-59029165D01*
X111940603Y-59029174D01*
X111940613Y-59029191D01*
X112028211Y-59160290D01*
X112028212Y-59160291D01*
X112028217Y-59160297D01*
X112139701Y-59271781D01*
X112139707Y-59271786D01*
X112139711Y-59271789D01*
X112270814Y-59359390D01*
X112270827Y-59359397D01*
X112416498Y-59419735D01*
X112416503Y-59419737D01*
X112571153Y-59450499D01*
X112571156Y-59450500D01*
X112571158Y-59450500D01*
X112728844Y-59450500D01*
X112728845Y-59450499D01*
X112883497Y-59419737D01*
X113029179Y-59359394D01*
X113160289Y-59271789D01*
X113271789Y-59160289D01*
X113359394Y-59029179D01*
X113419737Y-58883497D01*
X113450500Y-58728842D01*
X113450500Y-58571158D01*
X113450500Y-58571155D01*
X113450500Y-58570971D01*
X113450064Y-58568966D01*
X113444399Y-58540486D01*
X113442127Y-58529062D01*
X113419737Y-58416503D01*
X113379564Y-58319516D01*
X113378633Y-58317269D01*
X113359402Y-58270840D01*
X113359399Y-58270833D01*
X113359397Y-58270827D01*
X113359390Y-58270814D01*
X113271789Y-58139711D01*
X113271786Y-58139707D01*
X113271781Y-58139701D01*
X113160297Y-58028217D01*
X113160291Y-58028212D01*
X113160290Y-58028211D01*
X113029191Y-57940613D01*
X113029190Y-57940612D01*
X113029185Y-57940609D01*
X113029172Y-57940602D01*
X113029165Y-57940598D01*
X112883502Y-57880264D01*
X112883471Y-57880257D01*
X112728847Y-57849500D01*
X112728845Y-57849500D01*
X112728842Y-57849500D01*
X112571158Y-57849500D01*
X112571155Y-57849500D01*
X112571153Y-57849500D01*
X112416527Y-57880257D01*
X112416496Y-57880264D01*
X112270833Y-57940598D01*
X112270824Y-57940603D01*
X112270807Y-57940613D01*
X112139708Y-58028211D01*
X112139707Y-58028212D01*
X112139701Y-58028217D01*
X112028217Y-58139701D01*
X112028212Y-58139707D01*
X112028211Y-58139708D01*
X111940613Y-58270807D01*
X111940610Y-58270812D01*
X111940609Y-58270814D01*
X111940606Y-58270821D01*
X111940605Y-58270822D01*
X111940598Y-58270833D01*
X111880264Y-58416496D01*
X111880257Y-58416527D01*
X111849500Y-58571150D01*
X111849500Y-58571153D01*
X111849500Y-58728846D01*
X111849500Y-58728848D01*
X111849499Y-58728848D01*
X108988744Y-58728848D01*
X108929792Y-58669896D01*
X108929784Y-58669890D01*
X108929739Y-58669857D01*
X108923576Y-58665379D01*
X108757815Y-58544948D01*
X108753664Y-58542404D01*
X108754248Y-58541450D01*
X108747902Y-58536290D01*
X108747724Y-58536243D01*
X108730477Y-58522117D01*
X108719414Y-58513120D01*
X108719109Y-58512740D01*
X108717419Y-58510607D01*
X108717322Y-58510516D01*
X108714690Y-58507238D01*
X108702853Y-58478526D01*
X108689170Y-58450641D01*
X108689648Y-58446498D01*
X108688059Y-58442643D01*
X108693624Y-58412081D01*
X108697189Y-58381233D01*
X108699929Y-58377463D01*
X108700578Y-58373904D01*
X108709332Y-58364532D01*
X108730163Y-58335883D01*
X108737783Y-58329281D01*
X108754199Y-58317266D01*
X108757798Y-58315059D01*
X108757816Y-58315051D01*
X108818694Y-58270821D01*
X108929786Y-58190109D01*
X108929786Y-58190108D01*
X108929845Y-58190065D01*
X108930605Y-58189290D01*
X109080104Y-58039792D01*
X109080106Y-58039788D01*
X109080109Y-58039786D01*
X109205048Y-57867820D01*
X109205047Y-57867820D01*
X109205051Y-57867816D01*
X109205053Y-57867810D01*
X109225445Y-57839744D01*
X109233730Y-57811529D01*
X109301557Y-57678412D01*
X109367246Y-57476243D01*
X109400500Y-57266287D01*
X109400500Y-57053713D01*
X109367246Y-56843757D01*
X109301557Y-56641588D01*
X109205051Y-56452184D01*
X109205049Y-56452181D01*
X109205048Y-56452179D01*
X109204702Y-56451703D01*
X109204700Y-56451699D01*
X109080112Y-56280216D01*
X108929782Y-56129886D01*
X108757824Y-56004953D01*
X108757258Y-56004606D01*
X108755627Y-56003357D01*
X108753901Y-56002103D01*
X108753932Y-56002059D01*
X108736960Y-55989062D01*
X108726683Y-55979357D01*
X108691457Y-55919017D01*
X108694445Y-55849212D01*
X108730613Y-55795493D01*
X108737783Y-55789281D01*
X108754187Y-55777275D01*
X108757816Y-55775051D01*
X108757817Y-55775050D01*
X108779789Y-55759086D01*
X108929786Y-55650109D01*
X108929787Y-55650106D01*
X108929790Y-55650105D01*
X108929792Y-55650104D01*
X108929793Y-55650102D01*
X108929847Y-55650063D01*
X108930605Y-55649290D01*
X109080104Y-55499792D01*
X109080106Y-55499788D01*
X109080109Y-55499786D01*
X109205048Y-55327820D01*
X109224955Y-55300420D01*
X109231778Y-55275535D01*
X109232703Y-55273545D01*
X109301557Y-55138412D01*
X109315505Y-55095481D01*
X109318673Y-55088669D01*
X109321793Y-55085117D01*
X109328751Y-55070966D01*
X109337578Y-55058056D01*
X109391665Y-55013832D01*
X109397882Y-55011206D01*
X109401262Y-55009778D01*
X109449525Y-55000000D01*
X110320409Y-55000000D01*
X110355341Y-55005022D01*
X110362103Y-55007007D01*
X110375475Y-55010934D01*
X110427441Y-55041456D01*
X110432237Y-55046166D01*
X110448430Y-55065719D01*
X110452948Y-55072480D01*
X110452951Y-55072489D01*
X110452953Y-55072488D01*
X110478213Y-55110293D01*
X110589701Y-55221781D01*
X110589707Y-55221786D01*
X110589711Y-55221789D01*
X110720814Y-55309390D01*
X110720827Y-55309397D01*
X110866498Y-55369735D01*
X110866503Y-55369737D01*
X111021153Y-55400499D01*
X111021156Y-55400500D01*
X111021158Y-55400500D01*
X111178844Y-55400500D01*
X111178845Y-55400499D01*
X111333497Y-55369737D01*
X111479179Y-55309394D01*
X111610289Y-55221789D01*
X111721789Y-55110289D01*
X111748754Y-55069932D01*
X111772334Y-55043679D01*
X111788437Y-55030221D01*
X111842694Y-55003969D01*
X111844926Y-55003504D01*
X111849276Y-55002600D01*
X111874534Y-55000000D01*
X129505549Y-55000000D01*
X129540485Y-55005023D01*
X129555483Y-55009427D01*
X129614256Y-55047197D01*
X129621076Y-55055067D01*
X129645298Y-55097957D01*
X129658441Y-55138410D01*
X129658443Y-55138416D01*
X129728310Y-55275535D01*
X129754951Y-55327820D01*
X129879890Y-55499786D01*
X130030213Y-55650109D01*
X130202182Y-55775050D01*
X130202190Y-55775054D01*
X130202693Y-55775363D01*
X130204174Y-55776496D01*
X130206122Y-55777912D01*
X130206086Y-55777960D01*
X130223034Y-55790934D01*
X130233315Y-55800643D01*
X130268541Y-55860983D01*
X130265552Y-55930789D01*
X130229383Y-55984507D01*
X130222227Y-55990708D01*
X130205814Y-56002723D01*
X130202190Y-56004943D01*
X130030210Y-56129892D01*
X129879892Y-56280210D01*
X129754949Y-56452182D01*
X129658445Y-56641580D01*
X129592752Y-56843759D01*
X129559500Y-57053707D01*
X129559500Y-57266291D01*
X129592752Y-57476239D01*
X129658445Y-57678418D01*
X129751532Y-57861111D01*
X129754951Y-57867820D01*
X129879890Y-58039786D01*
X130030213Y-58190109D01*
X130202182Y-58315050D01*
X130202190Y-58315054D01*
X130202693Y-58315363D01*
X130204174Y-58316496D01*
X130206122Y-58317912D01*
X130206086Y-58317960D01*
X130223034Y-58330934D01*
X130233315Y-58340643D01*
X130268541Y-58400983D01*
X130265552Y-58470789D01*
X130229383Y-58524507D01*
X130222227Y-58530708D01*
X130205814Y-58542723D01*
X130202190Y-58544943D01*
X130030210Y-58669892D01*
X129879892Y-58820210D01*
X129754949Y-58992182D01*
X129658445Y-59181580D01*
X129592752Y-59383759D01*
X129559500Y-59593707D01*
X129559500Y-59806290D01*
X129575028Y-59904334D01*
X129578911Y-59928846D01*
X129592754Y-60016243D01*
X129614606Y-60083497D01*
X129637410Y-60153681D01*
X129658445Y-60218418D01*
X129751532Y-60401111D01*
X129754951Y-60407820D01*
X129879890Y-60579786D01*
X130030213Y-60730109D01*
X130202182Y-60855050D01*
X130202190Y-60855054D01*
X130202693Y-60855363D01*
X130204174Y-60856496D01*
X130206122Y-60857912D01*
X130206086Y-60857960D01*
X130223034Y-60870934D01*
X130233315Y-60880643D01*
X130268541Y-60940983D01*
X130265552Y-61010789D01*
X130229383Y-61064507D01*
X130222227Y-61070708D01*
X130205814Y-61082723D01*
X130202190Y-61084943D01*
X130030210Y-61209892D01*
X129879892Y-61360210D01*
X129866106Y-61379185D01*
X129785806Y-61489711D01*
X129754949Y-61532182D01*
X129658445Y-61721580D01*
X129592752Y-61923759D01*
X129583804Y-61980262D01*
X129583804Y-61980263D01*
X129559500Y-62133707D01*
X129559500Y-62346286D01*
X129566520Y-62390609D01*
X129566520Y-62390610D01*
X129586459Y-62516503D01*
X129592752Y-62556234D01*
X129592755Y-62556246D01*
X129630091Y-62671157D01*
X129658443Y-62758414D01*
X129741187Y-62920807D01*
X129754951Y-62947820D01*
X129879890Y-63119786D01*
X130030213Y-63270109D01*
X130202182Y-63395050D01*
X130202190Y-63395054D01*
X130202693Y-63395363D01*
X130204174Y-63396496D01*
X130206122Y-63397912D01*
X130206086Y-63397960D01*
X130223034Y-63410934D01*
X130233315Y-63420643D01*
X130268541Y-63480983D01*
X130265552Y-63550789D01*
X130229383Y-63604507D01*
X130222227Y-63610708D01*
X130205814Y-63622723D01*
X130202190Y-63624943D01*
X130030210Y-63749892D01*
X129879892Y-63900210D01*
X129864216Y-63921787D01*
X129754956Y-64072173D01*
X129754949Y-64072182D01*
X129658445Y-64261580D01*
X129592753Y-64463759D01*
X129575968Y-64569737D01*
X129575968Y-64569738D01*
X129559500Y-64673708D01*
X129559500Y-64886286D01*
X129592754Y-65096244D01*
X129592754Y-65096247D01*
X129639658Y-65240601D01*
X129658441Y-65298407D01*
X129658443Y-65298412D01*
X129658444Y-65298414D01*
X129754951Y-65487820D01*
X129879890Y-65659786D01*
X130030213Y-65810109D01*
X130202182Y-65935050D01*
X130202190Y-65935054D01*
X130202693Y-65935363D01*
X130204174Y-65936496D01*
X130206122Y-65937912D01*
X130206086Y-65937960D01*
X130223034Y-65950934D01*
X130233315Y-65960643D01*
X130268541Y-66020983D01*
X130265552Y-66090789D01*
X130229383Y-66144507D01*
X130222227Y-66150708D01*
X130205814Y-66162723D01*
X130202190Y-66164943D01*
X130030210Y-66289892D01*
X129879892Y-66440210D01*
X129879890Y-66440213D01*
X129784302Y-66571781D01*
X129754949Y-66612182D01*
X129658445Y-66801580D01*
X129592752Y-67003759D01*
X129559500Y-67213707D01*
X129559500Y-67426290D01*
X129576480Y-67533497D01*
X129592753Y-67636239D01*
X129592753Y-67636240D01*
X129649305Y-67810290D01*
X129658442Y-67838410D01*
X129658443Y-67838412D01*
X129745562Y-68009394D01*
X129754951Y-68027820D01*
X129879890Y-68199786D01*
X130030213Y-68350109D01*
X130202182Y-68475050D01*
X130202190Y-68475054D01*
X130202693Y-68475363D01*
X130204174Y-68476496D01*
X130206122Y-68477912D01*
X130206086Y-68477960D01*
X130223034Y-68490934D01*
X130233315Y-68500643D01*
X130268541Y-68560983D01*
X130265552Y-68630789D01*
X130229383Y-68684507D01*
X130222227Y-68690708D01*
X130205814Y-68702723D01*
X130202190Y-68704943D01*
X130030210Y-68829892D01*
X129879892Y-68980210D01*
X129754949Y-69152182D01*
X129658445Y-69341582D01*
X129592752Y-69543763D01*
X129568410Y-69697456D01*
X129568410Y-69697457D01*
X129559500Y-69753708D01*
X129559500Y-69966291D01*
X129569534Y-70029643D01*
X129588873Y-70151744D01*
X129592752Y-70176238D01*
X129616536Y-70249439D01*
X129656111Y-70371236D01*
X129658444Y-70378414D01*
X129754951Y-70567820D01*
X129879890Y-70739786D01*
X129879892Y-70739788D01*
X130030214Y-70890110D01*
X130202178Y-71015048D01*
X130203031Y-71015567D01*
X130203303Y-71015865D01*
X130206311Y-71018051D01*
X130206195Y-71018209D01*
X130223741Y-71031361D01*
X130233865Y-71040921D01*
X130247665Y-71064560D01*
X130250085Y-71067216D01*
X130250439Y-71069312D01*
X130269091Y-71101259D01*
X130266105Y-71171065D01*
X130229938Y-71224785D01*
X130222614Y-71231132D01*
X130204059Y-71244432D01*
X130202440Y-71245379D01*
X130148282Y-71284726D01*
X130148281Y-71284727D01*
X130653850Y-71790296D01*
X130687335Y-71851619D01*
X130682351Y-71921311D01*
X130640479Y-71977244D01*
X130628173Y-71985362D01*
X130602996Y-71999898D01*
X130602990Y-71999903D01*
X130509903Y-72092990D01*
X130509898Y-72092996D01*
X130495362Y-72118173D01*
X130444793Y-72166387D01*
X130376185Y-72179607D01*
X130311322Y-72153637D01*
X130300296Y-72143850D01*
X129794728Y-71638282D01*
X129794727Y-71638282D01*
X129755380Y-71692438D01*
X129658903Y-71881784D01*
X129593242Y-72083865D01*
X129591798Y-72092990D01*
X129560000Y-72293753D01*
X129560000Y-72506246D01*
X129590338Y-72697792D01*
X129591715Y-72706485D01*
X129591716Y-72706493D01*
X129593242Y-72716133D01*
X129656492Y-72910795D01*
X129658904Y-72918217D01*
X129729960Y-73057670D01*
X129755374Y-73107548D01*
X129755375Y-73107550D01*
X129790674Y-73156137D01*
X129794728Y-73161716D01*
X130300297Y-72656147D01*
X130361619Y-72622663D01*
X130431311Y-72627647D01*
X130487244Y-72669519D01*
X130495363Y-72681828D01*
X130509896Y-72707000D01*
X130509899Y-72707004D01*
X130509901Y-72707007D01*
X130602993Y-72800099D01*
X130628169Y-72814634D01*
X130676384Y-72865202D01*
X130689606Y-72933809D01*
X130663638Y-72998673D01*
X130653849Y-73009702D01*
X130148321Y-73515229D01*
X130148282Y-73515269D01*
X130148282Y-73515270D01*
X130202452Y-73554626D01*
X130202451Y-73554626D01*
X130204115Y-73555474D01*
X130211857Y-73561058D01*
X130214490Y-73564448D01*
X130224450Y-73571469D01*
X130233868Y-73580363D01*
X130269092Y-73640700D01*
X130266104Y-73710505D01*
X130229932Y-73764229D01*
X130222929Y-73770297D01*
X130205944Y-73781776D01*
X130206331Y-73782407D01*
X130202172Y-73784955D01*
X130030216Y-73909886D01*
X129879892Y-74060210D01*
X129837319Y-74118808D01*
X129761842Y-74222695D01*
X129754949Y-74232182D01*
X129658445Y-74421580D01*
X129592754Y-74623755D01*
X129592754Y-74623757D01*
X129592753Y-74623760D01*
X129592315Y-74626524D01*
X129559500Y-74833707D01*
X129559500Y-75046291D01*
X129592752Y-75256239D01*
X129658445Y-75458418D01*
X129708994Y-75557625D01*
X129754951Y-75647820D01*
X129879890Y-75819786D01*
X130030213Y-75970109D01*
X130202182Y-76095050D01*
X130202190Y-76095054D01*
X130202693Y-76095363D01*
X130204174Y-76096496D01*
X130206122Y-76097912D01*
X130206086Y-76097960D01*
X130223034Y-76110934D01*
X130233315Y-76120643D01*
X130268541Y-76180983D01*
X130265552Y-76250789D01*
X130229383Y-76304507D01*
X130222227Y-76310708D01*
X130205814Y-76322723D01*
X130202190Y-76324943D01*
X130030210Y-76449892D01*
X129879892Y-76600210D01*
X129754949Y-76772182D01*
X129658445Y-76961580D01*
X129592752Y-77163759D01*
X129559500Y-77373707D01*
X129559500Y-77586291D01*
X129592752Y-77796239D01*
X129658445Y-77998418D01*
X129751532Y-78181111D01*
X129754951Y-78187820D01*
X129879890Y-78359786D01*
X130030213Y-78510109D01*
X130202182Y-78635050D01*
X130202190Y-78635054D01*
X130202693Y-78635363D01*
X130204174Y-78636496D01*
X130206122Y-78637912D01*
X130206086Y-78637960D01*
X130223034Y-78650934D01*
X130233315Y-78660643D01*
X130268541Y-78720983D01*
X130265552Y-78790789D01*
X130229383Y-78844507D01*
X130222227Y-78850708D01*
X130205814Y-78862723D01*
X130202190Y-78864943D01*
X130030210Y-78989892D01*
X129879892Y-79140210D01*
X129754949Y-79312182D01*
X129658445Y-79501580D01*
X129592752Y-79703759D01*
X129559500Y-79913707D01*
X129559500Y-80126291D01*
X129592752Y-80336239D01*
X129658445Y-80538418D01*
X129751532Y-80721111D01*
X129754951Y-80727820D01*
X129879890Y-80899786D01*
X130030213Y-81050109D01*
X130202182Y-81175050D01*
X130202190Y-81175054D01*
X130202693Y-81175363D01*
X130204174Y-81176496D01*
X130206122Y-81177912D01*
X130206086Y-81177960D01*
X130223034Y-81190934D01*
X130233315Y-81200643D01*
X130268541Y-81260983D01*
X130265552Y-81330789D01*
X130229383Y-81384507D01*
X130222227Y-81390708D01*
X130205814Y-81402723D01*
X130202190Y-81404943D01*
X130030210Y-81529892D01*
X129879892Y-81680210D01*
X129754949Y-81852182D01*
X129658445Y-82041580D01*
X129592752Y-82243759D01*
X129559500Y-82453707D01*
X129559500Y-82666291D01*
X129592752Y-82876239D01*
X129658445Y-83078418D01*
X129751532Y-83261111D01*
X129754951Y-83267820D01*
X129879890Y-83439786D01*
X130030213Y-83590109D01*
X130202182Y-83715050D01*
X130202190Y-83715054D01*
X130202693Y-83715363D01*
X130204174Y-83716496D01*
X130206122Y-83717912D01*
X130206086Y-83717960D01*
X130223034Y-83730934D01*
X130233315Y-83740643D01*
X130268541Y-83800983D01*
X130265552Y-83870789D01*
X130229383Y-83924507D01*
X130222227Y-83930708D01*
X130205814Y-83942723D01*
X130202190Y-83944943D01*
X130030210Y-84069892D01*
X129879892Y-84220210D01*
X129754949Y-84392182D01*
X129658445Y-84581580D01*
X129592752Y-84783759D01*
X129559500Y-84993707D01*
X129559500Y-85206291D01*
X129592752Y-85416239D01*
X129658445Y-85618418D01*
X129751532Y-85801111D01*
X129754951Y-85807820D01*
X129879890Y-85979786D01*
X130030213Y-86130109D01*
X130202182Y-86255050D01*
X130202190Y-86255054D01*
X130202693Y-86255363D01*
X130204174Y-86256496D01*
X130206122Y-86257912D01*
X130206086Y-86257960D01*
X130223034Y-86270934D01*
X130233315Y-86280643D01*
X130268541Y-86340983D01*
X130265552Y-86410789D01*
X130229383Y-86464507D01*
X130222227Y-86470708D01*
X130205814Y-86482723D01*
X130202190Y-86484943D01*
X130030210Y-86609892D01*
X129879892Y-86760210D01*
X129754949Y-86932182D01*
X129658445Y-87121580D01*
X129592752Y-87323759D01*
X129559500Y-87533707D01*
X129559500Y-87746291D01*
X129592752Y-87956239D01*
X129658445Y-88158418D01*
X129751532Y-88341111D01*
X129754951Y-88347820D01*
X129879890Y-88519786D01*
X130030213Y-88670109D01*
X130202182Y-88795050D01*
X130202190Y-88795054D01*
X130202693Y-88795363D01*
X130204174Y-88796496D01*
X130206122Y-88797912D01*
X130206086Y-88797960D01*
X130223034Y-88810934D01*
X130233315Y-88820643D01*
X130268541Y-88880983D01*
X130265552Y-88950789D01*
X130229383Y-89004507D01*
X130222227Y-89010708D01*
X130205814Y-89022723D01*
X130202190Y-89024943D01*
X130030210Y-89149892D01*
X129879892Y-89300210D01*
X129754949Y-89472182D01*
X129658445Y-89661580D01*
X129592752Y-89863759D01*
X129559500Y-90073707D01*
X129559500Y-90286291D01*
X129592752Y-90496239D01*
X129658445Y-90698418D01*
X129751532Y-90881111D01*
X129754951Y-90887820D01*
X129879890Y-91059786D01*
X130030213Y-91210109D01*
X130202182Y-91335050D01*
X130202190Y-91335054D01*
X130202693Y-91335363D01*
X130204174Y-91336496D01*
X130206122Y-91337912D01*
X130206086Y-91337960D01*
X130223034Y-91350934D01*
X130233315Y-91360643D01*
X130268541Y-91420983D01*
X130265552Y-91490789D01*
X130229383Y-91544507D01*
X130222227Y-91550708D01*
X130205814Y-91562723D01*
X130202190Y-91564943D01*
X130030210Y-91689892D01*
X129879892Y-91840210D01*
X129754949Y-92012182D01*
X129658445Y-92201580D01*
X129592752Y-92403759D01*
X129559500Y-92613707D01*
X129559500Y-92826291D01*
X129592752Y-93036239D01*
X129658445Y-93238418D01*
X129751532Y-93421111D01*
X129754951Y-93427820D01*
X129879890Y-93599786D01*
X130030213Y-93750109D01*
X130202182Y-93875050D01*
X130202190Y-93875054D01*
X130202693Y-93875363D01*
X130204174Y-93876496D01*
X130206122Y-93877912D01*
X130206086Y-93877960D01*
X130223034Y-93890934D01*
X130233315Y-93900643D01*
X130268541Y-93960983D01*
X130265552Y-94030789D01*
X130229383Y-94084507D01*
X130222227Y-94090708D01*
X130205814Y-94102723D01*
X130202190Y-94104943D01*
X130030210Y-94229892D01*
X129879892Y-94380210D01*
X129754949Y-94552182D01*
X129658445Y-94741580D01*
X129592752Y-94943759D01*
X129559500Y-95153707D01*
X129559500Y-95366291D01*
X129592752Y-95576239D01*
X129658445Y-95778418D01*
X129751532Y-95961111D01*
X129754951Y-95967820D01*
X129879890Y-96139786D01*
X130030213Y-96290109D01*
X130202182Y-96415050D01*
X130202190Y-96415054D01*
X130202693Y-96415363D01*
X130204174Y-96416496D01*
X130206122Y-96417912D01*
X130206086Y-96417960D01*
X130223034Y-96430934D01*
X130233315Y-96440643D01*
X130268541Y-96500983D01*
X130265552Y-96570789D01*
X130229383Y-96624507D01*
X130222227Y-96630708D01*
X130205814Y-96642723D01*
X130202190Y-96644943D01*
X130030210Y-96769892D01*
X129879892Y-96920210D01*
X129754949Y-97092182D01*
X129658445Y-97281580D01*
X129592752Y-97483759D01*
X129559500Y-97693707D01*
X129559500Y-97906286D01*
X129592754Y-98116244D01*
X129592754Y-98116247D01*
X129645696Y-98279183D01*
X129658442Y-98318410D01*
X129658443Y-98318412D01*
X129740645Y-98479744D01*
X129754951Y-98507820D01*
X129879890Y-98679786D01*
X129879892Y-98679788D01*
X130030216Y-98830112D01*
X130202169Y-98955042D01*
X130202177Y-98955047D01*
X130202179Y-98955048D01*
X130202181Y-98955049D01*
X130202182Y-98955050D01*
X130202200Y-98955060D01*
X130202442Y-98955182D01*
X130391588Y-99051557D01*
X130593757Y-99117246D01*
X130803713Y-99150500D01*
X130803714Y-99150500D01*
X131016286Y-99150500D01*
X131016287Y-99150500D01*
X131226243Y-99117246D01*
X131428412Y-99051557D01*
X131617816Y-98955051D01*
X131639789Y-98939086D01*
X131789786Y-98830109D01*
X131789786Y-98830108D01*
X131789844Y-98830066D01*
X131790605Y-98829290D01*
X131940104Y-98679792D01*
X131940106Y-98679788D01*
X131940109Y-98679786D01*
X132065048Y-98507820D01*
X132065047Y-98507820D01*
X132065051Y-98507816D01*
X132065053Y-98507810D01*
X132085445Y-98479744D01*
X132093730Y-98451529D01*
X132161557Y-98318412D01*
X132227246Y-98116243D01*
X132260500Y-97906287D01*
X132260500Y-97693713D01*
X132227246Y-97483757D01*
X132161557Y-97281588D01*
X132065051Y-97092184D01*
X132065049Y-97092181D01*
X132065048Y-97092179D01*
X132064702Y-97091703D01*
X132064700Y-97091699D01*
X131940112Y-96920216D01*
X131789782Y-96769886D01*
X131617824Y-96644953D01*
X131617258Y-96644606D01*
X131615627Y-96643357D01*
X131613901Y-96642103D01*
X131613932Y-96642059D01*
X131596960Y-96629062D01*
X131586683Y-96619357D01*
X131551457Y-96559017D01*
X131554445Y-96489212D01*
X131590613Y-96435493D01*
X131597783Y-96429281D01*
X131614187Y-96417275D01*
X131617816Y-96415051D01*
X131618237Y-96414745D01*
X131639789Y-96399086D01*
X131789786Y-96290109D01*
X131789787Y-96290106D01*
X131789790Y-96290105D01*
X131789792Y-96290104D01*
X131789793Y-96290102D01*
X131789847Y-96290063D01*
X131790605Y-96289290D01*
X131940104Y-96139792D01*
X131940106Y-96139788D01*
X131940109Y-96139786D01*
X132065048Y-95967820D01*
X132065047Y-95967820D01*
X132065051Y-95967816D01*
X132065053Y-95967810D01*
X132085445Y-95939744D01*
X132093730Y-95911529D01*
X132161557Y-95778412D01*
X132227246Y-95576243D01*
X132260500Y-95366287D01*
X132260500Y-95153713D01*
X132227246Y-94943757D01*
X132161557Y-94741588D01*
X132065051Y-94552184D01*
X132065049Y-94552181D01*
X132065048Y-94552179D01*
X132064702Y-94551703D01*
X132064700Y-94551699D01*
X131940112Y-94380216D01*
X131789782Y-94229886D01*
X131617824Y-94104953D01*
X131617258Y-94104606D01*
X131615627Y-94103357D01*
X131613901Y-94102103D01*
X131613932Y-94102059D01*
X131596960Y-94089062D01*
X131586683Y-94079357D01*
X131551457Y-94019017D01*
X131554445Y-93949212D01*
X131590613Y-93895493D01*
X131597783Y-93889281D01*
X131614187Y-93877275D01*
X131617816Y-93875051D01*
X131617817Y-93875050D01*
X131639789Y-93859086D01*
X131789786Y-93750109D01*
X131789787Y-93750106D01*
X131789790Y-93750105D01*
X131789792Y-93750104D01*
X131789793Y-93750102D01*
X131789847Y-93750063D01*
X131790605Y-93749290D01*
X131940104Y-93599792D01*
X131940106Y-93599788D01*
X131940109Y-93599786D01*
X132065048Y-93427820D01*
X132065047Y-93427820D01*
X132065051Y-93427816D01*
X132065053Y-93427810D01*
X132085445Y-93399744D01*
X132093730Y-93371529D01*
X132161557Y-93238412D01*
X132227246Y-93036243D01*
X132260500Y-92826287D01*
X132260500Y-92613713D01*
X132227246Y-92403757D01*
X132161557Y-92201588D01*
X132065051Y-92012184D01*
X132065049Y-92012181D01*
X132065048Y-92012179D01*
X132064702Y-92011703D01*
X132064700Y-92011699D01*
X131940112Y-91840216D01*
X131789782Y-91689886D01*
X131617824Y-91564953D01*
X131617258Y-91564606D01*
X131615627Y-91563357D01*
X131613901Y-91562103D01*
X131613932Y-91562059D01*
X131596960Y-91549062D01*
X131586683Y-91539357D01*
X131551457Y-91479017D01*
X131554445Y-91409212D01*
X131590613Y-91355493D01*
X131597783Y-91349281D01*
X131614187Y-91337275D01*
X131617816Y-91335051D01*
X131617817Y-91335050D01*
X131639789Y-91319086D01*
X131789786Y-91210109D01*
X131789787Y-91210106D01*
X131789790Y-91210105D01*
X131789792Y-91210104D01*
X131789793Y-91210102D01*
X131789847Y-91210063D01*
X131790605Y-91209290D01*
X131940104Y-91059792D01*
X131940106Y-91059788D01*
X131940109Y-91059786D01*
X132065048Y-90887820D01*
X132065047Y-90887820D01*
X132065051Y-90887816D01*
X132065053Y-90887810D01*
X132085445Y-90859744D01*
X132093730Y-90831529D01*
X132161557Y-90698412D01*
X132227246Y-90496243D01*
X132260500Y-90286287D01*
X132260500Y-90073713D01*
X132227246Y-89863757D01*
X132161557Y-89661588D01*
X132065051Y-89472184D01*
X132065049Y-89472181D01*
X132065048Y-89472179D01*
X132064702Y-89471703D01*
X132064700Y-89471699D01*
X131940112Y-89300216D01*
X131789782Y-89149886D01*
X131617824Y-89024953D01*
X131617258Y-89024606D01*
X131615627Y-89023357D01*
X131613901Y-89022103D01*
X131613932Y-89022059D01*
X131596960Y-89009062D01*
X131586683Y-88999357D01*
X131551457Y-88939017D01*
X131554445Y-88869212D01*
X131590613Y-88815493D01*
X131597783Y-88809281D01*
X131614187Y-88797275D01*
X131617816Y-88795051D01*
X131617817Y-88795050D01*
X131639789Y-88779086D01*
X131789786Y-88670109D01*
X131789787Y-88670106D01*
X131789790Y-88670105D01*
X131789792Y-88670104D01*
X131789793Y-88670102D01*
X131789847Y-88670063D01*
X131790605Y-88669290D01*
X131940104Y-88519792D01*
X131940106Y-88519788D01*
X131940109Y-88519786D01*
X132065048Y-88347820D01*
X132065047Y-88347820D01*
X132065051Y-88347816D01*
X132065053Y-88347810D01*
X132085445Y-88319744D01*
X132093730Y-88291529D01*
X132161557Y-88158412D01*
X132227246Y-87956243D01*
X132260500Y-87746287D01*
X132260500Y-87533713D01*
X132227246Y-87323757D01*
X132161557Y-87121588D01*
X132065051Y-86932184D01*
X132065049Y-86932181D01*
X132065048Y-86932179D01*
X132064702Y-86931703D01*
X132064700Y-86931699D01*
X131940112Y-86760216D01*
X131789782Y-86609886D01*
X131617824Y-86484953D01*
X131617258Y-86484606D01*
X131615627Y-86483357D01*
X131613901Y-86482103D01*
X131613932Y-86482059D01*
X131596960Y-86469062D01*
X131586683Y-86459357D01*
X131551457Y-86399017D01*
X131554445Y-86329212D01*
X131590613Y-86275493D01*
X131597783Y-86269281D01*
X131614187Y-86257275D01*
X131617816Y-86255051D01*
X131617817Y-86255050D01*
X131639789Y-86239086D01*
X131789786Y-86130109D01*
X131789787Y-86130106D01*
X131789790Y-86130105D01*
X131789792Y-86130104D01*
X131789793Y-86130102D01*
X131789847Y-86130063D01*
X131790605Y-86129290D01*
X131940104Y-85979792D01*
X131940106Y-85979788D01*
X131940109Y-85979786D01*
X132065048Y-85807820D01*
X132065047Y-85807820D01*
X132065051Y-85807816D01*
X132065053Y-85807810D01*
X132085445Y-85779744D01*
X132093730Y-85751529D01*
X132161557Y-85618412D01*
X132227246Y-85416243D01*
X132260500Y-85206287D01*
X132260500Y-84993713D01*
X132227246Y-84783757D01*
X132161557Y-84581588D01*
X132065051Y-84392184D01*
X132065049Y-84392181D01*
X132065048Y-84392179D01*
X132064702Y-84391703D01*
X132064700Y-84391699D01*
X131940112Y-84220216D01*
X131789782Y-84069886D01*
X131617824Y-83944953D01*
X131617258Y-83944606D01*
X131615627Y-83943357D01*
X131613901Y-83942103D01*
X131613932Y-83942059D01*
X131596960Y-83929062D01*
X131586683Y-83919357D01*
X131551457Y-83859017D01*
X131554445Y-83789212D01*
X131590613Y-83735493D01*
X131597783Y-83729281D01*
X131614187Y-83717275D01*
X131617816Y-83715051D01*
X131617817Y-83715050D01*
X131639789Y-83699086D01*
X131789786Y-83590109D01*
X131789787Y-83590106D01*
X131789790Y-83590105D01*
X131789792Y-83590104D01*
X131789793Y-83590102D01*
X131789847Y-83590063D01*
X131790605Y-83589290D01*
X131940104Y-83439792D01*
X131940106Y-83439788D01*
X131940109Y-83439786D01*
X132065048Y-83267820D01*
X132065047Y-83267820D01*
X132065051Y-83267816D01*
X132065053Y-83267810D01*
X132085445Y-83239744D01*
X132093730Y-83211529D01*
X132161557Y-83078412D01*
X132227246Y-82876243D01*
X132260500Y-82666287D01*
X132260500Y-82453713D01*
X132227246Y-82243757D01*
X132161557Y-82041588D01*
X132065051Y-81852184D01*
X132065049Y-81852181D01*
X132065048Y-81852179D01*
X132064702Y-81851703D01*
X132064700Y-81851699D01*
X131940112Y-81680216D01*
X131789782Y-81529886D01*
X131617824Y-81404953D01*
X131617258Y-81404606D01*
X131615627Y-81403357D01*
X131613901Y-81402103D01*
X131613932Y-81402059D01*
X131596960Y-81389062D01*
X131586683Y-81379357D01*
X131551457Y-81319017D01*
X131554445Y-81249212D01*
X131590613Y-81195493D01*
X131597783Y-81189281D01*
X131614187Y-81177275D01*
X131617816Y-81175051D01*
X131617817Y-81175050D01*
X131639789Y-81159086D01*
X131789786Y-81050109D01*
X131789787Y-81050106D01*
X131789790Y-81050105D01*
X131789792Y-81050104D01*
X131789793Y-81050102D01*
X131789847Y-81050063D01*
X131790605Y-81049290D01*
X131940104Y-80899792D01*
X131940106Y-80899788D01*
X131940109Y-80899786D01*
X132065048Y-80727820D01*
X132065047Y-80727820D01*
X132065051Y-80727816D01*
X132065053Y-80727810D01*
X132085445Y-80699744D01*
X132093730Y-80671529D01*
X132161557Y-80538412D01*
X132227246Y-80336243D01*
X132260500Y-80126287D01*
X132260500Y-79913713D01*
X132227246Y-79703757D01*
X132161557Y-79501588D01*
X132065051Y-79312184D01*
X132065049Y-79312181D01*
X132065048Y-79312179D01*
X132064702Y-79311703D01*
X132064700Y-79311699D01*
X131940112Y-79140216D01*
X131789782Y-78989886D01*
X131617824Y-78864953D01*
X131617258Y-78864606D01*
X131615627Y-78863357D01*
X131613901Y-78862103D01*
X131613932Y-78862059D01*
X131596960Y-78849062D01*
X131586683Y-78839357D01*
X131551457Y-78779017D01*
X131554445Y-78709212D01*
X131590613Y-78655493D01*
X131597783Y-78649281D01*
X131614187Y-78637275D01*
X131617816Y-78635051D01*
X131617817Y-78635050D01*
X131639789Y-78619086D01*
X131789786Y-78510109D01*
X131789787Y-78510106D01*
X131789790Y-78510105D01*
X131789792Y-78510104D01*
X131789793Y-78510102D01*
X131789847Y-78510063D01*
X131790605Y-78509290D01*
X131940104Y-78359792D01*
X131940106Y-78359788D01*
X131940109Y-78359786D01*
X132065048Y-78187820D01*
X132065047Y-78187820D01*
X132065051Y-78187816D01*
X132065053Y-78187810D01*
X132085445Y-78159744D01*
X132093730Y-78131529D01*
X132161557Y-77998412D01*
X132227246Y-77796243D01*
X132260500Y-77586287D01*
X132260500Y-77373713D01*
X132227246Y-77163757D01*
X132161557Y-76961588D01*
X132065051Y-76772184D01*
X132065049Y-76772181D01*
X132065048Y-76772179D01*
X132064702Y-76771703D01*
X132064700Y-76771699D01*
X131940112Y-76600216D01*
X131789782Y-76449886D01*
X131617824Y-76324953D01*
X131617258Y-76324606D01*
X131615627Y-76323357D01*
X131613901Y-76322103D01*
X131613932Y-76322059D01*
X131596960Y-76309062D01*
X131586683Y-76299357D01*
X131551457Y-76239017D01*
X131554445Y-76169212D01*
X131590612Y-76115495D01*
X131597783Y-76109281D01*
X131614194Y-76097269D01*
X131617794Y-76095061D01*
X131617816Y-76095051D01*
X131626392Y-76088820D01*
X131649191Y-76072257D01*
X131723258Y-76018443D01*
X131789786Y-75970109D01*
X131789787Y-75970106D01*
X131789789Y-75970105D01*
X131789792Y-75970104D01*
X131789794Y-75970101D01*
X131789848Y-75970062D01*
X131790605Y-75969290D01*
X131940104Y-75819792D01*
X131940106Y-75819788D01*
X131940109Y-75819786D01*
X132062926Y-75650741D01*
X132064206Y-75649083D01*
X132065048Y-75647820D01*
X132065049Y-75647819D01*
X132065051Y-75647816D01*
X132161557Y-75458412D01*
X132227246Y-75256243D01*
X132260500Y-75046287D01*
X132260500Y-74833713D01*
X132227246Y-74623757D01*
X132161557Y-74421588D01*
X132065051Y-74232184D01*
X132065049Y-74232181D01*
X132065048Y-74232179D01*
X132064702Y-74231703D01*
X132064700Y-74231699D01*
X131940112Y-74060216D01*
X131789788Y-73909892D01*
X131789786Y-73909890D01*
X131617817Y-73784949D01*
X131617812Y-73784946D01*
X131616584Y-73784194D01*
X131596242Y-73768624D01*
X131586127Y-73759071D01*
X131550906Y-73698734D01*
X131553896Y-73628929D01*
X131590066Y-73575210D01*
X131597122Y-73569096D01*
X131613537Y-73557083D01*
X131617542Y-73554628D01*
X131617555Y-73554622D01*
X131639119Y-73538953D01*
X131665858Y-73529412D01*
X131671717Y-73515269D01*
X131166149Y-73009702D01*
X131132664Y-72948379D01*
X131137648Y-72878688D01*
X131179519Y-72822754D01*
X131191822Y-72814639D01*
X131217007Y-72800099D01*
X131310099Y-72707007D01*
X131324634Y-72681830D01*
X131375199Y-72633616D01*
X131443805Y-72620391D01*
X131508671Y-72646358D01*
X131519702Y-72656149D01*
X132025269Y-73161717D01*
X132025269Y-73161716D01*
X132025270Y-73161717D01*
X132025270Y-73161716D01*
X132038738Y-73156137D01*
X132044955Y-73134967D01*
X132048954Y-73129118D01*
X132064429Y-73107820D01*
X132064622Y-73107554D01*
X132161095Y-72918217D01*
X132226757Y-72716130D01*
X132226757Y-72716127D01*
X132260000Y-72506246D01*
X132260000Y-72293753D01*
X132245341Y-72201200D01*
X132228284Y-72093511D01*
X132228283Y-72093505D01*
X132228283Y-72093506D01*
X132226756Y-72083865D01*
X132199473Y-71999898D01*
X132161095Y-71881782D01*
X132064624Y-71692449D01*
X132025270Y-71638282D01*
X132025269Y-71638282D01*
X132025268Y-71638282D01*
X131519702Y-72143849D01*
X131458379Y-72177334D01*
X131388687Y-72172350D01*
X131332754Y-72130478D01*
X131324634Y-72118169D01*
X131310099Y-72092993D01*
X131217007Y-71999901D01*
X131217004Y-71999899D01*
X131217000Y-71999896D01*
X131191828Y-71985363D01*
X131143613Y-71934796D01*
X131130391Y-71866189D01*
X131156359Y-71801324D01*
X131166135Y-71790310D01*
X131671716Y-71284728D01*
X131671715Y-71284727D01*
X131637934Y-71260184D01*
X131637888Y-71260151D01*
X131617547Y-71245373D01*
X131617547Y-71245372D01*
X131616190Y-71244681D01*
X131608690Y-71239333D01*
X131605977Y-71235878D01*
X131595539Y-71228521D01*
X131586129Y-71219634D01*
X131565612Y-71184486D01*
X131565533Y-71184386D01*
X131565529Y-71184344D01*
X131550905Y-71159292D01*
X131553897Y-71089487D01*
X131590070Y-71035767D01*
X131597084Y-71029690D01*
X131614077Y-71018286D01*
X131613657Y-71017600D01*
X131617813Y-71015053D01*
X131731076Y-70932764D01*
X131747259Y-70921005D01*
X131789786Y-70890109D01*
X131789787Y-70890107D01*
X131789846Y-70890064D01*
X131790605Y-70889290D01*
X131940104Y-70739792D01*
X131940106Y-70739788D01*
X131940109Y-70739786D01*
X132062926Y-70570741D01*
X132064206Y-70569083D01*
X132065048Y-70567820D01*
X132065049Y-70567819D01*
X132065051Y-70567816D01*
X132161557Y-70378412D01*
X132227246Y-70176243D01*
X132260500Y-69966287D01*
X132260500Y-69753713D01*
X132227246Y-69543757D01*
X132161557Y-69341588D01*
X132065051Y-69152184D01*
X132065049Y-69152181D01*
X132065048Y-69152179D01*
X132064702Y-69151703D01*
X132064700Y-69151699D01*
X131940112Y-68980216D01*
X131789782Y-68829886D01*
X131617824Y-68704953D01*
X131617258Y-68704606D01*
X131615627Y-68703357D01*
X131613901Y-68702103D01*
X131613932Y-68702059D01*
X131596960Y-68689062D01*
X131586683Y-68679357D01*
X131551457Y-68619017D01*
X131554445Y-68549212D01*
X131590613Y-68495493D01*
X131597783Y-68489281D01*
X131614187Y-68477275D01*
X131617816Y-68475051D01*
X131617817Y-68475050D01*
X131639789Y-68459086D01*
X131789786Y-68350109D01*
X131789787Y-68350106D01*
X131789790Y-68350105D01*
X131789792Y-68350104D01*
X131789793Y-68350102D01*
X131789847Y-68350063D01*
X131790605Y-68349290D01*
X131940104Y-68199792D01*
X131940106Y-68199788D01*
X131940109Y-68199786D01*
X132065048Y-68027820D01*
X132065047Y-68027820D01*
X132065051Y-68027816D01*
X132065053Y-68027810D01*
X132085445Y-67999744D01*
X132093730Y-67971529D01*
X132161557Y-67838412D01*
X132227246Y-67636243D01*
X132260500Y-67426287D01*
X132260500Y-67213713D01*
X132227246Y-67003757D01*
X132161557Y-66801588D01*
X132065051Y-66612184D01*
X132065049Y-66612181D01*
X132065048Y-66612179D01*
X132064702Y-66611703D01*
X132064700Y-66611699D01*
X131940112Y-66440216D01*
X131789782Y-66289886D01*
X131617824Y-66164953D01*
X131617258Y-66164606D01*
X131615627Y-66163357D01*
X131613901Y-66162103D01*
X131613932Y-66162059D01*
X131596960Y-66149062D01*
X131586683Y-66139357D01*
X131551457Y-66079017D01*
X131554445Y-66009212D01*
X131590612Y-65955495D01*
X131597783Y-65949281D01*
X131614194Y-65937269D01*
X131617797Y-65935060D01*
X131617816Y-65935051D01*
X131705765Y-65871153D01*
X131789786Y-65810109D01*
X131789788Y-65810106D01*
X131789792Y-65810104D01*
X131789796Y-65810099D01*
X131789848Y-65810063D01*
X131790609Y-65809286D01*
X131940104Y-65659792D01*
X131940106Y-65659788D01*
X131940109Y-65659786D01*
X132065048Y-65487820D01*
X132065047Y-65487820D01*
X132065051Y-65487816D01*
X132065053Y-65487810D01*
X132085445Y-65459744D01*
X132093730Y-65431529D01*
X132161557Y-65298412D01*
X132227246Y-65096243D01*
X132260500Y-64886287D01*
X132260500Y-64673713D01*
X132227246Y-64463757D01*
X132161557Y-64261588D01*
X132065051Y-64072184D01*
X132065049Y-64072181D01*
X132065048Y-64072179D01*
X132064702Y-64071703D01*
X132064700Y-64071699D01*
X131940112Y-63900216D01*
X131789782Y-63749886D01*
X131617824Y-63624953D01*
X131617258Y-63624606D01*
X131615627Y-63623357D01*
X131613901Y-63622103D01*
X131613932Y-63622059D01*
X131596960Y-63609062D01*
X131586683Y-63599357D01*
X131551457Y-63539017D01*
X131554445Y-63469212D01*
X131590612Y-63415495D01*
X131597783Y-63409281D01*
X131614201Y-63397266D01*
X131617812Y-63395052D01*
X131617816Y-63395051D01*
X131617832Y-63395040D01*
X131655282Y-63367830D01*
X131702533Y-63333501D01*
X131789786Y-63270109D01*
X131789788Y-63270106D01*
X131789792Y-63270104D01*
X131789798Y-63270097D01*
X131789848Y-63270062D01*
X131790605Y-63269290D01*
X131940104Y-63119792D01*
X131940106Y-63119788D01*
X131940109Y-63119786D01*
X132065048Y-62947820D01*
X132065047Y-62947820D01*
X132065051Y-62947816D01*
X132065053Y-62947810D01*
X132085445Y-62919744D01*
X132093730Y-62891529D01*
X132161557Y-62758412D01*
X132227246Y-62556243D01*
X132260500Y-62346287D01*
X132260500Y-62133713D01*
X132227246Y-61923757D01*
X132161557Y-61721588D01*
X132065051Y-61532184D01*
X132065049Y-61532181D01*
X132065048Y-61532179D01*
X132064702Y-61531703D01*
X132064700Y-61531699D01*
X131940112Y-61360216D01*
X131789782Y-61209886D01*
X131617824Y-61084953D01*
X131617258Y-61084606D01*
X131615627Y-61083357D01*
X131613901Y-61082103D01*
X131613932Y-61082059D01*
X131596960Y-61069062D01*
X131586683Y-61059357D01*
X131551457Y-60999017D01*
X131554445Y-60929212D01*
X131590612Y-60875495D01*
X131597783Y-60869281D01*
X131614194Y-60857269D01*
X131617792Y-60855063D01*
X131617816Y-60855051D01*
X131655920Y-60827366D01*
X131674862Y-60813606D01*
X131739660Y-60766527D01*
X131789786Y-60730109D01*
X131789788Y-60730106D01*
X131789792Y-60730104D01*
X131789800Y-60730095D01*
X131789852Y-60730058D01*
X131790593Y-60729302D01*
X131940104Y-60579792D01*
X131940106Y-60579788D01*
X131940109Y-60579786D01*
X132065048Y-60407820D01*
X132065047Y-60407820D01*
X132065051Y-60407816D01*
X132065053Y-60407810D01*
X132085445Y-60379744D01*
X132093730Y-60351529D01*
X132161557Y-60218412D01*
X132227246Y-60016243D01*
X132260500Y-59806287D01*
X132260500Y-59593713D01*
X132227246Y-59383757D01*
X132161557Y-59181588D01*
X132065051Y-58992184D01*
X132065049Y-58992181D01*
X132065048Y-58992179D01*
X132064702Y-58991703D01*
X132064700Y-58991699D01*
X131940112Y-58820216D01*
X131789782Y-58669886D01*
X131617824Y-58544953D01*
X131617258Y-58544606D01*
X131615627Y-58543357D01*
X131613901Y-58542103D01*
X131613932Y-58542059D01*
X131596960Y-58529062D01*
X131586683Y-58519357D01*
X131551457Y-58459017D01*
X131554445Y-58389212D01*
X131590612Y-58335495D01*
X131597783Y-58329281D01*
X131614194Y-58317269D01*
X131617791Y-58315063D01*
X131617816Y-58315051D01*
X131678694Y-58270821D01*
X131789786Y-58190109D01*
X131789787Y-58190106D01*
X131789789Y-58190105D01*
X131789792Y-58190104D01*
X131789794Y-58190101D01*
X131789848Y-58190062D01*
X131790605Y-58189290D01*
X131940104Y-58039792D01*
X131940106Y-58039788D01*
X131940109Y-58039786D01*
X132065048Y-57867820D01*
X132065047Y-57867820D01*
X132065051Y-57867816D01*
X132065053Y-57867810D01*
X132085445Y-57839744D01*
X132093730Y-57811529D01*
X132161557Y-57678412D01*
X132227246Y-57476243D01*
X132260500Y-57266287D01*
X132260500Y-57053713D01*
X132227246Y-56843757D01*
X132161557Y-56641588D01*
X132065051Y-56452184D01*
X132065049Y-56452181D01*
X132065048Y-56452179D01*
X132064702Y-56451703D01*
X132064700Y-56451699D01*
X131940112Y-56280216D01*
X131789782Y-56129886D01*
X131617824Y-56004953D01*
X131617258Y-56004606D01*
X131615627Y-56003357D01*
X131613901Y-56002103D01*
X131613932Y-56002059D01*
X131596960Y-55989062D01*
X131586683Y-55979357D01*
X131551457Y-55919017D01*
X131554445Y-55849212D01*
X131590613Y-55795493D01*
X131597783Y-55789281D01*
X131614187Y-55777275D01*
X131617816Y-55775051D01*
X131617817Y-55775050D01*
X131639789Y-55759086D01*
X131789786Y-55650109D01*
X131789787Y-55650106D01*
X131789790Y-55650105D01*
X131789792Y-55650104D01*
X131789793Y-55650102D01*
X131789847Y-55650063D01*
X131790605Y-55649290D01*
X131940104Y-55499792D01*
X131940106Y-55499788D01*
X131940109Y-55499786D01*
X132065048Y-55327820D01*
X132084955Y-55300420D01*
X132091778Y-55275535D01*
X132092703Y-55273545D01*
X132161557Y-55138412D01*
X132175505Y-55095481D01*
X132178673Y-55088669D01*
X132181793Y-55085117D01*
X132188751Y-55070966D01*
X132197578Y-55058056D01*
X132251665Y-55013832D01*
X132257882Y-55011206D01*
X132261262Y-55009778D01*
X132309525Y-55000000D01*
X132707670Y-55000000D01*
X132742606Y-55005023D01*
X132757604Y-55009427D01*
X132816355Y-55047172D01*
X132817542Y-55048541D01*
X132845018Y-55103402D01*
X132846663Y-55110960D01*
X132849500Y-55137331D01*
X132849500Y-103167551D01*
X132849378Y-103173028D01*
X132849140Y-103178398D01*
X132849135Y-103178524D01*
X132848770Y-103183997D01*
X132846649Y-103207853D01*
X132845049Y-103219527D01*
X132842904Y-103231070D01*
X132840207Y-103242526D01*
X132821451Y-103308078D01*
X132817387Y-103319966D01*
X132812744Y-103331589D01*
X132807500Y-103343003D01*
X132777971Y-103399532D01*
X132771602Y-103410352D01*
X132764716Y-103420801D01*
X132757278Y-103430930D01*
X132716957Y-103480379D01*
X132708537Y-103489698D01*
X132699696Y-103498539D01*
X132690376Y-103506960D01*
X132640929Y-103547279D01*
X132630807Y-103554712D01*
X132620370Y-103561591D01*
X132609543Y-103567965D01*
X132552992Y-103597505D01*
X132541573Y-103602751D01*
X132529958Y-103607390D01*
X132518077Y-103611451D01*
X132452527Y-103630207D01*
X132441064Y-103632905D01*
X132429518Y-103635050D01*
X132417858Y-103636648D01*
X132403327Y-103637940D01*
X132399253Y-103638303D01*
X132398404Y-103638378D01*
X132393999Y-103638770D01*
X132388523Y-103639135D01*
X132383037Y-103639378D01*
X132377551Y-103639500D01*
X126059771Y-103639500D01*
X126024836Y-103634477D01*
X126013982Y-103631290D01*
X125955204Y-103593516D01*
X125926179Y-103529960D01*
X125936119Y-103460811D01*
X125939309Y-103453824D01*
X125964427Y-103417651D01*
X125971786Y-103410292D01*
X125971793Y-103410284D01*
X126059390Y-103279185D01*
X126059390Y-103279184D01*
X126059394Y-103279179D01*
X126119737Y-103133497D01*
X126150500Y-102978842D01*
X126150500Y-102821158D01*
X126150500Y-102821155D01*
X126150500Y-102820973D01*
X126150065Y-102818972D01*
X126140554Y-102771158D01*
X126120395Y-102669816D01*
X126119994Y-102667467D01*
X126119738Y-102666508D01*
X126119737Y-102666506D01*
X126119737Y-102666503D01*
X126119735Y-102666498D01*
X126059397Y-102520827D01*
X126059390Y-102520814D01*
X125971789Y-102389711D01*
X125971786Y-102389707D01*
X125971781Y-102389701D01*
X125860297Y-102278217D01*
X125860291Y-102278212D01*
X125860290Y-102278211D01*
X125729191Y-102190613D01*
X125729190Y-102190612D01*
X125729185Y-102190609D01*
X125729172Y-102190602D01*
X125729165Y-102190598D01*
X125583502Y-102130264D01*
X125583471Y-102130257D01*
X125428847Y-102099500D01*
X125428845Y-102099500D01*
X125428842Y-102099500D01*
X125271158Y-102099500D01*
X125271155Y-102099500D01*
X125271153Y-102099500D01*
X125116527Y-102130257D01*
X125116496Y-102130264D01*
X124970833Y-102190598D01*
X124970824Y-102190603D01*
X124970807Y-102190613D01*
X124839708Y-102278211D01*
X124839707Y-102278212D01*
X124839701Y-102278217D01*
X124728217Y-102389701D01*
X124728212Y-102389707D01*
X124728211Y-102389708D01*
X124640613Y-102520807D01*
X124640603Y-102520824D01*
X124640598Y-102520833D01*
X124580264Y-102666496D01*
X124580261Y-102666510D01*
X124549500Y-102821150D01*
X124549500Y-102821153D01*
X124549500Y-102978846D01*
X124549500Y-102978848D01*
X124549499Y-102978848D01*
X124580257Y-103133471D01*
X124580264Y-103133502D01*
X124640598Y-103279165D01*
X124640603Y-103279174D01*
X124640613Y-103279191D01*
X124728207Y-103410284D01*
X124728212Y-103410291D01*
X124728217Y-103410297D01*
X124733133Y-103415213D01*
X124754282Y-103443463D01*
X124759702Y-103453388D01*
X124774556Y-103521660D01*
X124750142Y-103587125D01*
X124694210Y-103628999D01*
X124694206Y-103629001D01*
X124687018Y-103631682D01*
X124643684Y-103639500D01*
X123509771Y-103639500D01*
X123474836Y-103634477D01*
X123463982Y-103631290D01*
X123405204Y-103593516D01*
X123376179Y-103529960D01*
X123386119Y-103460811D01*
X123389309Y-103453824D01*
X123414427Y-103417651D01*
X123421786Y-103410292D01*
X123421793Y-103410284D01*
X123509390Y-103279185D01*
X123509390Y-103279184D01*
X123509394Y-103279179D01*
X123569737Y-103133497D01*
X123600500Y-102978842D01*
X123600500Y-102821158D01*
X123600500Y-102821155D01*
X123600500Y-102820973D01*
X123600065Y-102818972D01*
X123590554Y-102771158D01*
X123570395Y-102669816D01*
X123569994Y-102667467D01*
X123569738Y-102666508D01*
X123569737Y-102666506D01*
X123569737Y-102666503D01*
X123569735Y-102666498D01*
X123509397Y-102520827D01*
X123509390Y-102520814D01*
X123421789Y-102389711D01*
X123421786Y-102389707D01*
X123421781Y-102389701D01*
X123310297Y-102278217D01*
X123310291Y-102278212D01*
X123310290Y-102278211D01*
X123179191Y-102190613D01*
X123179190Y-102190612D01*
X123179185Y-102190609D01*
X123179172Y-102190602D01*
X123179165Y-102190598D01*
X123033502Y-102130264D01*
X123033471Y-102130257D01*
X122878847Y-102099500D01*
X122878845Y-102099500D01*
X122878842Y-102099500D01*
X122721158Y-102099500D01*
X122721155Y-102099500D01*
X122721153Y-102099500D01*
X122566527Y-102130257D01*
X122566496Y-102130264D01*
X122420833Y-102190598D01*
X122420824Y-102190603D01*
X122420807Y-102190613D01*
X122289708Y-102278211D01*
X122289707Y-102278212D01*
X122289701Y-102278217D01*
X122178217Y-102389701D01*
X122178212Y-102389707D01*
X122178211Y-102389708D01*
X122090613Y-102520807D01*
X122090603Y-102520824D01*
X122090598Y-102520833D01*
X122030264Y-102666496D01*
X122030261Y-102666510D01*
X121999500Y-102821150D01*
X121999500Y-102821153D01*
X121999500Y-102978846D01*
X121999500Y-102978848D01*
X121999499Y-102978848D01*
X122030257Y-103133471D01*
X122030264Y-103133502D01*
X122090598Y-103279165D01*
X122090603Y-103279174D01*
X122090613Y-103279191D01*
X122178207Y-103410284D01*
X122178212Y-103410291D01*
X122178217Y-103410297D01*
X122183133Y-103415213D01*
X122204282Y-103443463D01*
X122209702Y-103453388D01*
X122224556Y-103521660D01*
X122200142Y-103587125D01*
X122144210Y-103628999D01*
X122144206Y-103629001D01*
X122137018Y-103631682D01*
X122093684Y-103639500D01*
X120959771Y-103639500D01*
X120924836Y-103634477D01*
X120913982Y-103631290D01*
X120855204Y-103593516D01*
X120826179Y-103529960D01*
X120836119Y-103460811D01*
X120839309Y-103453824D01*
X120864427Y-103417651D01*
X120871786Y-103410292D01*
X120871793Y-103410284D01*
X120959390Y-103279185D01*
X120959390Y-103279184D01*
X120959394Y-103279179D01*
X121019737Y-103133497D01*
X121050500Y-102978842D01*
X121050500Y-102821158D01*
X121050500Y-102821155D01*
X121050500Y-102820973D01*
X121050065Y-102818972D01*
X121040554Y-102771158D01*
X121020395Y-102669816D01*
X121019994Y-102667467D01*
X121019738Y-102666508D01*
X121019737Y-102666506D01*
X121019737Y-102666503D01*
X121019735Y-102666498D01*
X120959397Y-102520827D01*
X120959390Y-102520814D01*
X120871789Y-102389711D01*
X120871786Y-102389707D01*
X120871781Y-102389701D01*
X120760297Y-102278217D01*
X120760291Y-102278212D01*
X120760290Y-102278211D01*
X120629191Y-102190613D01*
X120629190Y-102190612D01*
X120629185Y-102190609D01*
X120629172Y-102190602D01*
X120629165Y-102190598D01*
X120483502Y-102130264D01*
X120483471Y-102130257D01*
X120328847Y-102099500D01*
X120328845Y-102099500D01*
X120328842Y-102099500D01*
X120171158Y-102099500D01*
X120171155Y-102099500D01*
X120171153Y-102099500D01*
X120016527Y-102130257D01*
X120016496Y-102130264D01*
X119870833Y-102190598D01*
X119870824Y-102190603D01*
X119870807Y-102190613D01*
X119739708Y-102278211D01*
X119739707Y-102278212D01*
X119739701Y-102278217D01*
X119628217Y-102389701D01*
X119628212Y-102389707D01*
X119628211Y-102389708D01*
X119540613Y-102520807D01*
X119540603Y-102520824D01*
X119540598Y-102520833D01*
X119480264Y-102666496D01*
X119480261Y-102666510D01*
X119449500Y-102821150D01*
X119449500Y-102821153D01*
X119449500Y-102978846D01*
X119449500Y-102978848D01*
X119449499Y-102978848D01*
X119480257Y-103133471D01*
X119480264Y-103133502D01*
X119540598Y-103279165D01*
X119540603Y-103279174D01*
X119540613Y-103279191D01*
X119628207Y-103410284D01*
X119628212Y-103410291D01*
X119628217Y-103410297D01*
X119633133Y-103415213D01*
X119654282Y-103443463D01*
X119659702Y-103453388D01*
X119674556Y-103521660D01*
X119650142Y-103587125D01*
X119594210Y-103628999D01*
X119594206Y-103629001D01*
X119587018Y-103631682D01*
X119543684Y-103639500D01*
X118309771Y-103639500D01*
X118274836Y-103634477D01*
X118263982Y-103631290D01*
X118205204Y-103593516D01*
X118176179Y-103529960D01*
X118186122Y-103460803D01*
X118189312Y-103453820D01*
X118214421Y-103417658D01*
X118271787Y-103360292D01*
X118271789Y-103360289D01*
X118359394Y-103229179D01*
X118419737Y-103083497D01*
X118450500Y-102928842D01*
X118450500Y-102771158D01*
X118450500Y-102771155D01*
X118450500Y-102770971D01*
X118450064Y-102768966D01*
X118429684Y-102666510D01*
X118419737Y-102616503D01*
X118380102Y-102520814D01*
X118359397Y-102470827D01*
X118359390Y-102470814D01*
X118271789Y-102339711D01*
X118271786Y-102339707D01*
X118271781Y-102339701D01*
X118160297Y-102228217D01*
X118160291Y-102228212D01*
X118160290Y-102228211D01*
X118029191Y-102140613D01*
X118029190Y-102140612D01*
X118029185Y-102140609D01*
X118029172Y-102140602D01*
X118029165Y-102140598D01*
X117883502Y-102080264D01*
X117883471Y-102080257D01*
X117728847Y-102049500D01*
X117728845Y-102049500D01*
X117728842Y-102049500D01*
X117571158Y-102049500D01*
X117571155Y-102049500D01*
X117571153Y-102049500D01*
X117416527Y-102080257D01*
X117416496Y-102080264D01*
X117270833Y-102140598D01*
X117270824Y-102140603D01*
X117270807Y-102140613D01*
X117139708Y-102228211D01*
X117139707Y-102228212D01*
X117139701Y-102228217D01*
X117028217Y-102339701D01*
X117028212Y-102339707D01*
X117028211Y-102339708D01*
X116940613Y-102470807D01*
X116940603Y-102470824D01*
X116940598Y-102470833D01*
X116880264Y-102616496D01*
X116880257Y-102616527D01*
X116849500Y-102771150D01*
X116849500Y-102771153D01*
X116849500Y-102928846D01*
X116849500Y-102928848D01*
X116849499Y-102928848D01*
X116880257Y-103083471D01*
X116880264Y-103083502D01*
X116940598Y-103229165D01*
X116940603Y-103229174D01*
X116940613Y-103229191D01*
X117028211Y-103360290D01*
X117028212Y-103360291D01*
X117028216Y-103360296D01*
X117083132Y-103415211D01*
X117104284Y-103443466D01*
X117109704Y-103453392D01*
X117124556Y-103521665D01*
X117100139Y-103587129D01*
X117044206Y-103629001D01*
X117037018Y-103631682D01*
X116993684Y-103639500D01*
X106622448Y-103639500D01*
X106616958Y-103639378D01*
X106611474Y-103639134D01*
X106606002Y-103638770D01*
X106598733Y-103638124D01*
X106594100Y-103637712D01*
X106582140Y-103636648D01*
X106570482Y-103635050D01*
X106558935Y-103632905D01*
X106547471Y-103630207D01*
X106481919Y-103611451D01*
X106470031Y-103607387D01*
X106458408Y-103602744D01*
X106447005Y-103597505D01*
X106390459Y-103567967D01*
X106379647Y-103561603D01*
X106369188Y-103554710D01*
X106359066Y-103547277D01*
X106309620Y-103506959D01*
X106300300Y-103498538D01*
X106291458Y-103489696D01*
X106283037Y-103480376D01*
X106242716Y-103430927D01*
X106235289Y-103420812D01*
X106228400Y-103410359D01*
X106222028Y-103399534D01*
X106217920Y-103391669D01*
X106201529Y-103360292D01*
X106192487Y-103342983D01*
X106187248Y-103331578D01*
X106182605Y-103319953D01*
X106178547Y-103308079D01*
X106159790Y-103242522D01*
X106157092Y-103231063D01*
X106154947Y-103219518D01*
X106153348Y-103207843D01*
X106151230Y-103184008D01*
X106150865Y-103178525D01*
X106150622Y-103173045D01*
X106150500Y-103167552D01*
X106150500Y-55141829D01*
X106155523Y-55106893D01*
X106159927Y-55091895D01*
X106197672Y-55033144D01*
X106199041Y-55031957D01*
X106253920Y-55004477D01*
X106261479Y-55002833D01*
X106287832Y-55000000D01*
X106645549Y-55000000D01*
X106680485Y-55005023D01*
G37*
%TD.AperFunction*%
%TD*%
M02*
